<?xml version="1.0" encoding="utf-8"?>
<!-- Generator: Adobe Illustrator 15.0.0, SVG Export Plug-In . SVG Version: 6.00 Build 0)  -->
<svg version="1.2" baseProfile="tiny" id="Layer_1_copy"
	 xmlns="http://www.w3.org/2000/svg" xmlns:xlink="http://www.w3.org/1999/xlink" x="0px" y="0px" width="1200px" height="750px"
	 viewBox="0 0 1200 750" xml:space="preserve">
<path fill="none" stroke="#E5352D" stroke-width="0.12" stroke-linecap="round" stroke-linejoin="round" stroke-miterlimit="10" d="
	M-6.498,74.224v3.412 M-6.498,69.445v4.094 M-6.498,65.346v4.1 M-6.498,61.257v3.411 M-6.498,56.473v4.095 M-6.498,52.379v4.094
	 M-6.498,47.599v4.096 M-6.498,43.5v4.099 M-6.498,40.773v2.05 M-6.498,296.78v0.684 M-6.498,40.773v0.683 M230.394,42.14v-1.367
	v0.683 M230.394,46.918v-3.417v0.688 M230.394,51.012v-3.413v0.68 M230.394,55.79v-3.411v0.683 M230.394,59.89v-3.417v0.685
	 M230.394,63.985v-2.728v0.677 M230.394,68.762v-3.417v0.689 M230.394,72.856v-3.412v0.684 M230.394,76.958v-2.734v0.684
	 M230.394,81.734v-3.411v0.679 M230.394,85.831v-3.417v0.688 M230.394,90.607v-3.412v0.685 M230.394,94.703v-3.412v0.684
	 M230.394,98.801v-2.732v0.683 M230.394,103.58v-3.411v0.678 M230.394,107.674v-3.411v0.684 M230.394,111.769v-2.726v0.684
	 M230.394,116.547v-3.412v0.684 M230.394,120.647v-3.413v0.678 M230.394,125.425v-3.41v0.679 M230.394,129.524v-3.416v0.683
	 M230.394,133.615v-2.728v0.683 M230.394,138.397v-3.417v0.69 M230.394,142.492v-3.41v0.678 M230.394,146.593v-2.734v0.684
	 M230.394,151.37v-3.417v0.684 M230.394,155.465v-3.418v0.69 M230.394,160.243v-3.418v0.688 M230.394,164.338v-3.412v0.684
	 M230.394,168.437v-2.733v0.682 M230.394,173.215v-3.411v0.679 M230.394,177.31v-3.417v0.688 M230.394,181.403v-2.728v0.686
	 M230.394,186.183v-3.412v0.684 M230.394,190.283v-3.411v0.677 M230.394,195.061v-3.411v0.677 M230.394,199.156v-3.412v0.684
	 M230.394,203.25v-2.728v0.682 M230.394,208.027v-3.411v0.684 M230.394,212.126v-3.41v0.678 M230.394,216.222v-2.727v0.679
	 M230.394,221.006v-3.417v0.684 M230.394,225.095v-2.729v0.685 M230.394,229.879v-3.417v0.684 M230.394,233.974v-3.412v0.677
	 M230.394,238.073v-2.733v0.676 M230.394,242.851v-3.416v0.684 M230.394,246.944v-3.416v0.684 M230.394,251.041v-2.734v0.689
	 M230.394,255.817v-3.412v0.68 M230.394,259.918v-2.732v0.684 M230.394,264.696v-3.415v0.683 M230.394,268.789v-3.416v0.689
	 M230.394,272.885v-2.733v0.688 M230.394,277.663v-3.411v0.684 M230.394,281.763v-3.417v0.684 M230.394,286.54v-3.411v0.677
	 M230.394,290.636v-3.416v0.688 M230.394,294.731v-2.73v0.685 M230.394,299.507v-3.41v0.684 M230.394,303.607v-3.41v0.679
	 M230.394,307.702v-2.728v0.678 M230.394,312.479v-3.41v0.684 M230.394,316.575v-3.411v0.685 M230.394,321.354v-3.411v0.686
	 M230.394,324.087v-2.046v0.678 M230.394,40.773v0.683 M230.394,324.087v0.683 M230.394,334.332v-3.417v0.683 M230.394,338.421
	v-3.411v0.685 M230.394,342.52v-2.732v0.688 M230.394,347.298v-3.41v0.678 M230.394,351.398v-3.416v0.683 M230.394,356.176v-3.417
	v0.684 M230.394,360.271v-3.417v0.688 M230.394,364.367v-2.736v0.689 M230.394,369.144v-3.411v0.684 M230.394,373.243v-3.417v0.684
	 M230.394,377.339v-2.729v0.678 M230.394,382.117v-3.42v0.69 M230.394,386.209V382.8v0.685 M230.394,390.986v-3.409v0.685
	 M230.394,395.088v-3.408v0.674 M230.394,399.184v-2.728v0.677 M230.394,403.961v-3.41v0.685 M230.394,408.057v-3.411v0.682
	 M230.394,412.155v-2.734v0.685 M230.394,416.935v-3.412v0.679 M230.394,421.027v-3.41v0.682 M230.394,425.812v-3.415v0.681
	 M230.394,429.9v-3.409v0.682 M230.394,434.002v-2.734v0.683 M230.394,438.777v-3.411v0.68 M230.394,442.878v-3.416v0.684
	 M230.394,446.968v-2.729v0.686 M230.394,451.751v-3.417v0.684 M230.394,455.847v-3.41v0.676 M230.394,460.624v-3.411v0.679
	 M230.394,464.726v-3.417v0.682 M230.394,468.818v-2.733v0.682 M230.394,473.599v-3.417v0.688 M230.394,477.688v-3.408v0.679
	 M230.394,481.789v-2.732v0.684 M230.394,486.568v-3.415v0.686 M230.394,490.664v-2.729v0.681 M230.394,495.445v-3.419v0.69
	 M230.394,499.537v-3.414v0.685 M230.394,503.64v-2.735v0.683 M230.394,508.415v-3.412v0.678 M230.394,512.507v-3.415v0.69
	 M230.394,517.285v-3.408v0.685 M230.394,521.379v-3.408v0.682 M230.394,525.483v-2.733v0.682 M230.394,530.26v-3.413v0.68
	 M230.394,534.354v-3.411v0.682 M230.394,538.447v-2.726v0.682 M230.394,543.227v-3.41v0.682 M230.394,547.326v-3.409v0.676
	 M230.394,552.103v-3.409v0.676 M230.394,556.206v-3.415v0.682 M230.394,557.563v0.687 M230.394,330.231v0.684 M230.394,557.563
	v0.687 M229.71,324.087h0.684v0.683 M225.614,324.087h2.734v0.683 M220.837,324.087h3.411v0.683 M216.743,324.087h3.411v0.683
	 M211.958,324.087h3.418v0.683 M207.863,324.087h3.418v0.683 M203.771,324.087h2.729v0.683 M198.992,324.087h3.409v0.683
	 M194.893,324.087h3.416v0.683 M190.797,324.087h2.735v0.683 M186.02,324.087h3.411v0.683 M181.925,324.087h2.728v0.683
	 M177.147,324.087h3.411v0.683 M173.047,324.087h3.416v0.683 M168.953,324.087h2.732v0.683 M164.174,324.087h3.411v0.683
	 M160.08,324.087h3.411v0.683 M155.98,324.087h2.732v0.683 M151.202,324.087h3.416v0.683 M147.107,324.087h2.728v0.683
	 M142.33,324.087h3.411v0.683 M138.229,324.087h3.416v0.683 M134.133,324.087h2.734v0.683 M129.356,324.087h3.41v0.683
	 M125.262,324.087h3.411v0.683 M120.485,324.087h3.411v0.683 M116.385,324.087h3.417v0.683 M112.289,324.087h2.728v0.683
	 M107.511,324.087h3.412v0.683 M103.416,324.087h3.412v0.683 M99.317,324.087h2.734v0.683 M230.394,324.087v0.683 M98.633,324.087
	v0.683 M98.633,299.507v-2.727v0.684 M98.633,303.607v-3.41v0.679 M98.633,307.702v-2.728v0.678 M98.633,312.479v-3.41v0.684
	 M98.633,316.575v-3.411v0.685 M98.633,321.354v-3.411v0.686 M98.633,324.087v-2.046v0.678 M98.633,296.78v0.684 M98.633,324.087
	v0.683 M94.539,296.78h3.411v0.684 M90.444,296.78h3.41v0.684 M85.667,296.78h3.412v0.684 M81.566,296.78h3.416v0.684
	 M77.472,296.78h2.733v0.684 M72.693,296.78h3.412v0.684 M68.6,296.78h3.412v0.684 M64.498,296.78h2.734v0.684 M59.721,296.78h3.417
	v0.684 M55.627,296.78h3.411v0.684 M50.85,296.78h3.411v0.684 M46.749,296.78h3.417v0.684 M42.653,296.78h2.733v0.684
	 M37.877,296.78h3.411v0.684 M33.782,296.78h3.41v0.684 M29.681,296.78h2.734v0.684 M24.902,296.78h3.416v0.684 M20.81,296.78h3.411
	v0.684 M16.031,296.78h3.412v0.684 M11.937,296.78h3.411v0.684 M7.837,296.78h2.734v0.684 M3.059,296.78h3.417v0.684 M-1.036,296.78
	h3.412v0.684 M-5.131,296.78h2.729v0.684 M98.633,296.78v0.684 M-6.498,296.78v0.684 M-2.402,302.24h-2.729v0.684 M2.376,302.24
	h-3.412v0.684 M6.476,302.24H3.059v0.684 M10.571,302.24H7.837v0.684 M15.348,302.24h-3.411v0.684 M19.442,302.24h-3.412v0.684
	 M24.221,302.24H20.81v0.684 M28.319,302.24h-3.417v0.684 M32.416,302.24h-2.734v0.684 M37.192,302.24h-3.41v0.684 M41.288,302.24
	h-3.411v0.684 M45.387,302.24h-2.733v0.684 M50.165,302.24h-3.417v0.684 M54.261,302.24H50.85v0.684 M59.037,302.24h-3.411v0.684
	 M63.138,302.24h-3.417v0.684 M67.233,302.24H64.5v0.684 M72.011,302.24H68.6v0.684 M76.106,302.24h-3.411v0.684 M80.206,302.24
	h-2.733v0.684 M84.982,302.24h-3.416v0.684 M89.079,302.24h-3.412v0.684 M92.488,302.24h-2.044v0.684 M-6.498,302.24v0.684
	 M92.488,302.24v0.684 M92.488,303.607v-1.367v0.684 M92.488,307.702v-2.728v0.678 M92.488,312.479v-3.41v0.684 M92.488,316.575
	v-3.411v0.685 M92.488,321.354v-3.411v0.686 M92.488,325.453v-3.412v0.678 M92.488,329.548v-2.729v0.678 M92.488,302.24v0.684
	 M92.488,330.231v0.684 M93.854,330.231h-1.366v0.684 M97.95,330.231h-3.411v0.684 M102.051,330.231h-2.734v0.684 M106.829,330.231
	h-3.412v0.684 M110.923,330.231h-3.412v0.684 M115.017,330.231h-2.728v0.684 M119.801,330.231h-3.417v0.684 M123.895,330.231h-3.411
	v0.684 M128.673,330.231h-3.411v0.684 M132.767,330.231h-3.41v0.684 M136.869,330.231h-2.734v0.684 M141.645,330.231h-3.416v0.684
	 M145.741,330.231h-3.411v0.684 M149.835,330.231h-2.728v0.684 M154.618,330.231h-3.416v0.684 M158.712,330.231h-2.732v0.684
	 M163.49,330.231h-3.411v0.684 M167.585,330.231h-3.411v0.684 M171.685,330.231h-2.732v0.684 M176.463,330.231h-3.416v0.684
	 M180.558,330.231h-3.411v0.684 M184.653,330.231h-2.728v0.684 M189.431,330.231h-3.411v0.684 M193.531,330.231h-2.735v0.684
	 M198.309,330.231h-3.416v0.684 M202.403,330.231h-3.409v0.684 M206.499,330.231h-2.729v0.684 M211.281,330.231h-3.418v0.684
	 M215.376,330.231h-3.418v0.684 M220.154,330.231h-3.411v0.684 M224.247,330.231h-3.411v0.684 M228.348,330.231h-2.734v0.684
	 M230.394,330.231h-0.684v0.684 M92.488,330.231v0.684 M230.394,330.231v0.684 M229.71,557.563h0.684v0.687 M225.614,557.563h2.734
	v0.687 M220.837,557.563h3.411v0.687 M216.743,557.563h3.411v0.687 M211.958,557.563h3.418v0.687 M207.863,557.563h3.418v0.687
	 M203.771,557.563h2.729v0.687 M198.992,557.563h3.409v0.687 M194.893,557.563h3.416v0.687 M190.797,557.563h2.735v0.687
	 M186.02,557.563h3.411v0.687 M181.925,557.563h2.728v0.687 M177.147,557.563h3.411v0.687 M173.047,557.563h3.416v0.687
	 M168.953,557.563h2.732v0.687 M164.174,557.563h3.411v0.687 M160.08,557.563h3.411v0.687 M155.98,557.563h2.732v0.687
	 M151.202,557.563h3.416v0.687 M147.107,557.563h2.728v0.687 M142.33,557.563h3.411v0.687 M138.229,557.563h3.416v0.687
	 M134.133,557.563h2.734v0.687 M129.356,557.563h3.41v0.687 M125.262,557.563h3.411v0.687 M120.485,557.563h3.411v0.687
	 M116.385,557.563h3.417v0.687 M112.289,557.563h2.728v0.687 M107.511,557.563h3.412v0.687 M103.416,557.563h3.412v0.687
	 M99.317,557.563h2.734v0.687 M94.539,557.563h3.411v0.687 M90.444,557.563h3.41v0.687 M85.667,557.563h3.412v0.687 M81.566,557.563
	h3.416v0.687 M77.472,557.563h2.733v0.687 M72.693,557.563h3.412v0.687 M68.6,557.563h3.412v0.687 M64.498,557.563h2.734v0.687
	 M59.721,557.563h3.417v0.687 M55.627,557.563h3.411v0.687 M50.85,557.563h3.411v0.687 M46.749,557.563h3.417v0.687 M42.653,557.563
	h2.733v0.687 M37.877,557.563h3.411v0.687 M33.782,557.563h3.41v0.687 M29.681,557.563h2.734v0.687 M24.902,557.563h3.416v0.687
	 M20.81,557.563h3.411v0.687 M16.031,557.563h3.412v0.687 M11.937,557.563h3.411v0.687 M7.837,557.563h2.734v0.687 M3.059,557.563
	h3.417v0.687 M-1.036,557.563h3.412v0.687 M-5.131,557.563h2.729v0.687 M230.394,557.563v0.687 M-6.498,557.563v0.687
	 M-2.402,40.773h-2.729v0.683 M2.376,40.773h-3.412v0.683 M6.476,40.773H3.059v0.683 M10.571,40.773H7.837v0.683 M15.348,40.773
	h-3.411v0.683 M19.442,40.773h-3.412v0.683 M24.221,40.773H20.81v0.683 M28.319,40.773h-3.417v0.683 M32.416,40.773h-2.734v0.683
	 M37.192,40.773h-3.41v0.683 M41.288,40.773h-3.411v0.683 M45.387,40.773h-2.733v0.683 M50.165,40.773h-3.417v0.683 M54.261,40.773
	H50.85v0.683 M59.037,40.773h-3.411v0.683 M63.138,40.773h-3.417v0.683 M67.233,40.773H64.5v0.683 M72.011,40.773H68.6v0.683
	 M76.106,40.773h-3.411v0.683 M80.206,40.773h-2.733v0.683 M84.982,40.773h-3.416v0.683 M89.079,40.773h-3.412v0.683 M93.854,40.773
	h-3.41v0.683 M97.95,40.773h-3.411v0.683 M102.051,40.773h-2.734v0.683 M106.829,40.773h-3.412v0.683 M110.923,40.773h-3.412v0.683
	 M115.017,40.773h-2.728v0.683 M119.801,40.773h-3.417v0.683 M123.895,40.773h-3.411v0.683 M128.673,40.773h-3.411v0.683
	 M132.767,40.773h-3.41v0.683 M136.869,40.773h-2.734v0.683 M141.645,40.773h-3.416v0.683 M145.741,40.773h-3.411v0.683
	 M149.835,40.773h-2.728v0.683 M154.618,40.773h-3.416v0.683 M158.712,40.773h-2.732v0.683 M163.49,40.773h-3.411v0.683
	 M167.585,40.773h-3.411v0.683 M171.685,40.773h-2.732v0.683 M176.463,40.773h-3.416v0.683 M180.558,40.773h-3.411v0.683
	 M184.653,40.773h-2.728v0.683 M189.431,40.773h-3.411v0.683 M193.531,40.773h-2.735v0.683 M198.309,40.773h-3.416v0.683
	 M202.403,40.773h-3.409v0.683 M206.499,40.773h-2.729v0.683 M211.281,40.773h-3.418v0.683 M215.376,40.773h-3.418v0.683
	 M220.154,40.773h-3.411v0.683 M224.247,40.773h-3.411v0.683 M228.348,40.773h-2.734v0.683 M230.394,40.773h-0.684v0.683
	 M-6.498,40.773v0.683 M230.394,40.773v0.683 M237.222,561.661v4.099 M237.222,557.563v3.419 M237.222,552.788v4.095
	 M237.222,548.693v4.095 M237.222,543.917v4.092 M237.222,539.815v4.099 M237.222,535.722v3.417 M237.222,530.939v4.097
	 M237.222,526.847v4.093 M237.222,522.75v3.408 M237.222,517.971v4.097 M237.222,513.877v4.094 M237.222,509.092v4.1
	 M237.222,505.003v4.091 M237.222,500.901v3.412 M237.222,496.123v4.094 M237.222,492.023v4.099 M237.222,487.935v3.41
	 M237.222,483.153v4.094 M237.222,479.057v3.411 M237.222,474.28v4.094 M237.222,470.18v4.098 M237.222,466.085v3.416
	 M237.222,461.306v4.095 M237.222,457.213v4.093 M237.222,452.434v4.095 M237.222,448.334v4.1 M237.222,444.239v3.418
	 M237.222,439.462v4.095 M237.222,435.366v4.096 M237.222,431.268v3.416 M237.222,426.491v4.098 M237.222,422.396v4.093
	 M237.222,417.617v4.094 M237.222,413.522v4.094 M237.222,409.421v3.413 M237.222,404.646v4.1 M237.222,400.549v4.094
	 M237.222,396.456v3.409 M237.222,391.678v4.09 M237.222,387.577v4.101 M237.222,382.8v4.094 M237.222,378.697v4.103
	 M237.222,374.61v3.411 M237.222,369.828v4.094 M237.222,365.731v4.095 M237.222,361.631v3.419 M237.222,356.854v4.1
	 M237.222,352.759v4.095 M237.222,347.982v4.093 M237.222,343.888v4.095 M237.222,339.788v3.416 M237.222,335.009v4.1
	 M237.222,330.915v4.094 M237.222,326.819v3.412 M237.222,322.041v4.094 M237.222,317.941v4.1 M237.222,313.164v4.099
	 M237.222,309.069v4.095 M237.222,304.975v3.411 M237.222,300.197v4.09 M237.222,296.097v4.101 M237.222,292.001v3.413
	 M237.222,287.218v4.102 M237.222,283.129v4.089 M237.222,278.346v4.094 M237.222,274.252v4.094 M237.222,270.153v3.414
	 M237.222,265.375v4.1 M237.222,261.279v4.094 M237.222,257.185v3.411 M237.222,252.405v4.096 M237.222,248.307v3.417
	 M237.222,243.528v4.101 M237.222,239.435v4.093 M237.222,235.339v3.411 M237.222,230.562v4.095 M237.222,226.461v4.1
	 M237.222,222.366v3.418 M237.222,217.589v4.093 M237.222,213.494v3.411 M237.222,208.716v4.095 M237.222,204.616v4.101
	 M237.222,200.522v3.416 M237.222,195.744v4.095 M237.222,191.65v4.094 M237.222,186.872v4.088 M237.222,182.771v4.1
	 M237.222,178.675v3.412 M237.222,173.894v4.099 M237.222,169.804v4.09 M237.222,165.704v3.411 M237.222,160.926v4.095
	 M237.222,156.825v4.1 M237.222,152.047v4.102 M237.222,147.953v4.094 M237.222,143.859v3.411 M237.222,139.081v4.093
	 M237.222,134.981v4.101 M237.222,130.887v3.416 M237.222,126.109v4.093 M237.222,122.014v4.095 M237.222,117.235v4.096
	 M237.222,113.136v4.099 M237.222,109.042v3.416 M237.222,104.263v4.094 M237.222,100.17v4.093 M237.222,96.069v3.411
	 M237.222,91.291v4.099 M237.222,87.196v4.095 M237.222,82.413v4.099 M237.222,78.323v4.09 M237.222,74.224v3.412 M237.222,69.445
	v4.094 M237.222,65.346v4.1 M237.222,61.257v3.411 M237.222,56.473v4.095 M237.222,52.379v4.094 M237.222,47.599v4.096
	 M237.222,43.5v4.099 M237.222,39.405v3.417 M237.222,34.629v4.093 M237.222,565.079v0.681 M237.222,33.944v0.683 M233.81,33.944
	h3.412v0.683 M229.71,33.944h3.416v0.683 M225.614,33.944h2.734v0.683 M220.837,33.944h3.411v0.683 M216.743,33.944h3.411v0.683
	 M211.958,33.944h3.418v0.683 M207.863,33.944h3.418v0.683 M203.771,33.944h2.729v0.683 M198.992,33.944h3.409v0.683
	 M194.893,33.944h3.416v0.683 M190.797,33.944h2.735v0.683 M186.02,33.944h3.411v0.683 M181.925,33.944h2.728v0.683 M177.147,33.944
	h3.411v0.683 M173.047,33.944h3.416v0.683 M168.953,33.944h2.732v0.683 M164.174,33.944h3.411v0.683 M160.08,33.944h3.411v0.683
	 M155.98,33.944h2.732v0.683 M151.202,33.944h3.416v0.683 M147.107,33.944h2.728v0.683 M142.33,33.944h3.411v0.683 M138.229,33.944
	h3.416v0.683 M134.133,33.944h2.734v0.683 M129.356,33.944h3.41v0.683 M125.262,33.944h3.411v0.683 M120.485,33.944h3.411v0.683
	 M116.385,33.944h3.417v0.683 M112.289,33.944h2.728v0.683 M107.511,33.944h3.412v0.683 M103.416,33.944h3.412v0.683 M99.317,33.944
	h2.734v0.683 M94.539,33.944h3.411v0.683 M90.444,33.944h3.41v0.683 M85.667,33.944h3.412v0.683 M81.566,33.944h3.416v0.683
	 M77.472,33.944h2.733v0.683 M72.693,33.944h3.412v0.683 M68.6,33.944h3.412v0.683 M64.498,33.944h2.734v0.683 M59.721,33.944h3.417
	v0.683 M55.627,33.944h3.411v0.683 M50.85,33.944h3.411v0.683 M46.749,33.944h3.417v0.683 M42.653,33.944h2.733v0.683
	 M37.877,33.944h3.411v0.683 M33.782,33.944h3.41v0.683 M29.681,33.944h2.734v0.683 M24.902,33.944h3.416v0.683 M20.81,33.944h3.411
	v0.683 M16.031,33.944h3.412v0.683 M11.937,33.944h3.411v0.683 M7.837,33.944h2.734v0.683 M3.059,33.944h3.417v0.683 M-1.036,33.944
	h3.412v0.683 M-5.131,33.944h2.729v0.683 M-9.913,33.944h3.415v0.683 M-13.325,33.944h2.734v0.683 M237.222,33.944v0.683
	 M-13.325,33.944v0.683 M-13.325,38.045v-3.416v0.684 M-13.325,42.14v-2.734v0.684 M-13.325,46.918v-3.417v0.688 M-13.325,51.012
	v-3.413v0.68 M-13.325,55.79v-3.411v0.683 M-13.325,59.89v-3.417v0.685 M-13.325,63.985v-2.728v0.677 M-13.325,68.762v-3.417v0.689
	 M-13.325,72.856v-3.412v0.684 M-13.325,76.958v-2.734v0.684 M-13.325,81.734v-3.411v0.679 M-13.325,85.831v-3.417v0.688
	 M-13.325,90.607v-3.412v0.685 M-13.325,94.703v-3.412v0.684 M-13.325,98.801v-2.732v0.683 M-13.325,103.58v-3.411v0.678
	 M-13.325,107.674v-3.411v0.684 M-13.325,111.769v-2.726v0.684 M-13.325,116.547v-3.412v0.684 M-13.325,120.647v-3.413v0.678
	 M-13.325,125.425v-3.41v0.679 M-13.325,129.524v-3.416v0.683 M-13.325,133.615v-2.728v0.683 M-13.325,138.397v-3.417v0.69
	 M-13.325,142.492v-3.41v0.678 M-13.325,146.593v-2.734v0.684 M-13.325,151.37v-3.417v0.684 M-13.325,155.465v-3.418v0.69
	 M-13.325,160.243v-3.418v0.688 M-13.325,164.338v-3.412v0.684 M-13.325,168.437v-2.733v0.682 M-13.325,173.215v-3.411v0.679
	 M-13.325,177.31v-3.417v0.688 M-13.325,181.403v-2.728v0.686 M-13.325,186.183v-3.412v0.684 M-13.325,190.283v-3.411v0.677
	 M-13.325,195.061v-3.411v0.677 M-13.325,199.156v-3.412v0.684 M-13.325,203.25v-2.728v0.682 M-13.325,208.027v-3.411v0.684
	 M-13.325,212.126v-3.41v0.678 M-13.325,216.222v-2.727v0.679 M-13.325,221.006v-3.417v0.684 M-13.325,225.095v-2.729v0.685
	 M-13.325,229.879v-3.417v0.684 M-13.325,233.974v-3.412v0.677 M-13.325,238.073v-2.733v0.676 M-13.325,242.851v-3.416v0.684
	 M-13.325,246.944v-3.416v0.684 M-13.325,251.041v-2.734v0.689 M-13.325,255.817v-3.412v0.68 M-13.325,259.918v-2.732v0.684
	 M-13.325,264.696v-3.415v0.683 M-13.325,268.789v-3.416v0.689 M-13.325,272.885v-2.733v0.688 M-13.325,277.663v-3.411v0.684
	 M-13.325,281.763v-3.417v0.684 M-13.325,286.54v-3.411v0.677 M-13.325,290.636v-3.416v0.688 M-13.325,294.731v-2.73v0.685
	 M-13.325,299.507v-3.41v0.684 M-13.325,303.607v-3.41v0.679 M-13.325,307.702v-2.728v0.678 M-13.325,312.479v-3.41v0.684
	 M-13.325,316.575v-3.411v0.685 M-13.325,321.354v-3.411v0.686 M-13.325,325.453v-3.412v0.678 M-13.325,329.548v-2.729v0.678
	 M-13.325,334.332v-3.417v0.683 M-13.325,338.421v-3.411v0.685 M-13.325,342.52v-2.732v0.688 M-13.325,347.298v-3.41v0.678
	 M-13.325,351.398v-3.416v0.683 M-13.325,356.176v-3.417v0.684 M-13.325,360.271v-3.417v0.688 M-13.325,364.367v-2.736v0.689
	 M-13.325,369.144v-3.411v0.684 M-13.325,373.243v-3.417v0.684 M-13.325,377.339v-2.729v0.678 M-13.325,382.117v-3.42v0.69
	 M-13.325,386.209V382.8v0.685 M-13.325,390.986v-3.409v0.685 M-13.325,395.088v-3.408v0.674 M-13.325,399.184v-2.728v0.677
	 M-13.325,403.961v-3.41v0.685 M-13.325,408.057v-3.411v0.682 M-13.325,412.155v-2.734v0.685 M-13.325,416.935v-3.412v0.679
	 M-13.325,421.027v-3.41v0.682 M-13.325,425.812v-3.415v0.681 M-13.325,429.9v-3.409v0.682 M-13.325,434.002v-2.734v0.683
	 M-13.325,438.777v-3.411v0.68 M-13.325,442.878v-3.416v0.684 M-13.325,446.968v-2.729v0.686 M-13.325,451.751v-3.417v0.684
	 M-13.325,455.847v-3.41v0.676 M-13.325,460.624v-3.411v0.679 M-13.325,464.726v-3.417v0.682 M-13.325,468.818v-2.733v0.682
	 M-13.325,473.599v-3.417v0.688 M-13.325,477.688v-3.408v0.679 M-13.325,481.789v-2.732v0.684 M-13.325,486.568v-3.415v0.686
	 M-13.325,490.664v-2.729v0.681 M-13.325,495.445v-3.419v0.69 M-13.325,499.537v-3.414v0.685 M-13.325,503.64v-2.735v0.683
	 M-13.325,508.415v-3.412v0.678 M-13.325,512.507v-3.415v0.69 M-13.325,517.285v-3.408v0.685 M-13.325,521.379v-3.408v0.682
	 M-13.325,525.483v-2.733v0.682 M-13.325,530.26v-3.413v0.68 M-13.325,534.354v-3.411v0.682 M-13.325,538.447v-2.726v0.682
	 M-13.325,543.227v-3.41v0.682 M-13.325,547.326v-3.409v0.676 M-13.325,552.103v-3.409v0.676 M-13.325,556.206v-3.415v0.682
	 M-13.325,560.291v-2.728v0.687 M-13.325,565.079v-3.415v0.688 M-13.325,33.944v0.683 M-13.325,565.079v0.681 M-10.593,565.079
	h-2.734v0.681 M-6.498,565.079h-3.415v0.681 M-2.402,565.079h-2.729v0.681 M2.376,565.079h-3.412v0.681 M6.476,565.079H3.059v0.681
	 M10.571,565.079H7.837v0.681 M15.348,565.079h-3.411v0.681 M19.442,565.079h-3.412v0.681 M24.221,565.079H20.81v0.681
	 M28.319,565.079h-3.417v0.681 M32.416,565.079h-2.734v0.681 M37.192,565.079h-3.41v0.681 M41.288,565.079h-3.411v0.681
	 M45.387,565.079h-2.733v0.681 M50.165,565.079h-3.417v0.681 M54.261,565.079H50.85v0.681 M59.037,565.079h-3.411v0.681
	 M63.138,565.079h-3.417v0.681 M67.233,565.079H64.5v0.681 M72.011,565.079H68.6v0.681 M76.106,565.079h-3.411v0.681
	 M80.206,565.079h-2.733v0.681 M84.982,565.079h-3.416v0.681 M89.079,565.079h-3.412v0.681 M93.854,565.079h-3.41v0.681
	 M97.95,565.079h-3.411v0.681 M102.051,565.079h-2.734v0.681 M106.829,565.079h-3.412v0.681 M110.923,565.079h-3.412v0.681
	 M115.017,565.079h-2.728v0.681 M119.801,565.079h-3.417v0.681 M123.895,565.079h-3.411v0.681 M128.673,565.079h-3.411v0.681
	 M132.767,565.079h-3.41v0.681 M136.869,565.079h-2.734v0.681 M141.645,565.079h-3.416v0.681 M145.741,565.079h-3.411v0.681
	 M149.835,565.079h-2.728v0.681 M154.618,565.079h-3.416v0.681 M158.712,565.079h-2.732v0.681 M163.49,565.079h-3.411v0.681
	 M167.585,565.079h-3.411v0.681 M171.685,565.079h-2.732v0.681 M176.463,565.079h-3.416v0.681 M180.558,565.079h-3.411v0.681
	 M184.653,565.079h-2.728v0.681 M189.431,565.079h-3.411v0.681 M193.531,565.079h-2.735v0.681 M198.309,565.079h-3.416v0.681
	 M202.403,565.079h-3.409v0.681 M206.499,565.079h-2.729v0.681 M211.281,565.079h-3.418v0.681 M215.376,565.079h-3.418v0.681
	 M220.154,565.079h-3.411v0.681 M224.247,565.079h-3.411v0.681 M228.348,565.079h-2.734v0.681 M233.126,565.079h-3.416v0.681
	 M237.222,565.079h-3.412v0.681 M-13.325,565.079v0.681 M237.222,565.079v0.681 M279.549,321.354l-2.733-2.727v0.683
	 M279.549,321.354l2.045-2.727v0.683 M279.549,264.696v57.347 M293.2,179.361l-2.728,2.728v0.683 M293.2,179.361l2.05,2.728v0.683
	 M293.2,236.016v-56.655v0.677 M50.165,127.475l2.729,2.051v0.677 M50.165,127.475l2.729-2.732v0.682 M106.829,127.475H50.165v0.684
	 M190.797,216.222l-2.728,2.051v0.677 M190.797,216.222l-2.728-2.727v0.679 M134.133,216.222h56.663v0.684 M216.743,498.17
	l-2.734,2.049v0.683 M216.743,498.17l-2.734-2.725v0.678 M160.08,498.17h56.664v0.688 M11.253,421.711l2.044,2.733v0.677
	 M11.253,421.711l2.044-2.045v0.68 M67.917,421.711H11.253v0.686 M650.245,328.186l-2.043,2.729v0.683 M650.245,328.186l2.731,2.729
	v0.683 M650.245,384.845v-56.657v0.679 M439.978,315.215l-2.73,2.048v0.679 M439.978,315.215l2.05,2.048v0.679 M439.978,371.876
	v-56.661v0.684 M457.725,122.014l-2.726,2.728v0.682 M457.725,122.014l2.735,2.728v0.682 M457.725,178.675v-56.661v0.678
	 M679.599,84.468l-2.726,2.728v0.685 M679.599,84.468l2.052,2.728v0.685 M679.599,141.126V84.468v0.677 M1398.47,84.468
	l-2.048,2.728v0.685 M1398.47,84.468l2.736,2.728v0.685 M1398.47,141.126V84.468v0.677 M1216.193,266.741l-2.729-2.045v0.679
	 M1216.193,266.741l2.049-2.045v0.679 M1216.193,210.078v57.346 M818.188,248.995l-2.73-2.732v0.682 M818.188,248.995l2.05-2.732
	v0.682 M818.188,192.327v57.347 M384.68,269.475l-2.05-2.05v0.683 M384.68,269.475l2.732-2.05v0.683 M384.68,212.811v57.342
	 M373.076,449.701l-2.05-2.733v0.689 M373.076,449.701l2.733-2.733v0.689 M373.076,393.039v57.347 M1096.042,299.507v13.657
	 M1036.65,299.507v13.657 M1096.042,285.857v13.649 M1036.65,285.857v13.649 M1098.091,298.829h-63.49v0.678 M1098.091,299.507
	h-63.49v0.69 M1098.091,328.186v-58.034v0.688 M1098.091,328.186v-58.034v0.688 M1098.091,270.153v58.712 M1034.6,328.186v-58.034
	v0.688 M1034.6,270.153v58.712 M1034.6,328.186v-58.034v0.688 M1098.091,380.75v-53.931v0.678 M1098.091,380.75v-53.931v0.678
	 M1098.091,326.819v54.612 M1096.042,370.511v10.24 M1036.65,370.511v10.24 M1034.6,380.75v-53.931v0.678 M1034.6,326.819v54.612
	 M1034.6,380.75v-53.931v0.678 M1096.042,328.186H1034.6v0.68 M1096.042,328.186v13.649 M1034.6,341.153h63.489v0.684
	 M1098.091,355.486h-63.49v0.689 M1098.091,356.854h-63.49v0.688 M1098.091,370.511h-63.49v0.683 M1096.042,356.854v12.974
	 M1096.042,342.52v13.655 M1036.65,356.854v12.974 M1036.65,342.52v13.655 M1036.65,328.186v13.649 M1034.6,326.819h63.489v0.678
	 M1098.091,313.849h-63.49v0.683 M1098.091,326.819h-63.49v0.678 M1098.091,328.186h-63.49v0.68 M1096.042,313.849v13.648
	 M1036.65,313.849v13.648 M1096.042,271.517H1034.6v0.69 M1096.042,271.517v13.657 M1034.6,284.492h63.489v0.684 M1036.65,271.517
	v13.657 M1034.6,270.153h63.489v0.688 M1096.042,218.272v10.24 M1034.6,227.828h63.489v0.684 M1098.091,271.517v-53.927v0.684
	 M1098.091,241.484h-63.49v0.677 M1098.091,271.517v-53.927v0.684 M1098.091,242.851h-63.49v0.677 M1098.091,217.589v54.618
	 M1098.091,257.185h-63.49v0.683 M1098.091,270.153h-63.49v0.688 M1098.091,271.517h-63.49v0.69 M1096.042,257.185v13.656
	 M1096.042,242.851v13.65 M1096.042,229.195v12.967 M1036.65,257.185v13.656 M1034.6,271.517v-53.927v0.684 M1034.6,217.589v54.618
	 M1034.6,271.517v-53.927v0.684 M1036.65,242.851v13.65 M1036.65,229.195v12.967 M1036.65,218.272v10.24 M1098.091,380.066h-63.49
	v0.684 M1098.091,380.75h-63.49v0.682 M1096.042,218.272H1034.6v0.677 M1098.091,217.589v163.842 M521.218,378.697H314.363v0.69
	 M314.363,305.652v196.616 M521.218,202.573H314.363v0.678 M314.363,62.618v230.746 M510.979,175.943h1139.405v0.683 M510.979,9.367
	v283.997 M510.979,423.077h1139.405v0.68 M510.979,305.652v284.68 M1650.385,292.686V9.367v0.689 M1650.385,589.653V305.652v0.689
	 M1098.091,305.652v0.689 M1098.091,299.507v0.69 M1098.091,292.686v0.679 M1034.6,217.589h63.489v0.684 M1034.6,380.75h63.489
	v0.682 M1034.6,380.75V217.589v0.684 M1106.28,363.683h516.114v0.685 M1106.28,387.577h516.114v0.685 M1170.453,412.155v-73.734
	v0.688 M1235.312,412.155v-73.734v0.688 M1299.486,412.155v-73.734v0.688 M1364.337,412.155v-73.734v0.688 M1428.51,412.155v-73.734
	v0.688 M1557.536,412.155v-73.734v0.688 M1235.312,412.155v-73.734v0.688 M1364.337,412.155v-73.734v0.688 M1493.363,412.155
	v-73.734v0.688 M1106.28,338.421h516.114v0.688 M1106.28,412.155v-73.734v0.688 M1106.28,412.155h516.114v0.679 M1622.395,412.155
	v-73.734v0.688 M1631.268,522.067h2.733v0.68 M1627.173,522.067h3.411v0.68 M1623.078,522.067h2.727v0.68 M1618.295,522.067h3.416
	v0.68 M1614.199,522.067h3.416v0.68 M1610.105,522.067h2.727v0.68 M1605.326,522.067h3.411v0.68 M1601.227,522.067h2.734v0.68
	 M1596.45,522.067h3.417v0.68 M1592.355,522.067h3.41v0.68 M1588.26,522.067h2.729v0.68 M1583.484,522.067h3.406v0.68
	 M1579.383,522.067h3.416v0.68 M1574.604,522.067h3.416v0.68 M1570.511,522.067h3.409v0.68 M1566.416,522.067h2.727v0.68
	 M1561.633,522.067h3.416v0.68 M1557.536,522.067h3.417v0.68 M1553.441,522.067h2.729v0.68 M1548.664,522.067h3.412v0.68
	 M1544.564,522.067h3.415v0.68 M1539.787,522.067h3.416v0.68 M1535.691,522.067h3.413v0.68 M1531.598,522.067h2.729v0.68
	 M1526.819,522.067h3.409v0.68 M1522.719,522.067h3.414v0.68 M1518.626,522.067h2.732v0.68 M1513.847,522.067h3.41v0.68
	 M1509.752,522.067h3.413v0.68 M1504.969,522.067h3.417v0.68 M1500.873,522.067h3.418v0.68 M1496.779,522.067h2.729v0.68
	 M1492.002,522.067h3.409v0.68 M1487.901,522.067h3.417v0.68 M1483.809,522.067h2.73v0.68 M1479.029,522.067h3.412v0.68
	 M1474.936,522.067h3.41v0.68 M1470.156,522.067h3.412v0.68 M1466.057,522.067h3.416v0.68 M1461.963,522.067h2.729v0.68
	 M1457.185,522.067h3.411v0.68 M1453.09,522.067h3.409v0.68 M1448.989,522.067h2.734v0.68 M1444.211,522.067h3.41v0.68
	 M1440.117,522.067h3.411v0.68 M1435.34,522.067h3.408v0.68 M1431.239,522.067h3.417v0.68 M1427.145,522.067h2.732v0.68
	 M1422.367,522.067h3.41v0.68 M1418.272,522.067h3.41v0.68 M1414.171,522.067h2.733v0.68 M1409.393,522.067h3.417v0.68
	 M1405.299,522.067h3.408v0.68 M1400.522,522.067h3.409v0.68 M1396.422,522.067h3.416v0.68 M1392.327,522.067h2.732v0.68
	 M1387.547,522.067h3.413v0.68 M1383.453,522.067h3.412v0.68 M1379.354,522.067h2.734v0.68 M1374.576,522.067h3.415v0.68
	 M1370.48,522.067h2.734v0.68 M1365.705,522.067h3.408v0.68 M1361.608,522.067h3.411v0.68 M1357.509,522.067h2.734v0.68
	 M1352.731,522.067h3.414v0.68 M1348.636,522.067h3.412v0.68 M1343.859,522.067h3.409v0.68 M1339.76,522.067h3.416v0.68
	 M1335.662,522.067h2.733v0.68 M1330.887,522.067h3.41v0.68 M1326.793,522.067h3.41v0.68 M1322.69,522.067h2.735v0.68
	 M1317.912,522.067h3.417v0.68 M1313.819,522.067h3.409v0.68 M1309.041,522.067h3.41v0.68 M1304.945,522.067h3.412v0.68
	 M1300.847,522.067h2.733v0.68 M1296.067,522.067h3.417v0.68 M1291.974,522.067h3.412v0.68 M1287.878,522.067h2.728v0.68
	 M1283.096,522.067h3.416v0.68 M1279.002,522.067h3.415v0.68 M1274.224,522.067h3.408v0.68 M1270.129,522.067h3.411v0.68
	 M1266.028,522.067h2.732v0.68 M1261.251,522.067h3.416v0.68 M1257.155,522.067h3.411v0.68 M1253.061,522.067h2.729v0.68
	 M1248.284,522.067h3.409v0.68 M1244.184,522.067h3.416v0.68 M1239.406,522.067h3.411v0.68 M1235.312,522.067h3.409v0.68
	 M1231.217,522.067h2.726v0.68 M1226.434,522.067h3.415v0.68 M1222.339,522.067h3.41v0.68 M1218.244,522.067h2.727v0.68
	 M1213.465,522.067h3.411v0.68 M1209.365,522.067h3.418v0.68 M1204.588,522.067h3.415v0.68 M1200.494,522.067h3.412v0.68
	 M1196.399,522.067h2.725v0.68 M1191.615,522.067h3.416v0.68 M1187.521,522.067h3.416v0.68 M1183.427,522.067h2.725v0.68
	 M1178.648,522.067h3.412v0.68 M1174.547,522.067h3.417v0.68 M1169.771,522.067h3.416v0.68 M1165.676,522.067h3.409v0.68
	 M1161.581,522.067h2.728v0.68 M1156.805,522.067h3.408v0.68 M1152.702,522.067h3.417v0.68 M1148.608,522.067h2.732v0.68
	 M1143.83,522.067h3.411v0.68 M1139.736,522.067h2.727v0.68 M1134.952,522.067h3.414v0.68 M1130.858,522.067h3.417v0.68
	 M1126.763,522.067h2.728v0.68 M1121.984,522.067h3.411v0.68 M1117.884,522.067h3.42v0.68 M1113.79,522.067h2.733v0.68
	 M1109.013,522.067h3.411v0.68 M1104.919,522.067h2.725v0.68 M1100.142,522.067h3.41v0.68 M1096.042,522.067h3.414v0.68
	 M1091.944,522.067h2.736v0.68 M1087.168,522.067h3.411v0.68 M1083.073,522.067h3.41v0.68 M1078.289,522.067h3.417v0.68
	 M1074.195,522.067h3.414v0.68 M1070.102,522.067h2.728v0.68 M1065.322,522.067h3.41v0.68 M1061.223,522.067h3.416v0.68
	 M1057.129,522.067h2.731v0.68 M1052.351,522.067h3.411v0.68 M1048.256,522.067h3.411v0.68 M1043.479,522.067h3.411v0.68
	 M1039.379,522.067h3.416v0.68 M1035.282,522.067h2.727v0.68 M1030.504,522.067h3.412v0.68 M1026.411,522.067h3.409v0.68
	 M1022.311,522.067h2.732v0.68 M1017.533,522.067h3.41v0.68 M1013.439,522.067h3.409v0.68 M1008.66,522.067h3.409v0.68
	 M1004.56,522.067h3.416v0.68 M1000.465,522.067h2.729v0.68 M997.731,522.067h1.367v0.68 M1634.001,522.067v0.68 M997.731,522.067
	v0.68 M1634.001,76.958v-0.684V76.958 M1634.001,81.734v-3.411v0.679 M1634.001,85.831v-3.417v0.688 M1634.001,90.607v-3.412v0.685
	 M1634.001,94.703v-3.412v0.684 M1634.001,98.801v-2.732v0.683 M1634.001,103.58v-3.411v0.678 M1634.001,107.674v-3.411v0.684
	 M1634.001,111.769v-2.726v0.684 M1634.001,116.547v-3.412v0.684 M1634.001,120.647v-3.413v0.678 M1634.001,125.425v-3.41v0.679
	 M1634.001,129.524v-3.416v0.683 M1634.001,133.615v-2.728v0.683 M1634.001,138.397v-3.417v0.69 M1634.001,142.492v-3.41v0.678
	 M1634.001,146.593v-2.734v0.684 M1634.001,151.37v-3.417v0.684 M1634.001,155.465v-3.418v0.69 M1634.001,160.243v-3.418v0.688
	 M1634.001,164.338v-3.412v0.684 M1634.001,168.437v-2.733v0.682 M1634.001,173.215v-3.411v0.679 M1634.001,177.31v-3.417v0.688
	 M1634.001,181.403v-2.728v0.686 M1634.001,186.183v-3.412v0.684 M1634.001,190.283v-3.411v0.677 M1634.001,195.061v-3.411v0.677
	 M1634.001,199.156v-3.412v0.684 M1634.001,203.25v-2.728v0.682 M1634.001,208.027v-3.411v0.684 M1634.001,212.126v-3.41v0.678
	 M1634.001,216.222v-2.727v0.679 M1634.001,221.006v-3.417v0.684 M1634.001,225.095v-2.729v0.685 M1634.001,229.879v-3.417v0.684
	 M1634.001,233.974v-3.412v0.677 M1634.001,238.073v-2.733v0.676 M1634.001,242.851v-3.416v0.684 M1634.001,246.944v-3.416v0.684
	 M1634.001,251.041v-2.734v0.689 M1634.001,255.817v-3.412v0.68 M1634.001,259.918v-2.732v0.684 M1634.001,264.696v-3.415v0.683
	 M1634.001,268.789v-3.416v0.689 M1634.001,272.885v-2.733v0.688 M1634.001,277.663v-3.411v0.684 M1634.001,281.763v-3.417v0.684
	 M1634.001,286.54v-3.411v0.677 M1634.001,290.636v-3.416v0.688 M1634.001,294.731v-2.73v0.685 M1634.001,299.507v-3.41v0.684
	 M1634.001,303.607v-3.41v0.679 M1634.001,307.702v-2.728v0.678 M1634.001,312.479v-3.41v0.684 M1634.001,316.575v-3.411v0.685
	 M1634.001,321.354v-3.411v0.686 M1634.001,325.453v-3.412v0.678 M1634.001,329.548v-2.729v0.678 M1634.001,334.332v-3.417v0.683
	 M1634.001,338.421v-3.411v0.685 M1634.001,342.52v-2.732v0.688 M1634.001,347.298v-3.41v0.678 M1634.001,351.398v-3.416v0.683
	 M1634.001,356.176v-3.417v0.684 M1634.001,360.271v-3.417v0.688 M1634.001,364.367v-2.736v0.689 M1634.001,369.144v-3.411v0.684
	 M1634.001,373.243v-3.417v0.684 M1634.001,377.339v-2.729v0.678 M1634.001,382.117v-3.42v0.69 M1634.001,386.209V382.8v0.685
	 M1634.001,390.986v-3.409v0.685 M1634.001,395.088v-3.408v0.674 M1634.001,399.184v-2.728v0.677 M1634.001,403.961v-3.41v0.685
	 M1634.001,408.057v-3.411v0.682 M1634.001,412.155v-2.734v0.685 M1634.001,416.935v-3.412v0.679 M1634.001,421.027v-3.41v0.682
	 M1634.001,425.812v-3.415v0.681 M1634.001,429.9v-3.409v0.682 M1634.001,434.002v-2.734v0.683 M1634.001,438.777v-3.411v0.68
	 M1634.001,442.878v-3.416v0.684 M1634.001,446.968v-2.729v0.686 M1634.001,451.751v-3.417v0.684 M1634.001,455.847v-3.41v0.676
	 M1634.001,460.624v-3.411v0.679 M1634.001,464.726v-3.417v0.682 M1634.001,468.818v-2.733v0.682 M1634.001,473.599v-3.417v0.688
	 M1634.001,477.688v-3.408v0.679 M1634.001,481.789v-2.732v0.684 M1634.001,486.568v-3.415v0.686 M1634.001,490.664v-2.729v0.681
	 M1634.001,495.445v-3.419v0.69 M1634.001,499.537v-3.414v0.685 M1634.001,503.64v-2.735v0.683 M1634.001,508.415v-3.412v0.678
	 M1634.001,512.507v-3.415v0.69 M1634.001,517.285v-3.408v0.685 M1634.001,521.379v-3.408v0.682 M1634.001,76.274v0.684
	 M1634.001,522.067v0.68 M1640.828,72.856v-3.412v0.684 M1640.828,76.958v-2.734v0.684 M1640.828,81.734v-3.411v0.679
	 M1640.828,85.831v-3.417v0.688 M1640.828,90.607v-3.412v0.685 M1640.828,94.703v-3.412v0.684 M1640.828,98.801v-2.732v0.683
	 M1640.828,103.58v-3.411v0.678 M1640.828,107.674v-3.411v0.684 M1640.828,111.769v-2.726v0.684 M1640.828,116.547v-3.412v0.684
	 M1640.828,120.647v-3.413v0.678 M1640.828,125.425v-3.41v0.679 M1640.828,129.524v-3.416v0.683 M1640.828,133.615v-2.728v0.683
	 M1640.828,138.397v-3.417v0.69 M1640.828,142.492v-3.41v0.678 M1640.828,146.593v-2.734v0.684 M1640.828,151.37v-3.417v0.684
	 M1640.828,155.465v-3.418v0.69 M1640.828,160.243v-3.418v0.688 M1640.828,164.338v-3.412v0.684 M1640.828,168.437v-2.733v0.682
	 M1640.828,173.215v-3.411v0.679 M1640.828,177.31v-3.417v0.688 M1640.828,181.403v-2.728v0.686 M1640.828,186.183v-3.412v0.684
	 M1640.828,190.283v-3.411v0.677 M1640.828,195.061v-3.411v0.677 M1640.828,199.156v-3.412v0.684 M1640.828,203.25v-2.728v0.682
	 M1640.828,208.027v-3.411v0.684 M1640.828,212.126v-3.41v0.678 M1640.828,216.222v-2.727v0.679 M1640.828,221.006v-3.417v0.684
	 M1640.828,225.095v-2.729v0.685 M1640.828,229.879v-3.417v0.684 M1640.828,233.974v-3.412v0.677 M1640.828,238.073v-2.733v0.676
	 M1640.828,242.851v-3.416v0.684 M1640.828,246.944v-3.416v0.684 M1640.828,251.041v-2.734v0.689 M1640.828,255.817v-3.412v0.68
	 M1640.828,259.918v-2.732v0.684 M1640.828,264.696v-3.415v0.683 M1640.828,268.789v-3.416v0.689 M1640.828,272.885v-2.733v0.688
	 M1640.828,277.663v-3.411v0.684 M1640.828,281.763v-3.417v0.684 M1640.828,286.54v-3.411v0.677 M1640.828,290.636v-3.416v0.688
	 M1640.828,294.731v-2.73v0.685 M1640.828,299.507v-3.41v0.684 M1640.828,303.607v-3.41v0.679 M1640.828,307.702v-2.728v0.678
	 M1640.828,312.479v-3.41v0.684 M1640.828,316.575v-3.411v0.685 M1640.828,321.354v-3.411v0.686 M1640.828,325.453v-3.412v0.678
	 M1640.828,329.548v-2.729v0.678 M1640.828,334.332v-3.417v0.683 M1640.828,338.421v-3.411v0.685 M1640.828,342.52v-2.732v0.688
	 M1640.828,347.298v-3.41v0.678 M1640.828,351.398v-3.416v0.683 M1640.828,356.176v-3.417v0.684 M1640.828,360.271v-3.417v0.688
	 M1640.828,364.367v-2.736v0.689 M1640.828,369.144v-3.411v0.684 M1640.828,373.243v-3.417v0.684 M1640.828,377.339v-2.729v0.678
	 M1640.828,382.117v-3.42v0.69 M1640.828,386.209V382.8v0.685 M1640.828,390.986v-3.409v0.685 M1640.828,395.088v-3.408v0.674
	 M1640.828,399.184v-2.728v0.677 M1640.828,403.961v-3.41v0.685 M1640.828,408.057v-3.411v0.682 M1640.828,412.155v-2.734v0.685
	 M1640.828,416.935v-3.412v0.679 M1640.828,421.027v-3.41v0.682 M1640.828,425.812v-3.415v0.681 M1640.828,429.9v-3.409v0.682
	 M1640.828,434.002v-2.734v0.683 M1640.828,438.777v-3.411v0.68 M1640.828,442.878v-3.416v0.684 M1640.828,446.968v-2.729v0.686
	 M1640.828,451.751v-3.417v0.684 M1640.828,455.847v-3.41v0.676 M1640.828,460.624v-3.411v0.679 M1640.828,464.726v-3.417v0.682
	 M1640.828,468.818v-2.733v0.682 M1640.828,473.599v-3.417v0.688 M1640.828,477.688v-3.408v0.679 M1640.828,481.789v-2.732v0.684
	 M1640.828,486.568v-3.415v0.686 M1640.828,490.664v-2.729v0.681 M1640.828,495.445v-3.419v0.69 M1640.828,499.537v-3.414v0.685
	 M1640.828,503.64v-2.735v0.683 M1640.828,508.415v-3.412v0.678 M1640.828,512.507v-3.415v0.69 M1640.828,517.285v-3.408v0.685
	 M1640.828,521.379v-3.408v0.682 M1640.828,525.483v-2.733v0.682 M1640.828,529.575v-2.729v0.68 M1640.828,69.445v0.684
	 M1640.828,529.575v0.685 M1007.977,529.575h-3.415v0.685 M1012.069,529.575h-3.409v0.685 M1016.847,529.575h-3.407v0.685
	 M1020.943,529.575h-3.41v0.685 M1025.043,529.575h-2.732v0.685 M1029.821,529.575h-3.407v0.685 M1033.916,529.575h-3.412v0.685
	 M1038.01,529.575h-2.726v0.685 M1042.795,529.575h-3.416v0.685 M1046.89,529.575h-3.411v0.685 M1051.667,529.575h-3.411v0.685
	 M1055.762,529.575h-3.411v0.685 M1059.86,529.575h-2.731v0.685 M1064.639,529.575h-3.416v0.685 M1068.734,529.575h-3.41v0.685
	 M1072.829,529.575h-2.728v0.685 M1077.611,529.575h-3.414v0.685 M1081.706,529.575h-3.417v0.685 M1086.481,529.575h-3.408v0.685
	 M1090.581,529.575h-3.411v0.685 M1094.681,529.575h-2.736v0.685 M1099.458,529.575h-3.415v0.685 M1103.552,529.575h-3.41v0.685
	 M1107.646,529.575h-2.726v0.685 M1112.424,529.575h-3.411v0.685 M1116.523,529.575h-2.733v0.685 M1121.304,529.575h-3.42v0.685
	 M1125.396,529.575h-3.411v0.685 M1129.492,529.575h-2.729v0.685 M1134.275,529.575h-3.417v0.685 M1138.368,529.575h-3.414v0.685
	 M1142.463,529.575h-2.727v0.685 M1147.243,529.575h-3.411v0.685 M1151.341,529.575h-2.732v0.685 M1156.119,529.575h-3.417v0.685
	 M1160.215,529.575h-3.41v0.685 M1164.309,529.575h-2.728v0.685 M1169.086,529.575h-3.409v0.685 M1173.187,529.575h-3.416v0.685
	 M1177.966,529.575h-3.417v0.685 M1182.061,529.575h-3.412v0.685 M1186.154,529.575h-2.727v0.685 M1190.938,529.575h-3.416v0.685
	 M1195.031,529.575h-3.416v0.685 M1199.126,529.575h-2.727v0.685 M1203.906,529.575h-3.412v0.685 M1208.004,529.575h-3.414v0.685
	 M1212.783,529.575h-3.418v0.685 M1216.878,529.575h-3.411v0.685 M1220.971,529.575h-2.727v0.685 M1225.747,529.575h-3.408v0.685
	 M1229.849,529.575h-3.415v0.685 M1233.942,529.575h-2.726v0.685 M1238.723,529.575h-3.409v0.685 M1242.817,529.575h-3.411v0.685
	 M1247.601,529.575h-3.416v0.685 M1251.693,529.575h-3.409v0.685 M1255.79,529.575h-2.729v0.685 M1260.566,529.575h-3.411v0.685
	 M1264.667,529.575h-3.416v0.685 M1268.763,529.575h-2.732v0.685 M1273.54,529.575h-3.411v0.685 M1277.634,529.575h-3.408v0.685
	 M1282.417,529.575h-3.415v0.685 M1286.512,529.575h-3.416v0.685 M1290.605,529.575h-2.728v0.685 M1295.386,529.575h-3.412v0.685
	 M1299.486,529.575h-3.416v0.685 M1303.58,529.575h-2.733v0.685 M1308.358,529.575h-3.411v0.685 M1312.451,529.575h-3.41v0.685
	 M1317.23,529.575h-3.409v0.685 M1321.329,529.575h-3.417v0.685 M1325.426,529.575h-2.735v0.685 M1330.203,529.575h-3.41v0.685
	 M1334.297,529.575h-3.41v0.685 M1338.397,529.575h-2.732v0.685 M1343.176,529.575h-3.416v0.685 M1347.27,529.575h-3.409v0.685
	 M1352.048,529.575h-3.412v0.685 M1356.146,529.575h-3.414v0.685 M1360.243,529.575h-2.734v0.685 M1365.02,529.575h-3.411v0.685
	 M1369.115,529.575h-3.408v0.685 M1373.215,529.575h-2.734v0.685 M1377.992,529.575h-3.414v0.685 M1382.089,529.575h-2.734v0.685
	 M1386.866,529.575h-3.411v0.685 M1390.96,529.575h-3.413v0.685 M1395.06,529.575h-2.732v0.685 M1399.838,529.575h-3.416v0.685
	 M1403.932,529.575h-3.409v0.685 M1408.709,529.575h-3.408v0.685 M1412.81,529.575h-3.417v0.685 M1416.906,529.575h-2.734v0.685
	 M1421.683,529.575h-3.41v0.685 M1425.777,529.575h-3.41v0.685 M1429.877,529.575h-2.732v0.685 M1434.656,529.575h-3.417v0.685
	 M1438.749,529.575h-3.407v0.685 M1443.528,529.575h-3.411v0.685 M1447.623,529.575h-3.41v0.685 M1451.724,529.575h-2.734v0.685
	 M1456.5,529.575h-3.41v0.685 M1460.596,529.575h-3.411v0.685 M1464.691,529.575h-2.729v0.685 M1469.473,529.575h-3.416v0.685
	 M1473.568,529.575h-3.412v0.685 M1478.348,529.575h-3.411v0.685 M1482.441,529.575h-3.412v0.685 M1486.541,529.575h-2.73v0.685
	 M1491.318,529.575h-3.417v0.685 M1495.411,529.575h-3.409v0.685 M1499.508,529.575h-2.729v0.685 M1504.291,529.575h-3.418v0.685
	 M1508.387,529.575h-3.418v0.685 M1513.165,529.575h-3.413v0.685 M1517.258,529.575h-3.41v0.685 M1521.358,529.575h-2.732v0.685
	 M1526.137,529.575h-3.416v0.685 M1530.229,529.575h-3.409v0.685 M1534.326,529.575h-2.729v0.685 M1539.104,529.575h-3.413v0.685
	 M1543.203,529.575h-3.416v0.685 M1547.981,529.575h-3.417v0.685 M1552.076,529.575h-3.412v0.685 M1556.172,529.575h-2.729v0.685
	 M1560.953,529.575h-3.417v0.685 M1565.049,529.575h-3.416v0.685 M1569.143,529.575h-2.727v0.685 M1573.92,529.575h-3.409v0.685
	 M1578.021,529.575h-3.415v0.685 M1582.799,529.575h-3.416v0.685 M1586.893,529.575h-3.408v0.685 M1590.988,529.575h-2.729v0.685
	 M1595.769,529.575h-3.413v0.685 M1599.867,529.575h-3.417v0.685 M1603.961,529.575h-2.734v0.685 M1608.739,529.575h-3.409v0.685
	 M1612.832,529.575h-2.727v0.685 M1617.616,529.575h-3.417v0.685 M1621.711,529.575h-3.416v0.685 M1625.807,529.575h-2.727v0.685
	 M1630.584,529.575h-3.411v0.685 M1634.684,529.575h-3.416v0.685 M1638.777,529.575h-2.73v0.685 M1640.828,529.575h-0.682v0.685
	 M1004.56,529.575v0.685 M1640.828,529.575v0.685 M510.979,589.653h1139.405v0.679 M1034.6,292.686H331.429v0.679 M1034.6,305.652
	H331.429v0.689 M332.796,299.507h-1.367v0.69 M337.574,299.507h-3.411v0.69 M341.675,299.507h-3.418v0.69 M345.768,299.507h-2.734
	v0.69 M350.546,299.507h-3.412v0.69 M354.642,299.507h-3.411v0.69 M359.424,299.507h-3.417v0.69 M363.519,299.507h-3.416v0.69
	 M367.613,299.507h-2.728v0.69 M372.391,299.507h-3.411v0.69 M376.492,299.507h-3.416v0.69 M380.586,299.507h-2.732v0.69
	 M385.364,299.507h-3.411v0.69 M389.459,299.507h-3.411v0.69 M394.236,299.507h-3.41v0.69 M398.336,299.507h-3.417v0.69
	 M402.432,299.507h-2.734v0.69 M407.208,299.507h-3.412v0.69 M411.303,299.507h-3.41v0.69 M415.406,299.507h-2.734v0.69
	 M420.182,299.507h-3.416v0.69 M424.276,299.507h-2.728v0.69 M429.055,299.507h-3.41v0.69 M433.154,299.507h-3.418v0.69
	 M437.247,299.507h-2.732v0.69 M442.027,299.507h-3.412v0.69 M446.122,299.507h-3.412v0.69 M450.906,299.507h-3.419v0.69
	 M455,299.507h-3.416v0.69 M459.096,299.507h-2.729v0.69 M463.871,299.507h-3.411v0.69 M467.973,299.507h-3.417v0.69
	 M472.066,299.507h-2.733v0.69 M476.845,299.507h-3.412v0.69 M480.938,299.507h-3.41v0.69 M485.719,299.507h-3.412v0.69
	 M489.817,299.507H486.4v0.69 M493.912,299.507h-2.734v0.69 M498.688,299.507h-3.41v0.69 M502.785,299.507h-3.413v0.69
	 M506.885,299.507h-2.733v0.69 M511.661,299.507h-3.417v0.69 M515.756,299.507h-3.412v0.69 M520.534,299.507h-3.411v0.69
	 M524.636,299.507h-3.418v0.69 M528.729,299.507h-2.734v0.69 M533.508,299.507h-3.413v0.69 M537.603,299.507h-3.412v0.69
	 M541.695,299.507h-2.729v0.69 M546.48,299.507h-3.418v0.69 M550.573,299.507h-3.409v0.69 M555.352,299.507h-3.41v0.69
	 M559.447,299.507h-3.412v0.69 M563.546,299.507h-2.734v0.69 M568.322,299.507h-3.414v0.69 M572.419,299.507h-3.413v0.69
	 M576.514,299.507h-2.729v0.69 M581.299,299.507h-3.417v0.69 M585.393,299.507h-3.416v0.69 M590.171,299.507h-3.411v0.69
	 M594.265,299.507h-3.411v0.69 M598.365,299.507h-2.733v0.69 M603.143,299.507h-3.417v0.69 M607.236,299.507h-3.41v0.69
	 M611.332,299.507h-2.729v0.69 M616.11,299.507h-3.414v0.69 M620.21,299.507h-3.415v0.69 M624.988,299.507h-3.411v0.69
	 M629.082,299.507h-3.41v0.69 M633.176,299.507h-2.727v0.69 M637.959,299.507h-3.415v0.69 M642.056,299.507h-3.409v0.69
	 M646.148,299.507h-2.729v0.69 M650.928,299.507h-3.41v0.69 M655.028,299.507h-2.734v0.69 M659.806,299.507h-3.415v0.69
	 M663.899,299.507h-3.41v0.69 M667.995,299.507h-2.729v0.69 M672.779,299.507h-3.419v0.69 M676.872,299.507h-3.416v0.69
	 M680.968,299.507h-2.732v0.69 M685.745,299.507h-3.41v0.69 M689.844,299.507h-2.729v0.69 M694.622,299.507h-3.417v0.69
	 M698.719,299.507h-3.418v0.69 M702.812,299.507h-2.729v0.69 M707.591,299.507h-3.413v0.69 M711.691,299.507h-3.418v0.69
	 M716.469,299.507h-3.417v0.69 M720.562,299.507h-3.408v0.69 M724.658,299.507h-2.729v0.69 M729.435,299.507h-3.409v0.69
	 M733.536,299.507h-3.418v0.69 M737.629,299.507H734.9v0.69 M742.408,299.507h-3.411v0.69 M746.502,299.507h-3.41v0.69
	 M751.285,299.507h-3.416v0.69 M755.38,299.507h-3.411v0.69 M759.476,299.507h-2.727v0.69 M764.252,299.507h-3.411v0.69
	 M768.354,299.507h-3.415v0.69 M772.447,299.507h-2.732v0.69 M777.225,299.507h-3.41v0.69 M781.319,299.507h-3.409v0.69
	 M786.103,299.507h-3.415v0.69 M790.198,299.507h-3.419v0.69 M794.294,299.507h-2.729v0.69 M799.071,299.507h-3.411v0.69
	 M803.17,299.507h-3.415v0.69 M807.264,299.507h-2.731v0.69 M812.042,299.507h-3.41v0.69 M816.138,299.507h-3.412v0.69
	 M820.916,299.507h-3.41v0.69 M825.017,299.507h-3.418v0.69 M829.11,299.507h-2.729v0.69 M833.888,299.507h-3.41v0.69
	 M837.982,299.507h-3.41v0.69 M842.081,299.507h-2.732v0.69 M846.858,299.507h-3.408v0.69 M850.956,299.507h-3.409v0.69
	 M855.732,299.507h-3.41v0.69 M859.833,299.507h-3.415v0.69 M863.928,299.507h-2.733v0.69 M868.705,299.507h-3.41v0.69
	 M872.801,299.507h-3.412v0.69 M876.9,299.507h-2.732v0.69 M881.679,299.507h-3.417v0.69 M885.772,299.507h-2.733v0.69
	 M890.55,299.507h-3.407v0.69 M894.652,299.507h-3.418v0.69 M898.746,299.507h-2.732v0.69 M903.523,299.507h-3.418v0.69
	 M907.621,299.507h-3.413v0.69 M911.719,299.507h-2.734v0.69 M916.496,299.507h-3.416v0.69 M920.591,299.507h-2.733v0.69
	 M925.37,299.507h-3.411v0.69 M929.461,299.507h-3.407v0.69 M933.562,299.507h-2.731v0.69 M938.341,299.507h-3.415v0.69
	 M942.436,299.507h-3.412v0.69 M947.213,299.507h-3.411v0.69 M951.31,299.507h-3.413v0.69 M955.409,299.507h-2.735v0.69
	 M960.185,299.507h-3.408v0.69 M964.281,299.507h-3.412v0.69 M968.375,299.507h-2.727v0.69 M973.159,299.507h-3.416v0.69
	 M977.255,299.507h-3.411v0.69 M982.032,299.507h-3.41v0.69 M986.126,299.507h-3.411v0.69 M990.227,299.507h-2.735v0.69
	 M995.004,299.507h-3.417v0.69 M999.099,299.507h-3.41v0.69 M1003.193,299.507h-2.729v0.69 M1007.977,299.507h-3.415v0.69
	 M1012.069,299.507h-3.409v0.69 M1016.847,299.507h-3.407v0.69 M1020.943,299.507h-3.41v0.69 M1025.043,299.507h-2.732v0.69
	 M1029.821,299.507h-3.407v0.69 M1033.916,299.507h-3.412v0.69 M331.429,299.507v0.69 M1034.6,299.507v0.69 M1099.458,299.507
	h-1.367v0.69 M1103.552,299.507h-3.41v0.69 M1107.646,299.507h-2.726v0.69 M1112.424,299.507h-3.411v0.69 M1116.523,299.507h-2.733
	v0.69 M1121.304,299.507h-3.42v0.69 M1125.396,299.507h-3.411v0.69 M1129.492,299.507h-2.729v0.69 M1134.275,299.507h-3.417v0.69
	 M1138.368,299.507h-3.414v0.69 M1142.463,299.507h-2.727v0.69 M1147.243,299.507h-3.411v0.69 M1151.341,299.507h-2.732v0.69
	 M1156.119,299.507h-3.417v0.69 M1160.215,299.507h-3.41v0.69 M1164.309,299.507h-2.728v0.69 M1169.086,299.507h-3.409v0.69
	 M1173.187,299.507h-3.416v0.69 M1177.966,299.507h-3.417v0.69 M1182.061,299.507h-3.412v0.69 M1186.154,299.507h-2.727v0.69
	 M1190.938,299.507h-3.416v0.69 M1195.031,299.507h-3.416v0.69 M1199.126,299.507h-2.727v0.69 M1203.906,299.507h-3.412v0.69
	 M1208.004,299.507h-3.414v0.69 M1212.783,299.507h-3.418v0.69 M1216.878,299.507h-3.411v0.69 M1220.971,299.507h-2.727v0.69
	 M1225.747,299.507h-3.408v0.69 M1229.849,299.507h-3.415v0.69 M1233.942,299.507h-2.726v0.69 M1238.723,299.507h-3.409v0.69
	 M1242.817,299.507h-3.411v0.69 M1247.601,299.507h-3.416v0.69 M1251.693,299.507h-3.409v0.69 M1255.79,299.507h-2.729v0.69
	 M1260.566,299.507h-3.411v0.69 M1264.667,299.507h-3.416v0.69 M1268.763,299.507h-2.732v0.69 M1273.54,299.507h-3.411v0.69
	 M1277.634,299.507h-3.408v0.69 M1282.417,299.507h-3.415v0.69 M1286.512,299.507h-3.416v0.69 M1290.605,299.507h-2.728v0.69
	 M1295.386,299.507h-3.412v0.69 M1299.486,299.507h-3.416v0.69 M1303.58,299.507h-2.733v0.69 M1308.358,299.507h-3.411v0.69
	 M1312.451,299.507h-3.41v0.69 M1317.23,299.507h-3.409v0.69 M1321.329,299.507h-3.417v0.69 M1325.426,299.507h-2.735v0.69
	 M1330.203,299.507h-3.41v0.69 M1334.297,299.507h-3.41v0.69 M1338.397,299.507h-2.732v0.69 M1343.176,299.507h-3.416v0.69
	 M1347.27,299.507h-3.409v0.69 M1352.048,299.507h-3.412v0.69 M1356.146,299.507h-3.414v0.69 M1360.243,299.507h-2.734v0.69
	 M1365.02,299.507h-3.411v0.69 M1369.115,299.507h-3.408v0.69 M1373.215,299.507h-2.734v0.69 M1377.992,299.507h-3.414v0.69
	 M1382.089,299.507h-2.734v0.69 M1386.866,299.507h-3.411v0.69 M1390.96,299.507h-3.413v0.69 M1395.06,299.507h-2.732v0.69
	 M1399.838,299.507h-3.416v0.69 M1403.932,299.507h-3.409v0.69 M1408.709,299.507h-3.408v0.69 M1412.81,299.507h-3.417v0.69
	 M1416.906,299.507h-2.734v0.69 M1421.683,299.507h-3.41v0.69 M1425.777,299.507h-3.41v0.69 M1429.877,299.507h-2.732v0.69
	 M1434.656,299.507h-3.417v0.69 M1438.749,299.507h-3.407v0.69 M1443.528,299.507h-3.411v0.69 M1447.623,299.507h-3.41v0.69
	 M1451.724,299.507h-2.734v0.69 M1456.5,299.507h-3.41v0.69 M1460.596,299.507h-3.411v0.69 M1464.691,299.507h-2.729v0.69
	 M1469.473,299.507h-3.416v0.69 M1473.568,299.507h-3.412v0.69 M1478.348,299.507h-3.411v0.69 M1482.441,299.507h-3.412v0.69
	 M1486.541,299.507h-2.73v0.69 M1491.318,299.507h-3.417v0.69 M1495.411,299.507h-3.409v0.69 M1499.508,299.507h-2.729v0.69
	 M1504.291,299.507h-3.418v0.69 M1508.387,299.507h-3.418v0.69 M1513.165,299.507h-3.413v0.69 M1517.258,299.507h-3.41v0.69
	 M1521.358,299.507h-2.732v0.69 M1526.137,299.507h-3.416v0.69 M1530.229,299.507h-3.409v0.69 M1534.326,299.507h-2.729v0.69
	 M1539.104,299.507h-3.413v0.69 M1543.203,299.507h-3.416v0.69 M1547.981,299.507h-3.417v0.69 M1552.076,299.507h-3.412v0.69
	 M1556.172,299.507h-2.729v0.69 M1560.953,299.507h-3.417v0.69 M1565.049,299.507h-3.416v0.69 M1569.143,299.507h-2.727v0.69
	 M1573.92,299.507h-3.409v0.69 M1578.021,299.507h-3.415v0.69 M1582.799,299.507h-3.416v0.69 M1586.893,299.507h-3.408v0.69
	 M1590.988,299.507h-2.729v0.69 M1595.769,299.507h-3.413v0.69 M1599.867,299.507h-3.417v0.69 M1603.961,299.507h-2.734v0.69
	 M1608.739,299.507h-3.409v0.69 M1612.832,299.507h-2.727v0.69 M1617.616,299.507h-3.417v0.69 M1621.711,299.507h-3.416v0.69
	 M1625.807,299.507h-2.727v0.69 M1630.584,299.507h-3.411v0.69 M1634.001,299.507h-2.733v0.69 M1098.091,299.507v0.69
	 M1634.001,299.507v0.69 M314.363,292.686v-19.118v0.685 M314.363,324.77v-19.117v0.689 M324.606,474.28v3.408 M324.606,470.18
	v4.098 M324.606,466.085v3.416 M324.606,461.306v4.095 M324.606,457.213v4.093 M324.606,452.434v4.095 M324.606,448.334v4.1
	 M324.606,444.239v3.418 M324.606,439.462v4.095 M324.606,435.366v4.096 M324.606,431.268v3.416 M324.606,426.491v4.098
	 M324.606,422.396v4.093 M324.606,417.617v4.094 M324.606,413.522v4.094 M324.606,409.421v3.413 M324.606,404.646v4.1
	 M324.606,400.549v4.094 M324.606,396.456v3.409 M324.606,391.678v4.09 M324.606,387.577v4.101 M324.606,382.8v4.094
	 M324.606,378.697v4.103 M324.606,374.61v3.411 M324.606,369.828v4.094 M324.606,365.731v4.095 M324.606,361.631v3.419
	 M324.606,356.854v4.1 M324.606,352.759v4.095 M324.606,347.982v4.093 M324.606,343.888v4.095 M324.606,339.788v3.416
	 M324.606,335.009v4.1 M324.606,330.915v4.094 M324.606,326.819v3.412 M324.606,322.041v4.094 M324.606,317.941v4.1
	 M324.606,313.164v4.099 M324.606,309.069v4.095 M324.606,305.652v2.733 M324.606,477.013v0.676 M324.606,305.652v0.689
	 M324.606,292.001v1.362 M324.606,287.218v4.102 M324.606,283.129v4.089 M324.606,278.346v4.094 M324.606,274.252v4.094
	 M324.606,270.153v3.414 M324.606,265.375v4.1 M324.606,261.279v4.094 M324.606,257.185v3.411 M324.606,252.405v4.096
	 M324.606,248.307v3.417 M324.606,243.528v4.101 M324.606,239.435v4.093 M324.606,235.339v3.411 M324.606,230.562v4.095
	 M324.606,226.461v4.1 M324.606,222.366v3.418 M324.606,217.589v4.093 M324.606,213.494v3.411 M324.606,208.716v4.095
	 M324.606,204.616v4.101 M324.606,200.522v3.416 M324.606,195.744v4.095 M324.606,191.65v4.094 M324.606,186.872v4.088
	 M324.606,182.771v4.1 M324.606,178.675v3.412 M324.606,173.894v4.099 M324.606,169.804v4.09 M324.606,165.704v3.411
	 M324.606,160.926v4.095 M324.606,156.825v4.1 M324.606,152.047v4.102 M324.606,147.953v4.094 M324.606,143.859v3.411
	 M324.606,139.081v4.093 M324.606,134.981v4.101 M324.606,130.887v3.416 M324.606,126.109v4.093 M324.606,122.014v4.095
	 M324.606,117.235v4.096 M324.606,113.136v4.099 M324.606,109.042v3.416 M324.606,104.263v4.094 M324.606,100.17v4.093
	 M324.606,96.069v3.411 M324.606,91.291v4.099 M324.606,87.196v4.095 M324.606,292.686v0.679 M324.606,87.196v0.685
	 M331.429,462.673v6.828 M331.429,454.479v6.829 M331.429,446.29v6.822 M331.429,438.096v7.511 M331.429,429.9v7.513
	 M331.429,422.396v6.827 M331.429,414.201v6.826 M331.429,406.011v6.823 M331.429,397.816v7.511 M331.429,389.621v7.512
	 M331.429,382.117v6.826 M331.429,373.922v6.829 M331.429,365.731v6.823 M331.429,357.543v7.505 M331.429,349.35v7.505
	 M331.429,341.837v6.828 M331.429,333.644v6.832 M331.429,325.453v6.828 M331.429,317.263v7.507 M331.429,309.069v7.506
	 M331.429,305.652v2.733 M331.429,470.18v0.689 M331.429,305.652v0.689 M331.429,285.176v6.827 M331.429,276.985v6.822
	 M331.429,268.789v7.507 M331.429,260.596v7.51 M331.429,253.083v6.833 M331.429,244.896v6.828 M331.429,236.705v6.823
	 M331.429,228.512v7.504 M331.429,220.318v7.51 M331.429,212.811v6.829 M331.429,204.616v6.829 M331.429,196.428v6.822
	 M331.429,188.231v7.511 M331.429,180.038v7.51 M331.429,172.532v6.829 M331.429,164.338v6.829 M331.429,156.148v6.822
	 M331.429,147.953v7.512 M331.429,139.76v7.51 M331.429,131.57v7.512 M331.429,124.059v6.829 M331.429,115.87v6.822
	 M331.429,107.674v6.827 M331.429,99.48v7.51 M331.429,94.023v4.778 M331.429,292.686v0.679 M331.429,94.023v0.68 M521.218,292.001
	v1.362 M521.218,287.218v4.102 M521.218,283.129v4.089 M521.218,278.346v4.094 M521.218,274.252v4.094 M521.218,270.153v3.414
	 M521.218,265.375v4.1 M521.218,261.279v4.094 M521.218,257.185v3.411 M521.218,252.405v4.096 M521.218,248.307v3.417
	 M521.218,243.528v4.101 M521.218,239.435v4.093 M521.218,235.339v3.411 M521.218,230.562v4.095 M521.218,226.461v4.1
	 M521.218,222.366v3.418 M521.218,217.589v4.093 M521.218,213.494v3.411 M521.218,208.716v4.095 M521.218,204.616v4.101
	 M521.218,200.522v3.416 M521.218,195.744v4.095 M521.218,191.65v4.094 M521.218,186.872v4.088 M521.218,182.771v4.1
	 M521.218,178.675v3.412 M521.218,173.894v4.099 M521.218,169.804v4.09 M521.218,165.704v3.411 M521.218,160.926v4.095
	 M521.218,156.825v4.1 M521.218,152.047v4.102 M521.218,147.953v4.094 M521.218,143.859v3.411 M521.218,139.081v4.093
	 M521.218,134.981v4.101 M521.218,130.887v3.416 M521.218,126.109v4.093 M521.218,122.014v4.095 M521.218,117.235v4.096
	 M521.218,113.136v4.099 M521.218,109.042v3.416 M521.218,104.263v4.094 M521.218,100.17v4.093 M521.218,96.069v3.411
	 M521.218,94.023v1.367 M521.218,292.686v0.679 M521.218,94.023v0.68 M528.047,42.14v-1.367v0.683 M528.047,46.918v-3.417v0.688
	 M528.047,51.012v-3.413v0.68 M528.047,55.79v-3.411v0.683 M528.047,59.89v-3.417v0.685 M528.047,63.985v-2.728v0.677
	 M528.047,68.762v-3.417v0.689 M528.047,72.856v-3.412v0.684 M528.047,76.958v-2.734v0.684 M528.047,81.734v-3.411v0.679
	 M528.047,85.831v-3.417v0.688 M528.047,90.607v-3.412v0.685 M528.047,94.703v-3.412v0.684 M528.047,98.801v-2.732v0.683
	 M528.047,103.58v-3.411v0.678 M528.047,107.674v-3.411v0.684 M528.047,111.769v-2.726v0.684 M528.047,116.547v-3.412v0.684
	 M528.047,120.647v-3.413v0.678 M528.047,125.425v-3.41v0.679 M528.047,129.524v-3.416v0.683 M528.047,133.615v-2.728v0.683
	 M528.047,138.397v-3.417v0.69 M528.047,142.492v-3.41v0.678 M528.047,146.593v-2.734v0.684 M528.047,151.37v-3.417v0.684
	 M528.047,155.465v-3.418v0.69 M528.047,160.243v-3.418v0.688 M528.047,164.338v-3.412v0.684 M528.047,168.437v-2.733v0.682
	 M528.047,173.215v-3.411v0.679 M528.047,177.31v-3.417v0.688 M528.047,181.403v-2.728v0.686 M528.047,186.183v-3.412v0.684
	 M528.047,190.283v-3.411v0.677 M528.047,195.061v-3.411v0.677 M528.047,199.156v-3.412v0.684 M528.047,203.25v-2.728v0.682
	 M528.047,208.027v-3.411v0.684 M528.047,212.126v-3.41v0.678 M528.047,216.222v-2.727v0.679 M528.047,221.006v-3.417v0.684
	 M528.047,225.095v-2.729v0.685 M528.047,229.879v-3.417v0.684 M528.047,233.974v-3.412v0.677 M528.047,238.073v-2.733v0.676
	 M528.047,242.851v-3.416v0.684 M528.047,246.944v-3.416v0.684 M528.047,251.041v-2.734v0.689 M528.047,255.817v-3.412v0.68
	 M528.047,259.918v-2.732v0.684 M528.047,264.696v-3.415v0.683 M528.047,268.789v-3.416v0.689 M528.047,272.885v-2.733v0.688
	 M528.047,277.663v-3.411v0.684 M528.047,281.763v-3.417v0.684 M528.047,286.54v-3.411v0.677 M528.047,290.636v-3.416v0.688
	 M528.047,292.686v-0.685V292.686 M528.047,40.773v0.683 M528.047,292.686v0.679 M528.047,307.702v-2.05v0.689 M528.047,312.479
	v-3.41v0.684 M528.047,316.575v-3.411v0.685 M528.047,321.354v-3.411v0.686 M528.047,325.453v-3.412v0.678 M528.047,329.548v-2.729
	v0.678 M528.047,334.332v-3.417v0.683 M528.047,338.421v-3.411v0.685 M528.047,342.52v-2.732v0.688 M528.047,347.298v-3.41v0.678
	 M528.047,351.398v-3.416v0.683 M528.047,356.176v-3.417v0.684 M528.047,360.271v-3.417v0.688 M528.047,364.367v-2.736v0.689
	 M528.047,369.144v-3.411v0.684 M528.047,373.243v-3.417v0.684 M528.047,377.339v-2.729v0.678 M528.047,382.117v-3.42v0.69
	 M528.047,386.209V382.8v0.685 M528.047,390.986v-3.409v0.685 M528.047,395.088v-3.408v0.674 M528.047,399.184v-2.728v0.677
	 M528.047,403.961v-3.41v0.685 M528.047,408.057v-3.411v0.682 M528.047,412.155v-2.734v0.685 M528.047,416.935v-3.412v0.679
	 M528.047,421.027v-3.41v0.682 M528.047,425.812v-3.415v0.681 M528.047,429.9v-3.409v0.682 M528.047,434.002v-2.734v0.683
	 M528.047,438.777v-3.411v0.68 M528.047,442.878v-3.416v0.684 M528.047,446.968v-2.729v0.686 M528.047,451.751v-3.417v0.684
	 M528.047,455.847v-3.41v0.676 M528.047,460.624v-3.411v0.679 M528.047,464.726v-3.417v0.682 M528.047,468.818v-2.733v0.682
	 M528.047,473.599v-3.417v0.688 M528.047,477.688v-3.408v0.679 M528.047,481.789v-2.732v0.684 M528.047,486.568v-3.415v0.686
	 M528.047,490.664v-2.729v0.681 M528.047,495.445v-3.419v0.69 M528.047,499.537v-3.414v0.685 M528.047,503.64v-2.735v0.683
	 M528.047,508.415v-3.412v0.678 M528.047,512.507v-3.415v0.69 M528.047,517.285v-3.408v0.685 M528.047,521.379v-3.408v0.682
	 M528.047,525.483v-2.733v0.682 M528.047,530.26v-3.413v0.68 M528.047,534.354v-3.411v0.682 M528.047,538.447v-2.726v0.682
	 M528.047,543.227v-3.41v0.682 M528.047,547.326v-3.409v0.676 M528.047,552.103v-3.409v0.676 M528.047,556.206v-3.415v0.682
	 M528.047,557.563v0.687 M528.047,305.652v0.689 M528.047,557.563v0.687 M521.218,466.085v3.416 M521.218,461.306v4.095
	 M521.218,457.213v4.093 M521.218,452.434v4.095 M521.218,448.334v4.1 M521.218,444.239v3.418 M521.218,439.462v4.095
	 M521.218,435.366v4.096 M521.218,431.268v3.416 M521.218,426.491v4.098 M521.218,422.396v4.093 M521.218,417.617v4.094
	 M521.218,413.522v4.094 M521.218,409.421v3.413 M521.218,404.646v4.1 M521.218,400.549v4.094 M521.218,396.456v3.409
	 M521.218,391.678v4.09 M521.218,387.577v4.101 M521.218,382.8v4.094 M521.218,378.697v4.103 M521.218,374.61v3.411
	 M521.218,369.828v4.094 M521.218,365.731v4.095 M521.218,361.631v3.419 M521.218,356.854v4.1 M521.218,352.759v4.095
	 M521.218,347.982v4.093 M521.218,343.888v4.095 M521.218,339.788v3.416 M521.218,335.009v4.1 M521.218,330.915v4.094
	 M521.218,326.819v3.412 M521.218,322.041v4.094 M521.218,317.941v4.1 M521.218,313.164v4.099 M521.218,309.069v4.095
	 M521.218,305.652v2.733 M521.218,470.18v0.689 M521.218,305.652v0.689 M521.218,561.661v4.099 M521.218,557.563v3.419
	 M521.218,552.788v4.095 M521.218,548.693v4.095 M521.218,543.917v4.092 M521.218,539.815v4.099 M521.218,535.722v3.417
	 M521.218,530.939v4.097 M521.218,526.847v4.093 M521.218,522.75v3.408 M521.218,517.971v4.097 M521.218,513.877v4.094
	 M521.218,509.092v4.1 M521.218,505.003v4.091 M521.218,500.901v3.412 M521.218,496.123v4.094 M521.218,492.023v4.099
	 M521.218,487.935v3.41 M521.218,483.153v4.094 M521.218,479.057v3.411 M521.218,477.013v1.361 M521.218,565.079v0.681
	 M521.218,477.013v0.676 M521.218,82.413v4.099 M521.218,78.323v4.09 M521.218,74.224v3.412 M521.218,69.445v4.094 M521.218,65.346
	v4.1 M521.218,61.257v3.411 M521.218,56.473v4.095 M521.218,52.379v4.094 M521.218,47.599v4.096 M521.218,43.5v4.099
	 M521.218,40.773v2.05 M521.218,87.196v0.685 M521.218,40.773v0.683 M1444.211,40.773h2.732v0.683 M1440.117,40.773h3.411v0.683
	 M1435.34,40.773h3.408v0.683 M1431.239,40.773h3.417v0.683 M1427.145,40.773h2.732v0.683 M1422.367,40.773h3.41v0.683
	 M1418.272,40.773h3.41v0.683 M1414.171,40.773h2.733v0.683 M1409.393,40.773h3.417v0.683 M1405.299,40.773h3.408v0.683
	 M1400.522,40.773h3.409v0.683 M1396.422,40.773h3.416v0.683 M1392.327,40.773h2.732v0.683 M1387.547,40.773h3.413v0.683
	 M1383.453,40.773h3.412v0.683 M1379.354,40.773h2.734v0.683 M1374.576,40.773h3.415v0.683 M1370.48,40.773h2.734v0.683
	 M1365.705,40.773h3.408v0.683 M1361.608,40.773h3.411v0.683 M1357.509,40.773h2.734v0.683 M1352.731,40.773h3.414v0.683
	 M1348.636,40.773h3.412v0.683 M1343.859,40.773h3.409v0.683 M1339.76,40.773h3.416v0.683 M1335.662,40.773h2.733v0.683
	 M1330.887,40.773h3.41v0.683 M1326.793,40.773h3.41v0.683 M1322.69,40.773h2.735v0.683 M1317.912,40.773h3.417v0.683
	 M1313.819,40.773h3.409v0.683 M1309.041,40.773h3.41v0.683 M1304.945,40.773h3.412v0.683 M1300.847,40.773h2.733v0.683
	 M1296.067,40.773h3.417v0.683 M1291.974,40.773h3.412v0.683 M1287.878,40.773h2.728v0.683 M1283.096,40.773h3.416v0.683
	 M1279.002,40.773h3.415v0.683 M1274.224,40.773h3.408v0.683 M1270.129,40.773h3.411v0.683 M1266.028,40.773h2.732v0.683
	 M1261.251,40.773h3.416v0.683 M1257.155,40.773h3.411v0.683 M1253.061,40.773h2.729v0.683 M1248.284,40.773h3.409v0.683
	 M1244.184,40.773h3.416v0.683 M1239.406,40.773h3.411v0.683 M1235.312,40.773h3.409v0.683 M1231.217,40.773h2.726v0.683
	 M1226.434,40.773h3.415v0.683 M1222.339,40.773h3.41v0.683 M1218.244,40.773h2.727v0.683 M1213.465,40.773h3.411v0.683
	 M1209.365,40.773h3.418v0.683 M1204.588,40.773h3.415v0.683 M1200.494,40.773h3.412v0.683 M1196.399,40.773h2.725v0.683
	 M1191.615,40.773h3.416v0.683 M1187.521,40.773h3.416v0.683 M1183.427,40.773h2.725v0.683 M1178.648,40.773h3.412v0.683
	 M1174.547,40.773h3.417v0.683 M1169.771,40.773h3.416v0.683 M1165.676,40.773h3.409v0.683 M1161.581,40.773h2.728v0.683
	 M1156.805,40.773h3.408v0.683 M1152.702,40.773h3.417v0.683 M1148.608,40.773h2.732v0.683 M1143.83,40.773h3.411v0.683
	 M1139.736,40.773h2.727v0.683 M1134.952,40.773h3.414v0.683 M1130.858,40.773h3.417v0.683 M1126.763,40.773h2.728v0.683
	 M1121.984,40.773h3.411v0.683 M1117.884,40.773h3.42v0.683 M1113.79,40.773h2.733v0.683 M1109.013,40.773h3.411v0.683
	 M1104.919,40.773h2.725v0.683 M1100.142,40.773h3.41v0.683 M1096.042,40.773h3.414v0.683 M1091.944,40.773h2.736v0.683
	 M1087.168,40.773h3.411v0.683 M1083.073,40.773h3.41v0.683 M1078.289,40.773h3.417v0.683 M1074.195,40.773h3.414v0.683
	 M1070.102,40.773h2.728v0.683 M1065.322,40.773h3.41v0.683 M1061.223,40.773h3.416v0.683 M1057.129,40.773h2.731v0.683
	 M1052.351,40.773h3.411v0.683 M1048.256,40.773h3.411v0.683 M1043.479,40.773h3.411v0.683 M1039.379,40.773h3.416v0.683
	 M1035.282,40.773h2.727v0.683 M1030.504,40.773h3.412v0.683 M1026.411,40.773h3.409v0.683 M1022.311,40.773h2.732v0.683
	 M1017.533,40.773h3.41v0.683 M1013.439,40.773h3.409v0.683 M1008.66,40.773h3.409v0.683 M1004.56,40.773h3.416v0.683
	 M1000.465,40.773h2.729v0.683 M995.688,40.773h3.41v0.683 M991.587,40.773h3.417v0.683 M987.491,40.773h2.735v0.683
	 M982.715,40.773h3.411v0.683 M978.622,40.773h3.41v0.683 M973.842,40.773h3.41v0.683 M969.743,40.773h3.416v0.683 M965.647,40.773
	h2.727v0.683 M960.869,40.773h3.412v0.683 M956.774,40.773h3.409v0.683 M952.674,40.773h2.735v0.683 M947.896,40.773h3.413v0.683
	 M943.802,40.773h3.411v0.683 M939.023,40.773h3.412v0.683 M934.925,40.773h3.414v0.683 M930.831,40.773h2.731v0.683
	 M926.052,40.773h3.408v0.683 M921.959,40.773h3.411v0.683 M917.857,40.773h2.733v0.683 M913.08,40.773h3.416v0.683 M908.984,40.773
	h2.734v0.683 M904.206,40.773h3.412v0.683 M900.105,40.773h3.418v0.683 M896.012,40.773h2.732v0.683 M891.234,40.773h3.418v0.683
	 M887.141,40.773h3.408v0.683 M883.039,40.773h2.733v0.683 M878.262,40.773h3.417v0.683 M874.168,40.773h2.732v0.683
	 M869.389,40.773h3.412v0.683 M865.293,40.773h3.411v0.683 M861.194,40.773h2.733v0.683 M856.417,40.773h3.415v0.683
	 M852.322,40.773h3.41v0.683 M847.545,40.773h3.41v0.683 M843.45,40.773h3.408v0.683 M839.349,40.773h2.732v0.683 M834.572,40.773
	h3.409v0.683 M830.478,40.773h3.41v0.683 M826.381,40.773h2.729v0.683 M821.599,40.773h3.418v0.683 M817.503,40.773h3.412v0.683
	 M812.726,40.773h3.412v0.683 M808.632,40.773h3.41v0.683 M804.532,40.773h2.731v0.683 M799.755,40.773h3.415v0.683 M795.659,40.773
	h3.411v0.683 M791.565,40.773h2.729v0.683 M786.779,40.773h3.417v0.683 M782.688,40.773h3.415v0.683 M777.91,40.773h3.409v0.683
	 M773.814,40.773h3.41v0.683 M769.715,40.773h2.732v0.683 M764.938,40.773h3.414v0.683 M760.841,40.773h3.411v0.683 M756.748,40.773
	h2.727v0.683 M751.969,40.773h3.411v0.683 M747.869,40.773h3.416v0.683 M743.092,40.773h3.41v0.683 M738.997,40.773h3.411v0.683
	 M734.9,40.773h2.729v0.683 M730.118,40.773h3.418v0.683 M726.023,40.773h3.409v0.683 M721.93,40.773h2.729v0.683 M717.152,40.773
	h3.408v0.683 M713.052,40.773h3.417v0.683 M708.273,40.773h3.418v0.683 M704.178,40.773h3.413v0.683 M700.083,40.773h2.729v0.683
	 M695.3,40.773h3.417v0.683 M691.205,40.773h3.417v0.683 M687.112,40.773h2.731v0.683 M682.335,40.773h3.41v0.683 M678.235,40.773
	h2.732v0.683 M673.456,40.773h3.416v0.683 M669.36,40.773h3.419v0.683 M665.267,40.773h2.729v0.683 M660.489,40.773h3.41v0.683
	 M656.389,40.773h3.416v0.683 M652.294,40.773h2.734v0.683 M647.516,40.773h3.41v0.683 M643.42,40.773h2.729v0.683 M638.645,40.773
	h3.409v0.683 M634.544,40.773h3.415v0.683 M630.449,40.773h2.727v0.683 M625.67,40.773h3.41v0.683 M621.577,40.773h3.411v0.683
	 M616.793,40.773h3.415v0.683 M612.696,40.773h3.414v0.683 M608.604,40.773h2.729v0.683 M603.826,40.773h3.41v0.683 M599.726,40.773
	h3.417v0.683 M595.633,40.773h2.733v0.683 M590.854,40.773h3.411v0.683 M586.76,40.773h3.411v0.683 M581.975,40.773h3.417v0.683
	 M577.881,40.773h3.416v0.683 M573.785,40.773h2.729v0.683 M569.007,40.773h3.413v0.683 M564.908,40.773h3.414v0.683
	 M560.812,40.773h2.734v0.683 M556.035,40.773h3.412v0.683 M551.941,40.773h3.41v0.683 M547.164,40.773h3.409v0.683 M543.062,40.773
	h3.418v0.683 M538.969,40.773h2.729v0.683 M534.19,40.773h3.412v0.683 M530.095,40.773h3.413v0.683 M528.047,40.773h0.683v0.683
	 M1446.943,40.773v0.683 M528.047,40.773v0.683 M528.729,557.563h-0.683v0.687 M533.508,557.563h-3.413v0.687 M537.603,557.563
	h-3.412v0.687 M541.695,557.563h-2.729v0.687 M546.48,557.563h-3.418v0.687 M550.573,557.563h-3.409v0.687 M555.352,557.563h-3.41
	v0.687 M559.447,557.563h-3.412v0.687 M563.546,557.563h-2.734v0.687 M568.322,557.563h-3.414v0.687 M572.419,557.563h-3.413v0.687
	 M576.514,557.563h-2.729v0.687 M581.299,557.563h-3.417v0.687 M585.393,557.563h-3.416v0.687 M590.171,557.563h-3.411v0.687
	 M594.265,557.563h-3.411v0.687 M598.365,557.563h-2.733v0.687 M603.143,557.563h-3.417v0.687 M607.236,557.563h-3.41v0.687
	 M611.332,557.563h-2.729v0.687 M616.11,557.563h-3.414v0.687 M620.21,557.563h-3.415v0.687 M624.988,557.563h-3.411v0.687
	 M629.082,557.563h-3.41v0.687 M633.176,557.563h-2.727v0.687 M637.959,557.563h-3.415v0.687 M642.056,557.563h-3.409v0.687
	 M646.148,557.563h-2.729v0.687 M650.928,557.563h-3.41v0.687 M655.028,557.563h-2.734v0.687 M659.806,557.563h-3.415v0.687
	 M663.899,557.563h-3.41v0.687 M667.995,557.563h-2.729v0.687 M672.779,557.563h-3.419v0.687 M676.872,557.563h-3.416v0.687
	 M680.968,557.563h-2.732v0.687 M685.745,557.563h-3.41v0.687 M689.844,557.563h-2.729v0.687 M694.622,557.563h-3.417v0.687
	 M698.719,557.563h-3.418v0.687 M702.812,557.563h-2.729v0.687 M707.591,557.563h-3.413v0.687 M711.691,557.563h-3.418v0.687
	 M716.469,557.563h-3.417v0.687 M720.562,557.563h-3.408v0.687 M724.658,557.563h-2.729v0.687 M729.435,557.563h-3.409v0.687
	 M733.536,557.563h-3.418v0.687 M737.629,557.563H734.9v0.687 M742.408,557.563h-3.411v0.687 M746.502,557.563h-3.41v0.687
	 M751.285,557.563h-3.416v0.687 M755.38,557.563h-3.411v0.687 M759.476,557.563h-2.727v0.687 M764.252,557.563h-3.411v0.687
	 M768.354,557.563h-3.415v0.687 M772.447,557.563h-2.732v0.687 M777.225,557.563h-3.41v0.687 M781.319,557.563h-3.409v0.687
	 M786.103,557.563h-3.415v0.687 M790.198,557.563h-3.419v0.687 M794.294,557.563h-2.729v0.687 M799.071,557.563h-3.411v0.687
	 M803.17,557.563h-3.415v0.687 M807.264,557.563h-2.731v0.687 M812.042,557.563h-3.41v0.687 M816.138,557.563h-3.412v0.687
	 M820.916,557.563h-3.41v0.687 M825.017,557.563h-3.418v0.687 M829.11,557.563h-2.729v0.687 M833.888,557.563h-3.41v0.687
	 M837.982,557.563h-3.41v0.687 M842.081,557.563h-2.732v0.687 M846.858,557.563h-3.408v0.687 M850.956,557.563h-3.409v0.687
	 M855.732,557.563h-3.41v0.687 M859.833,557.563h-3.415v0.687 M863.928,557.563h-2.733v0.687 M868.705,557.563h-3.41v0.687
	 M872.801,557.563h-3.412v0.687 M876.9,557.563h-2.732v0.687 M881.679,557.563h-3.417v0.687 M885.772,557.563h-2.733v0.687
	 M890.55,557.563h-3.407v0.687 M894.652,557.563h-3.418v0.687 M898.746,557.563h-2.732v0.687 M903.523,557.563h-3.418v0.687
	 M907.621,557.563h-3.413v0.687 M911.719,557.563h-2.734v0.687 M916.496,557.563h-3.416v0.687 M920.591,557.563h-2.733v0.687
	 M925.37,557.563h-3.411v0.687 M929.461,557.563h-3.407v0.687 M933.562,557.563h-2.731v0.687 M938.341,557.563h-3.415v0.687
	 M942.436,557.563h-3.412v0.687 M947.213,557.563h-3.411v0.687 M951.31,557.563h-3.413v0.687 M955.409,557.563h-2.735v0.687
	 M960.185,557.563h-3.408v0.687 M964.281,557.563h-3.412v0.687 M968.375,557.563h-2.727v0.687 M973.159,557.563h-3.416v0.687
	 M977.255,557.563h-3.411v0.687 M982.032,557.563h-3.41v0.687 M986.126,557.563h-3.411v0.687 M990.227,557.563h-2.735v0.687
	 M995.004,557.563h-3.417v0.687 M997.731,557.563h-2.043v0.687 M528.047,557.563v0.687 M997.731,557.563v0.687 M1650.385,9.367
	H510.979v0.689 M510.979,62.618H314.363v0.683 M324.606,87.196v0.685 M328.701,87.196h-3.411v0.685 M332.796,87.196h-2.728v0.685
	 M337.574,87.196h-3.411v0.685 M341.675,87.196h-3.418v0.685 M345.768,87.196h-2.734v0.685 M350.546,87.196h-3.412v0.685
	 M354.642,87.196h-3.411v0.685 M359.424,87.196h-3.417v0.685 M363.519,87.196h-3.416v0.685 M367.613,87.196h-2.728v0.685
	 M372.391,87.196h-3.411v0.685 M376.492,87.196h-3.416v0.685 M380.586,87.196h-2.732v0.685 M385.364,87.196h-3.411v0.685
	 M389.459,87.196h-3.411v0.685 M394.236,87.196h-3.41v0.685 M398.336,87.196h-3.417v0.685 M402.432,87.196h-2.734v0.685
	 M407.208,87.196h-3.412v0.685 M411.303,87.196h-3.41v0.685 M415.406,87.196h-2.734v0.685 M420.182,87.196h-3.416v0.685
	 M424.276,87.196h-2.728v0.685 M429.055,87.196h-3.41v0.685 M433.154,87.196h-3.418v0.685 M437.247,87.196h-2.732v0.685
	 M442.027,87.196h-3.412v0.685 M446.122,87.196h-3.412v0.685 M450.906,87.196h-3.419v0.685 M455,87.196h-3.416v0.685
	 M459.096,87.196h-2.729v0.685 M463.871,87.196h-3.411v0.685 M467.973,87.196h-3.417v0.685 M472.066,87.196h-2.733v0.685
	 M476.845,87.196h-3.412v0.685 M480.938,87.196h-3.41v0.685 M485.719,87.196h-3.412v0.685 M489.817,87.196H486.4v0.685
	 M493.912,87.196h-2.734v0.685 M498.688,87.196h-3.41v0.685 M502.785,87.196h-3.413v0.685 M506.885,87.196h-2.733v0.685
	 M511.661,87.196h-3.417v0.685 M515.756,87.196h-3.412v0.685 M520.534,87.196h-3.411v0.685 M324.606,87.196v0.685 M521.218,87.196
	v0.685 M332.796,94.023h-1.367v0.68 M337.574,94.023h-3.411v0.68 M341.675,94.023h-3.418v0.68 M345.768,94.023h-2.734v0.68
	 M350.546,94.023h-3.412v0.68 M354.642,94.023h-3.411v0.68 M359.424,94.023h-3.417v0.68 M363.519,94.023h-3.416v0.68
	 M367.613,94.023h-2.728v0.68 M372.391,94.023h-3.411v0.68 M376.492,94.023h-3.416v0.68 M380.586,94.023h-2.732v0.68
	 M385.364,94.023h-3.411v0.68 M389.459,94.023h-3.411v0.68 M394.236,94.023h-3.41v0.68 M398.336,94.023h-3.417v0.68 M402.432,94.023
	h-2.734v0.68 M407.208,94.023h-3.412v0.68 M411.303,94.023h-3.41v0.68 M415.406,94.023h-2.734v0.68 M420.182,94.023h-3.416v0.68
	 M424.276,94.023h-2.728v0.68 M429.055,94.023h-3.41v0.68 M433.154,94.023h-3.418v0.68 M437.247,94.023h-2.732v0.68 M442.027,94.023
	h-3.412v0.68 M446.122,94.023h-3.412v0.68 M450.906,94.023h-3.419v0.68 M455,94.023h-3.416v0.68 M459.096,94.023h-2.729v0.68
	 M463.871,94.023h-3.411v0.68 M467.973,94.023h-3.417v0.68 M472.066,94.023h-2.733v0.68 M476.845,94.023h-3.412v0.68
	 M480.938,94.023h-3.41v0.68 M485.719,94.023h-3.412v0.68 M489.817,94.023H486.4v0.68 M493.912,94.023h-2.734v0.68 M498.688,94.023
	h-3.41v0.68 M502.785,94.023h-3.413v0.68 M506.885,94.023h-2.733v0.68 M511.661,94.023h-3.417v0.68 M515.756,94.023h-3.412v0.68
	 M520.534,94.023h-3.411v0.68 M331.429,94.023v0.68 M521.218,94.023v0.68 M-37.221,24.389h148.827v0.684 M111.606,24.389v550.926
	 M111.606,24.389h149.51v0.684 M261.116,574.634h-149.51v0.681 M111.606,574.634H-37.221v0.681 M-11.274,468.134v14.334
	 M-11.274,456.529v10.923 M-11.274,483.153v14.336 M-11.274,498.17v10.922 M18.08,498.17v10.922 M18.08,483.153v14.336
	 M18.759,509.782h-32.084v0.675 M18.759,508.415h-32.084v0.677 M18.759,498.17h-32.084v0.688 M18.759,508.415v2.042 M18.759,496.808
	v2.051 M18.08,468.134v14.334 M18.759,481.789v2.047 M18.759,466.767v2.052 M18.08,456.529v10.923 M-13.325,466.767h32.084v0.686
	 M18.759,455.165v2.048 M18.759,456.529h-32.084v0.684 M-13.325,509.782v-54.617v0.682 M18.759,483.153h-32.084v0.686
	 M18.759,481.789h-32.084v0.679 M-13.325,455.165v55.295 M-11.274,362.999v15.022 M-11.274,351.398v11.6 M-11.274,378.697v14.342
	 M-11.274,393.722v10.924 M18.08,393.722v10.924 M18.08,378.697v14.342 M18.759,405.327h-32.084v0.684 M18.759,403.961h-32.084
	v0.685 M18.759,393.722h-32.084v0.685 M18.759,403.961v2.05 M18.759,392.354v2.053 M18.08,362.999v15.022 M18.759,377.339v2.049
	 M18.759,362.32v1.362 M18.08,351.398v11.6 M-13.325,362.32h32.084v0.678 M18.759,350.709v1.367 M18.759,351.398h-32.084v0.677
	 M-13.325,405.327v-54.618v0.688 M18.759,378.697h-32.084v0.69 M18.759,377.339h-32.084v0.683 M-13.325,350.709v55.302
	 M-11.274,102.213v14.333 M-11.274,90.607v10.93 M-11.274,117.235v14.334 M-11.274,132.252v10.924 M18.08,132.252v10.924
	 M18.08,117.235v14.334 M18.759,143.859h-32.084v0.684 M18.759,142.492h-32.084v0.684 M18.759,132.252h-32.084v0.686
	 M18.759,142.492v2.051 M18.759,130.887v2.05 M18.08,102.213v14.333 M18.759,115.87v2.044 M18.759,100.848v2.05 M18.08,90.607v10.93
	 M-13.325,100.848h32.084v0.688 M18.759,89.247v2.044 M18.759,90.607h-32.084v0.685 M-13.325,143.859V89.247v0.677 M18.759,117.235
	h-32.084v0.678 M18.759,115.87h-32.084v0.677 M-13.325,89.247v55.294 M-11.274,206.666v14.34 M-11.274,195.061v10.923
	 M-11.274,221.683v14.333 M-11.274,236.705v10.924 M18.08,236.705v10.924 M18.08,221.683v14.333 M18.759,248.307h-32.084v0.689
	 M18.759,246.944h-32.084v0.685 M18.759,236.705h-32.084v0.68 M18.759,246.944v2.05 M18.759,235.339v2.046 M18.08,206.666v14.34
	 M18.759,220.318v2.048 M18.759,205.299v2.05 M18.08,195.061v10.923 M-13.325,205.299h32.084v0.684 M18.759,193.694v2.05
	 M18.759,193.694h-56.663v0.683 M18.759,195.061h-32.084v0.683 M-13.325,248.307v-54.612v0.683 M18.759,221.683h-32.084v0.684
	 M18.759,220.318h-32.084v0.688 M-37.904,193.694v-49.835v0.684 M-13.325,193.694v55.3 M218.104,152.047h19.116v0.69
	 M237.222,152.047v20.485 M237.222,171.849h-19.116v0.685 M215.376,152.047v0.69 M240.633,174.583h-27.307v0.678 M213.326,174.583
	v-25.262v0.684 M213.326,149.321h27.307v0.684 M240.633,149.321v25.94 M218.104,173.215v-22.533v0.688 M238.587,150.682v23.212
	 M214.692,150.682h23.895v0.688 M214.692,173.215v-22.533v0.688 M238.587,173.215h-23.895v0.679 M218.104,288.586h19.116v0.688
	 M237.222,288.586v20.485 M237.222,308.386h-19.116v0.684 M215.376,288.586v0.688 M240.633,311.12h-27.307v0.677 M213.326,311.12
	v-25.944v0.683 M213.326,285.176h27.307v0.683 M240.633,285.176v26.621 M218.104,309.753v-22.535v0.688 M238.587,287.218v23.214
	 M214.692,287.218h23.895v0.688 M214.692,309.753v-22.535v0.688 M238.587,309.753h-23.895v0.679 M218.104,427.173h19.116v0.685
	 M237.222,427.173v19.795 M237.222,446.29h-19.116v0.678 M215.376,427.173v0.685 M240.633,449.701h-27.307v0.685 M213.326,449.701
	v-25.944v0.688 M213.326,423.757h27.307v0.688 M240.633,423.757v26.631 M218.104,448.334v-22.522v0.68 M238.587,425.812v23.206
	 M214.692,425.812h23.895v0.68 M214.692,448.334v-22.522v0.68 M238.587,448.334h-23.895v0.684 M261.116,248.307h63.49v0.689
	 M324.606,246.944h-63.49v0.685 M-37.904,143.859h56.663v0.684 M18.759,89.247h-55.98v0.677 M-37.221,248.307h55.98v0.689
	 M18.759,350.709h-55.98v0.689 M-37.904,405.327h56.663v0.684 M18.759,455.165h-56.663v0.682 M-37.221,509.782h55.98v0.675
	 M-37.221,350.709V248.307v0.689 M-13.325,405.327v-54.618v0.688 M-37.904,455.165v-49.838v0.684 M-13.325,509.782v-54.617v0.682
	 M-37.221,574.634v-64.852v0.675 M-37.221,89.247V24.389v0.684 M-13.325,143.859V89.247v0.677 M324.606,330.231h-63.49v0.684
	 M324.606,162.293h-63.49v0.679 M261.116,24.389v550.926 M1446.943,42.14v-1.367v0.683 M1446.943,46.918v-3.417v0.688
	 M1446.943,51.012v-3.413v0.68 M1446.943,55.79v-3.411v0.683 M1446.943,59.89v-3.417v0.685 M1446.943,63.985v-2.728v0.677
	 M1446.943,68.762v-3.417v0.689 M1446.943,72.856v-3.412v0.684 M1446.943,76.274v-2.051v0.684 M1446.943,40.773v0.683
	 M1446.943,76.274v0.684 M521.218,38.045v-3.416v0.684 M521.218,42.14v-2.734v0.684 M521.218,46.918v-3.417v0.688 M521.218,51.012
	v-3.413v0.68 M521.218,55.79v-3.411v0.683 M521.218,59.89v-3.417v0.685 M521.218,63.985v-2.728v0.677 M521.218,68.762v-3.417v0.689
	 M521.218,72.856v-3.412v0.684 M521.218,76.958v-2.734v0.684 M521.218,81.052v-2.728v0.679 M521.218,33.944v0.683 M521.218,81.052
	v0.684 M1634.001,517.971v4.097 M1634.001,522.067v0.68 M1634.001,517.971v0.682 M1640.828,526.847v3.413 M1640.828,522.75v3.408
	 M1640.828,517.971v4.097 M1640.828,529.575v0.685 M1640.828,517.971v0.682 M314.363,501.584h196.617v0.685 M465.923,295.414
	l1.366-1.361v0.679 M465.923,295.414l1.366,1.366v0.684 M489.134,295.414h-23.211v0.683 M867.34,302.24l0.68-0.684v0.684
	 M867.34,302.24l0.68,1.367v0.68 M890.55,302.24h-23.21v0.684 M1552.076,295.414l-1.366-1.361v0.679 M1552.076,295.414l-1.366,0.683
	v0.684 M1528.865,295.414h23.211v0.683 M1314.502,301.559l-0.683-1.361v0.679 M1314.502,301.559l-0.683,1.367v0.683
	 M1291.289,301.559h23.213v0.683 M332.796,470.18h-1.367v0.689 M337.574,470.18h-3.411v0.689 M341.675,470.18h-3.418v0.689
	 M345.768,470.18h-2.734v0.689 M350.546,470.18h-3.412v0.689 M354.642,470.18h-3.411v0.689 M359.424,470.18h-3.417v0.689
	 M363.519,470.18h-3.416v0.689 M367.613,470.18h-2.728v0.689 M372.391,470.18h-3.411v0.689 M376.492,470.18h-3.416v0.689
	 M380.586,470.18h-2.732v0.689 M385.364,470.18h-3.411v0.689 M389.459,470.18h-3.411v0.689 M394.236,470.18h-3.41v0.689
	 M398.336,470.18h-3.417v0.689 M402.432,470.18h-2.734v0.689 M407.208,470.18h-3.412v0.689 M411.303,470.18h-3.41v0.689
	 M415.406,470.18h-2.734v0.689 M420.182,470.18h-3.416v0.689 M424.276,470.18h-2.728v0.689 M429.055,470.18h-3.41v0.689
	 M433.154,470.18h-3.418v0.689 M437.247,470.18h-2.732v0.689 M442.027,470.18h-3.412v0.689 M446.122,470.18h-3.412v0.689
	 M450.906,470.18h-3.419v0.689 M455,470.18h-3.416v0.689 M459.096,470.18h-2.729v0.689 M463.871,470.18h-3.411v0.689
	 M467.973,470.18h-3.417v0.689 M472.066,470.18h-2.733v0.689 M476.845,470.18h-3.412v0.689 M480.938,470.18h-3.41v0.689
	 M485.719,470.18h-3.412v0.689 M489.817,470.18H486.4v0.689 M493.912,470.18h-2.734v0.689 M498.688,470.18h-3.41v0.689
	 M502.785,470.18h-3.413v0.689 M506.885,470.18h-2.733v0.689 M511.661,470.18h-3.417v0.689 M515.756,470.18h-3.412v0.689
	 M520.534,470.18h-3.411v0.689 M331.429,470.18v0.689 M521.218,470.18v0.689 M324.606,477.013v0.676 M328.701,477.013h-3.411v0.676
	 M332.796,477.013h-2.728v0.676 M337.574,477.013h-3.411v0.676 M341.675,477.013h-3.418v0.676 M345.768,477.013h-2.734v0.676
	 M350.546,477.013h-3.412v0.676 M354.642,477.013h-3.411v0.676 M359.424,477.013h-3.417v0.676 M363.519,477.013h-3.416v0.676
	 M367.613,477.013h-2.728v0.676 M372.391,477.013h-3.411v0.676 M376.492,477.013h-3.416v0.676 M380.586,477.013h-2.732v0.676
	 M385.364,477.013h-3.411v0.676 M389.459,477.013h-3.411v0.676 M394.236,477.013h-3.41v0.676 M398.336,477.013h-3.417v0.676
	 M402.432,477.013h-2.734v0.676 M407.208,477.013h-3.412v0.676 M411.303,477.013h-3.41v0.676 M415.406,477.013h-2.734v0.676
	 M420.182,477.013h-3.416v0.676 M424.276,477.013h-2.728v0.676 M429.055,477.013h-3.41v0.676 M433.154,477.013h-3.418v0.676
	 M437.247,477.013h-2.732v0.676 M442.027,477.013h-3.412v0.676 M446.122,477.013h-3.412v0.676 M450.906,477.013h-3.419v0.676
	 M455,477.013h-3.416v0.676 M459.096,477.013h-2.729v0.676 M463.871,477.013h-3.411v0.676 M467.973,477.013h-3.417v0.676
	 M472.066,477.013h-2.733v0.676 M476.845,477.013h-3.412v0.676 M480.938,477.013h-3.41v0.676 M485.719,477.013h-3.412v0.676
	 M489.817,477.013H486.4v0.676 M493.912,477.013h-2.734v0.676 M498.688,477.013h-3.41v0.676 M502.785,477.013h-3.413v0.676
	 M506.885,477.013h-2.733v0.676 M511.661,477.013h-3.417v0.676 M515.756,477.013h-3.412v0.676 M520.534,477.013h-3.411v0.676
	 M324.606,477.013v0.676 M521.218,477.013v0.676 M528.047,557.563v0.687 M528.047,552.788v4.095 M528.047,548.693v4.095
	 M528.047,543.917v4.092 M528.047,539.815v4.099 M528.047,535.722v3.417 M528.047,530.939v4.097 M528.047,526.847v4.093
	 M528.047,522.75v3.408 M528.047,517.971v4.097 M528.047,557.563v0.687 M528.047,517.971v0.682 M997.731,557.563v0.687
	 M997.731,552.788v4.095 M997.731,548.693v4.095 M997.731,543.917v4.092 M997.731,539.815v4.099 M997.731,535.722v3.417
	 M997.731,530.939v4.097 M997.731,526.847v4.093 M997.731,522.75v3.408 M997.731,557.563v0.687 M997.731,522.067v0.68
	 M1004.56,530.26v-0.685V530.26 M1004.56,534.354v-3.411v0.682 M1004.56,538.447v-2.726v0.682 M1004.56,543.227v-3.41v0.682
	 M1004.56,547.326v-3.409v0.676 M1004.56,552.103v-3.409v0.676 M1004.56,556.206v-3.415v0.682 M1004.56,560.291v-2.728v0.687
	 M1004.56,565.079v-3.415v0.688 M1004.56,529.575v0.685 M1004.56,565.079v0.681 M1004.56,565.079v0.681 M1000.465,565.079h2.729
	v0.681 M995.688,565.079h3.41v0.681 M991.587,565.079h3.417v0.681 M987.491,565.079h2.735v0.681 M982.715,565.079h3.411v0.681
	 M978.622,565.079h3.41v0.681 M973.842,565.079h3.41v0.681 M969.743,565.079h3.416v0.681 M965.647,565.079h2.727v0.681
	 M960.869,565.079h3.412v0.681 M956.774,565.079h3.409v0.681 M952.674,565.079h2.735v0.681 M947.896,565.079h3.413v0.681
	 M943.802,565.079h3.411v0.681 M939.023,565.079h3.412v0.681 M934.925,565.079h3.414v0.681 M930.831,565.079h2.731v0.681
	 M926.052,565.079h3.408v0.681 M921.959,565.079h3.411v0.681 M917.857,565.079h2.733v0.681 M913.08,565.079h3.416v0.681
	 M908.984,565.079h2.734v0.681 M904.206,565.079h3.412v0.681 M900.105,565.079h3.418v0.681 M896.012,565.079h2.732v0.681
	 M891.234,565.079h3.418v0.681 M887.141,565.079h3.408v0.681 M883.039,565.079h2.733v0.681 M878.262,565.079h3.417v0.681
	 M874.168,565.079h2.732v0.681 M869.389,565.079h3.412v0.681 M865.293,565.079h3.411v0.681 M861.194,565.079h2.733v0.681
	 M856.417,565.079h3.415v0.681 M852.322,565.079h3.41v0.681 M847.545,565.079h3.41v0.681 M843.45,565.079h3.408v0.681
	 M839.349,565.079h2.732v0.681 M834.572,565.079h3.409v0.681 M830.478,565.079h3.41v0.681 M826.381,565.079h2.729v0.681
	 M821.599,565.079h3.418v0.681 M817.503,565.079h3.412v0.681 M812.726,565.079h3.412v0.681 M808.632,565.079h3.41v0.681
	 M804.532,565.079h2.731v0.681 M799.755,565.079h3.415v0.681 M795.659,565.079h3.411v0.681 M791.565,565.079h2.729v0.681
	 M786.779,565.079h3.417v0.681 M782.688,565.079h3.415v0.681 M777.91,565.079h3.409v0.681 M773.814,565.079h3.41v0.681
	 M769.715,565.079h2.732v0.681 M764.938,565.079h3.414v0.681 M760.841,565.079h3.411v0.681 M756.748,565.079h2.727v0.681
	 M751.969,565.079h3.411v0.681 M747.869,565.079h3.416v0.681 M743.092,565.079h3.41v0.681 M738.997,565.079h3.411v0.681
	 M734.9,565.079h2.729v0.681 M730.118,565.079h3.418v0.681 M726.023,565.079h3.409v0.681 M721.93,565.079h2.729v0.681
	 M717.152,565.079h3.408v0.681 M713.052,565.079h3.417v0.681 M708.273,565.079h3.418v0.681 M704.178,565.079h3.413v0.681
	 M700.083,565.079h2.729v0.681 M695.3,565.079h3.417v0.681 M691.205,565.079h3.417v0.681 M687.112,565.079h2.731v0.681
	 M682.335,565.079h3.41v0.681 M678.235,565.079h2.732v0.681 M673.456,565.079h3.416v0.681 M669.36,565.079h3.419v0.681
	 M665.267,565.079h2.729v0.681 M660.489,565.079h3.41v0.681 M656.389,565.079h3.416v0.681 M652.294,565.079h2.734v0.681
	 M647.516,565.079h3.41v0.681 M643.42,565.079h2.729v0.681 M638.645,565.079h3.409v0.681 M634.544,565.079h3.415v0.681
	 M630.449,565.079h2.727v0.681 M625.67,565.079h3.41v0.681 M621.577,565.079h3.411v0.681 M616.793,565.079h3.415v0.681
	 M612.696,565.079h3.414v0.681 M608.604,565.079h2.729v0.681 M603.826,565.079h3.41v0.681 M599.726,565.079h3.417v0.681
	 M595.633,565.079h2.733v0.681 M590.854,565.079h3.411v0.681 M586.76,565.079h3.411v0.681 M581.975,565.079h3.417v0.681
	 M577.881,565.079h3.416v0.681 M573.785,565.079h2.729v0.681 M569.007,565.079h3.413v0.681 M564.908,565.079h3.414v0.681
	 M560.812,565.079h2.734v0.681 M556.035,565.079h3.412v0.681 M551.941,565.079h3.41v0.681 M547.164,565.079h3.409v0.681
	 M543.062,565.079h3.418v0.681 M538.969,565.079h2.729v0.681 M534.19,565.079h3.412v0.681 M530.095,565.079h3.413v0.681
	 M525.997,565.079h2.734v0.681 M521.218,565.079h3.418v0.681 M1004.56,565.079v0.681 M521.218,565.079v0.681 M394.921,299.507h3.417
	v0.69 M390.827,299.507h3.41v0.69 M386.048,299.507h3.411v0.69 M381.953,299.507h3.411v0.69 M377.854,299.507h2.732v0.69
	 M373.076,299.507h3.416v0.69 M368.98,299.507h3.411v0.69 M364.885,299.507h2.728v0.69 M360.103,299.507h3.416v0.69
	 M356.007,299.507h3.417v0.69 M351.23,299.507h3.411v0.69 M347.135,299.507h3.412v0.69 M343.034,299.507h2.734v0.69
	 M338.257,299.507h3.418v0.69 M334.163,299.507h3.411v0.69 M331.429,299.507h1.367v0.69 M398.336,299.507v0.69 M331.429,299.507
	v0.69 M1447.623,76.274h-0.68v0.684 M1451.724,76.274h-2.734v0.684 M1456.5,76.274h-3.41v0.684 M1460.596,76.274h-3.411v0.684
	 M1464.691,76.274h-2.729v0.684 M1469.473,76.274h-3.416v0.684 M1473.568,76.274h-3.412v0.684 M1478.348,76.274h-3.411v0.684
	 M1482.441,76.274h-3.412v0.684 M1486.541,76.274h-2.73v0.684 M1491.318,76.274h-3.417v0.684 M1495.411,76.274h-3.409v0.684
	 M1499.508,76.274h-2.729v0.684 M1504.291,76.274h-3.418v0.684 M1508.387,76.274h-3.418v0.684 M1513.165,76.274h-3.413v0.684
	 M1517.258,76.274h-3.41v0.684 M1521.358,76.274h-2.732v0.684 M1526.137,76.274h-3.416v0.684 M1530.229,76.274h-3.409v0.684
	 M1534.326,76.274h-2.729v0.684 M1539.104,76.274h-3.413v0.684 M1543.203,76.274h-3.416v0.684 M1547.981,76.274h-3.417v0.684
	 M1552.076,76.274h-3.412v0.684 M1556.172,76.274h-2.729v0.684 M1560.953,76.274h-3.417v0.684 M1565.049,76.274h-3.416v0.684
	 M1569.143,76.274h-2.727v0.684 M1573.92,76.274h-3.409v0.684 M1578.021,76.274h-3.415v0.684 M1582.799,76.274h-3.416v0.684
	 M1586.893,76.274h-3.408v0.684 M1590.988,76.274h-2.729v0.684 M1595.769,76.274h-3.413v0.684 M1599.867,76.274h-3.417v0.684
	 M1603.961,76.274h-2.734v0.684 M1608.739,76.274h-3.409v0.684 M1612.832,76.274h-2.727v0.684 M1617.616,76.274h-3.417v0.684
	 M1621.711,76.274h-3.416v0.684 M1625.807,76.274h-2.727v0.684 M1630.584,76.274h-3.411v0.684 M1634.001,76.274h-2.733v0.684
	 M1446.943,76.274v0.684 M1634.001,76.274v0.684 M1499.508,69.445h-2.044v0.684 M1504.291,69.445h-3.418v0.684 M1508.387,69.445
	h-3.418v0.684 M1513.165,69.445h-3.413v0.684 M1517.258,69.445h-3.41v0.684 M1521.358,69.445h-2.732v0.684 M1526.137,69.445h-3.416
	v0.684 M1530.229,69.445h-3.409v0.684 M1534.326,69.445h-2.729v0.684 M1539.104,69.445h-3.413v0.684 M1543.203,69.445h-3.416v0.684
	 M1547.981,69.445h-3.417v0.684 M1552.076,69.445h-3.412v0.684 M1556.172,69.445h-2.729v0.684 M1560.953,69.445h-3.417v0.684
	 M1565.049,69.445h-3.416v0.684 M1569.143,69.445h-2.727v0.684 M1573.92,69.445h-3.409v0.684 M1578.021,69.445h-3.415v0.684
	 M1582.799,69.445h-3.416v0.684 M1586.893,69.445h-3.408v0.684 M1590.988,69.445h-2.729v0.684 M1595.769,69.445h-3.413v0.684
	 M1599.867,69.445h-3.417v0.684 M1603.961,69.445h-2.734v0.684 M1608.739,69.445h-3.409v0.684 M1612.832,69.445h-2.727v0.684
	 M1617.616,69.445h-3.417v0.684 M1621.711,69.445h-3.416v0.684 M1625.807,69.445h-2.727v0.684 M1497.464,69.445v0.684
	 M1625.807,69.445v0.684 M1456.5,69.445h-2.048v0.684 M1460.596,69.445h-3.411v0.684 M1464.691,69.445h-2.729v0.684
	 M1469.473,69.445h-3.416v0.684 M1473.568,69.445h-3.412v0.684 M1478.348,69.445h-3.411v0.684 M1482.441,69.445h-3.412v0.684
	 M1486.541,69.445h-2.73v0.684 M1491.318,69.445h-3.417v0.684 M1495.411,69.445h-3.409v0.684 M1499.508,69.445h-2.729v0.684
	 M1504.291,69.445h-3.418v0.684 M1508.387,69.445h-3.418v0.684 M1513.165,69.445h-3.413v0.684 M1517.258,69.445h-3.41v0.684
	 M1521.358,69.445h-2.732v0.684 M1526.137,69.445h-3.416v0.684 M1530.229,69.445h-3.409v0.684 M1534.326,69.445h-2.729v0.684
	 M1539.104,69.445h-3.413v0.684 M1543.203,69.445h-3.416v0.684 M1547.981,69.445h-3.417v0.684 M1552.076,69.445h-3.412v0.684
	 M1556.172,69.445h-2.729v0.684 M1560.953,69.445h-3.417v0.684 M1565.049,69.445h-3.416v0.684 M1569.143,69.445h-2.727v0.684
	 M1573.92,69.445h-3.409v0.684 M1578.021,69.445h-3.415v0.684 M1582.799,69.445h-3.416v0.684 M1586.893,69.445h-3.408v0.684
	 M1590.988,69.445h-2.729v0.684 M1595.769,69.445h-3.413v0.684 M1599.867,69.445h-3.417v0.684 M1603.961,69.445h-2.734v0.684
	 M1608.739,69.445h-3.409v0.684 M1612.832,69.445h-2.727v0.684 M1617.616,69.445h-3.417v0.684 M1621.711,69.445h-3.416v0.684
	 M1625.807,69.445h-2.727v0.684 M1630.584,69.445h-3.411v0.684 M1634.684,69.445h-3.416v0.684 M1638.777,69.445h-2.73v0.684
	 M1640.828,69.445h-0.682v0.684 M1454.451,69.445v0.684 M1640.828,69.445v0.684 M524.636,33.944h-3.418v0.683 M528.729,33.944
	h-2.734v0.683 M533.508,33.944h-3.413v0.683 M537.603,33.944h-3.412v0.683 M541.695,33.944h-2.729v0.683 M546.48,33.944h-3.418
	v0.683 M550.573,33.944h-3.409v0.683 M555.352,33.944h-3.41v0.683 M559.447,33.944h-3.412v0.683 M563.546,33.944h-2.734v0.683
	 M568.322,33.944h-3.414v0.683 M572.419,33.944h-3.413v0.683 M576.514,33.944h-2.729v0.683 M581.299,33.944h-3.417v0.683
	 M585.393,33.944h-3.416v0.683 M590.171,33.944h-3.411v0.683 M594.265,33.944h-3.411v0.683 M598.365,33.944h-2.733v0.683
	 M603.143,33.944h-3.417v0.683 M607.236,33.944h-3.41v0.683 M611.332,33.944h-2.729v0.683 M616.11,33.944h-3.414v0.683
	 M620.21,33.944h-3.415v0.683 M624.988,33.944h-3.411v0.683 M629.082,33.944h-3.41v0.683 M633.176,33.944h-2.727v0.683
	 M637.959,33.944h-3.415v0.683 M642.056,33.944h-3.409v0.683 M646.148,33.944h-2.729v0.683 M650.928,33.944h-3.41v0.683
	 M655.028,33.944h-2.734v0.683 M659.806,33.944h-3.415v0.683 M663.899,33.944h-3.41v0.683 M667.995,33.944h-2.729v0.683
	 M672.779,33.944h-3.419v0.683 M676.872,33.944h-3.416v0.683 M680.968,33.944h-2.732v0.683 M685.745,33.944h-3.41v0.683
	 M689.844,33.944h-2.729v0.683 M694.622,33.944h-3.417v0.683 M698.719,33.944h-3.418v0.683 M702.812,33.944h-2.729v0.683
	 M707.591,33.944h-3.413v0.683 M711.691,33.944h-3.418v0.683 M716.469,33.944h-3.417v0.683 M720.562,33.944h-3.408v0.683
	 M724.658,33.944h-2.729v0.683 M729.435,33.944h-3.409v0.683 M733.536,33.944h-3.418v0.683 M737.629,33.944H734.9v0.683
	 M742.408,33.944h-3.411v0.683 M746.502,33.944h-3.41v0.683 M751.285,33.944h-3.416v0.683 M755.38,33.944h-3.411v0.683
	 M759.476,33.944h-2.727v0.683 M764.252,33.944h-3.411v0.683 M768.354,33.944h-3.415v0.683 M772.447,33.944h-2.732v0.683
	 M777.225,33.944h-3.41v0.683 M781.319,33.944h-3.409v0.683 M786.103,33.944h-3.415v0.683 M790.198,33.944h-3.419v0.683
	 M794.294,33.944h-2.729v0.683 M799.071,33.944h-3.411v0.683 M803.17,33.944h-3.415v0.683 M807.264,33.944h-2.731v0.683
	 M812.042,33.944h-3.41v0.683 M816.138,33.944h-3.412v0.683 M820.916,33.944h-3.41v0.683 M825.017,33.944h-3.418v0.683
	 M829.11,33.944h-2.729v0.683 M833.888,33.944h-3.41v0.683 M837.982,33.944h-3.41v0.683 M842.081,33.944h-2.732v0.683
	 M846.858,33.944h-3.408v0.683 M850.956,33.944h-3.409v0.683 M855.732,33.944h-3.41v0.683 M859.833,33.944h-3.415v0.683
	 M863.928,33.944h-2.733v0.683 M868.705,33.944h-3.41v0.683 M872.801,33.944h-3.412v0.683 M876.9,33.944h-2.732v0.683
	 M881.679,33.944h-3.417v0.683 M885.772,33.944h-2.733v0.683 M890.55,33.944h-3.407v0.683 M894.652,33.944h-3.418v0.683
	 M898.746,33.944h-2.732v0.683 M903.523,33.944h-3.418v0.683 M907.621,33.944h-3.413v0.683 M911.719,33.944h-2.734v0.683
	 M916.496,33.944h-3.416v0.683 M920.591,33.944h-2.733v0.683 M925.37,33.944h-3.411v0.683 M929.461,33.944h-3.407v0.683
	 M933.562,33.944h-2.731v0.683 M938.341,33.944h-3.415v0.683 M942.436,33.944h-3.412v0.683 M947.213,33.944h-3.411v0.683
	 M951.31,33.944h-3.413v0.683 M955.409,33.944h-2.735v0.683 M960.185,33.944h-3.408v0.683 M964.281,33.944h-3.412v0.683
	 M968.375,33.944h-2.727v0.683 M973.159,33.944h-3.416v0.683 M977.255,33.944h-3.411v0.683 M982.032,33.944h-3.41v0.683
	 M986.126,33.944h-3.411v0.683 M990.227,33.944h-2.735v0.683 M995.004,33.944h-3.417v0.683 M999.099,33.944h-3.41v0.683
	 M1003.193,33.944h-2.729v0.683 M1007.977,33.944h-3.415v0.683 M1012.069,33.944h-3.409v0.683 M1016.847,33.944h-3.407v0.683
	 M1020.943,33.944h-3.41v0.683 M1025.043,33.944h-2.732v0.683 M1029.821,33.944h-3.407v0.683 M1033.916,33.944h-3.412v0.683
	 M1038.01,33.944h-2.726v0.683 M1042.795,33.944h-3.416v0.683 M1046.89,33.944h-3.411v0.683 M1051.667,33.944h-3.411v0.683
	 M1055.762,33.944h-3.411v0.683 M1059.86,33.944h-2.731v0.683 M1064.639,33.944h-3.416v0.683 M1068.734,33.944h-3.41v0.683
	 M1072.829,33.944h-2.728v0.683 M1077.611,33.944h-3.414v0.683 M1081.706,33.944h-3.417v0.683 M1086.481,33.944h-3.408v0.683
	 M1090.581,33.944h-3.411v0.683 M1094.681,33.944h-2.736v0.683 M1099.458,33.944h-3.415v0.683 M1103.552,33.944h-3.41v0.683
	 M1107.646,33.944h-2.726v0.683 M1112.424,33.944h-3.411v0.683 M1116.523,33.944h-2.733v0.683 M1121.304,33.944h-3.42v0.683
	 M1125.396,33.944h-3.411v0.683 M1129.492,33.944h-2.729v0.683 M1134.275,33.944h-3.417v0.683 M1138.368,33.944h-3.414v0.683
	 M1142.463,33.944h-2.727v0.683 M1147.243,33.944h-3.411v0.683 M1151.341,33.944h-2.732v0.683 M1156.119,33.944h-3.417v0.683
	 M1160.215,33.944h-3.41v0.683 M1164.309,33.944h-2.728v0.683 M1169.086,33.944h-3.409v0.683 M1173.187,33.944h-3.416v0.683
	 M1177.966,33.944h-3.417v0.683 M1182.061,33.944h-3.412v0.683 M1186.154,33.944h-2.727v0.683 M1190.938,33.944h-3.416v0.683
	 M1195.031,33.944h-3.416v0.683 M1199.126,33.944h-2.727v0.683 M1203.906,33.944h-3.412v0.683 M1208.004,33.944h-3.414v0.683
	 M1212.783,33.944h-3.418v0.683 M1216.878,33.944h-3.411v0.683 M1220.971,33.944h-2.727v0.683 M1225.747,33.944h-3.408v0.683
	 M1229.849,33.944h-3.415v0.683 M1233.942,33.944h-2.726v0.683 M1238.723,33.944h-3.409v0.683 M1242.817,33.944h-3.411v0.683
	 M1247.601,33.944h-3.416v0.683 M1251.693,33.944h-3.409v0.683 M1255.79,33.944h-2.729v0.683 M1260.566,33.944h-3.411v0.683
	 M1264.667,33.944h-3.416v0.683 M1268.763,33.944h-2.732v0.683 M1273.54,33.944h-3.411v0.683 M1277.634,33.944h-3.408v0.683
	 M1282.417,33.944h-3.415v0.683 M1286.512,33.944h-3.416v0.683 M1290.605,33.944h-2.728v0.683 M1295.386,33.944h-3.412v0.683
	 M1299.486,33.944h-3.416v0.683 M1303.58,33.944h-2.733v0.683 M1308.358,33.944h-3.411v0.683 M1312.451,33.944h-3.41v0.683
	 M1317.23,33.944h-3.409v0.683 M1321.329,33.944h-3.417v0.683 M1325.426,33.944h-2.735v0.683 M1330.203,33.944h-3.41v0.683
	 M1334.297,33.944h-3.41v0.683 M1338.397,33.944h-2.732v0.683 M1343.176,33.944h-3.416v0.683 M1347.27,33.944h-3.409v0.683
	 M1352.048,33.944h-3.412v0.683 M1356.146,33.944h-3.414v0.683 M1360.243,33.944h-2.734v0.683 M1365.02,33.944h-3.411v0.683
	 M1369.115,33.944h-3.408v0.683 M1373.215,33.944h-2.734v0.683 M1377.992,33.944h-3.414v0.683 M1382.089,33.944h-2.734v0.683
	 M1386.866,33.944h-3.411v0.683 M1390.96,33.944h-3.413v0.683 M1395.06,33.944h-2.732v0.683 M1399.838,33.944h-3.416v0.683
	 M1403.932,33.944h-3.409v0.683 M1408.709,33.944h-3.408v0.683 M1412.81,33.944h-3.417v0.683 M1416.906,33.944h-2.734v0.683
	 M1421.683,33.944h-3.41v0.683 M1425.777,33.944h-3.41v0.683 M1429.877,33.944h-2.732v0.683 M1434.656,33.944h-3.417v0.683
	 M1438.749,33.944h-3.407v0.683 M1443.528,33.944h-3.411v0.683 M1447.623,33.944h-3.41v0.683 M1451.724,33.944h-2.734v0.683
	 M1454.451,33.944h-1.361v0.683 M521.218,33.944v0.683 M1454.451,33.944v0.683 M1454.451,38.045v-3.416v0.684 M1454.451,42.14
	v-2.734v0.684 M1454.451,46.918v-3.417v0.688 M1454.451,51.012v-3.413v0.68 M1454.451,55.79v-3.411v0.683 M1454.451,59.89v-3.417
	v0.685 M1454.451,63.985v-2.728v0.677 M1454.451,68.762v-3.417v0.689 M1454.451,33.944v0.683 M1454.451,69.445v0.684"/>
</svg>
