<?xml version="1.0" encoding="utf-8"?>
<!-- Generator: Adobe Illustrator 15.0.0, SVG Export Plug-In . SVG Version: 6.00 Build 0)  -->
<svg version="1.2" baseProfile="tiny" id="Layer_1_copy_2"
	 xmlns="http://www.w3.org/2000/svg" xmlns:xlink="http://www.w3.org/1999/xlink" x="0px" y="0px" width="1200px" height="750px"
	 viewBox="0 0 1200 750" xml:space="preserve">
<path fill="none" stroke="#00B4DE" stroke-width="0.12" stroke-linecap="round" stroke-linejoin="round" stroke-miterlimit="10" d="
	M-6.673,74.262v3.413 M-6.673,69.481v4.095 M-6.673,65.379v4.103 M-6.673,61.289v3.413 M-6.673,56.502v4.097 M-6.673,52.406v4.096
	 M-6.673,47.624v4.098 M-6.673,43.523v4.101 M-6.673,40.794v2.051 M-6.673,296.933v0.684 M-6.673,40.794v0.684 M230.34,42.162
	v-1.368v0.684 M230.34,46.942v-3.418v0.688 M230.34,51.038v-3.414v0.68 M230.34,55.818v-3.412v0.682 M230.34,59.921v-3.419v0.685
	 M230.34,64.018v-2.729v0.677 M230.34,68.797v-3.419v0.69 M230.34,72.894v-3.413v0.684 M230.34,76.997v-2.735v0.684 M230.34,81.776
	v-3.414v0.68 M230.34,85.875v-3.419v0.688 M230.34,90.654V87.24v0.686 M230.34,94.75v-3.413v0.684 M230.34,98.852v-2.734v0.684
	 M230.34,103.633v-3.413v0.678 M230.34,107.729v-3.413v0.684 M230.34,111.826v-2.728v0.684 M230.34,116.607v-3.413v0.684
	 M230.34,120.709v-3.414v0.678 M230.34,125.49v-3.412v0.679 M230.34,129.591v-3.417v0.683 M230.34,133.684v-2.729v0.684
	 M230.34,138.468v-3.418v0.689 M230.34,142.565v-3.412v0.678 M230.34,146.668v-2.735v0.684 M230.34,151.448v-3.419v0.684
	 M230.34,155.544v-3.419v0.69 M230.34,160.325v-3.419v0.688 M230.34,164.422v-3.414v0.684 M230.34,168.523v-2.734v0.683
	 M230.34,173.304v-3.414v0.68 M230.34,177.4v-3.418v0.688 M230.34,181.496v-2.729v0.685 M230.34,186.278v-3.413v0.684
	 M230.34,190.38v-3.413v0.678 M230.34,195.161v-3.413v0.677 M230.34,199.258v-3.413v0.684 M230.34,203.354v-2.729v0.683
	 M230.34,208.134v-3.413v0.684 M230.34,212.235v-3.411v0.678 M230.34,216.333v-2.729v0.68 M230.34,221.119v-3.418v0.684
	 M230.34,225.21v-2.73v0.686 M230.34,229.997v-3.418v0.684 M230.34,234.093v-3.413v0.677 M230.34,238.195v-2.735v0.678
	 M230.34,242.975v-3.417v0.684 M230.34,247.071v-3.417v0.684 M230.34,251.169v-2.735v0.69 M230.34,255.948v-3.413v0.68
	 M230.34,260.052v-2.734v0.684 M230.34,264.832v-3.417v0.683 M230.34,268.928v-3.419v0.689 M230.34,273.024v-2.734v0.688
	 M230.34,277.805v-3.412v0.684 M230.34,281.907v-3.418v0.684 M230.34,286.687v-3.412v0.678 M230.34,290.784v-3.417v0.688
	 M230.34,294.881v-2.729v0.684 M230.34,299.66v-3.411v0.684 M230.34,303.763v-3.412v0.68 M230.34,307.86v-2.729v0.678
	 M230.34,312.641v-3.412v0.684 M230.34,316.737v-3.413v0.685 M230.34,321.518v-3.412v0.686 M230.34,324.252v-2.046v0.679
	 M230.34,40.794v0.684 M230.34,324.252v0.685 M230.34,334.504v-3.419v0.684 M230.34,338.595v-3.413v0.686 M230.34,342.696v-2.735
	v0.688 M230.34,347.477v-3.413v0.679 M230.34,351.578v-3.418v0.685 M230.34,356.359v-3.42v0.685 M230.34,360.456v-3.419v0.689
	 M230.34,364.553v-2.736v0.689 M230.34,369.333v-3.413v0.686 M230.34,373.435v-3.419v0.685 M230.34,377.531v-2.729v0.679
	 M230.34,382.312v-3.421v0.691 M230.34,386.407v-3.412v0.685 M230.34,391.188v-3.413v0.687 M230.34,395.291v-3.411v0.675
	 M230.34,399.389v-2.73v0.679 M230.34,404.168v-3.412v0.685 M230.34,408.267v-3.413v0.683 M230.34,412.366v-2.735v0.686
	 M230.34,417.148v-3.414v0.679 M230.34,421.244v-3.412v0.682 M230.34,426.03v-3.419v0.683 M230.34,430.122v-3.413v0.683
	 M230.34,434.225v-2.735v0.682 M230.34,439.004v-3.414v0.679 M230.34,443.104v-3.417v0.684 M230.34,447.196v-2.729v0.686
	 M230.34,451.982v-3.418v0.684 M230.34,456.08v-3.412v0.677 M230.34,460.86v-3.414v0.68 M230.34,464.963v-3.417v0.682
	 M230.34,469.058v-2.733v0.682 M230.34,473.841v-3.419v0.689 M230.34,477.934v-3.41v0.68 M230.34,482.036v-2.734v0.684
	 M230.34,486.817v-3.416v0.685 M230.34,490.915v-2.729v0.679 M230.34,495.699v-3.421v0.691 M230.34,499.792v-3.414v0.685
	 M230.34,503.897v-2.735v0.682 M230.34,508.676v-3.413v0.678 M230.34,512.769v-3.416v0.691 M230.34,517.55v-3.41v0.686
	 M230.34,521.646v-3.41v0.682 M230.34,525.753v-2.735v0.682 M230.34,530.531v-3.415v0.68 M230.34,534.627v-3.411v0.682
	 M230.34,538.724v-2.727v0.682 M230.34,543.505v-3.412v0.683 M230.34,547.606v-3.41v0.677 M230.34,552.386v-3.411v0.677
	 M230.34,556.49v-3.417v0.683 M230.34,557.85v0.686 M230.34,330.4v0.685 M230.34,557.85v0.686 M229.657,324.252h0.684v0.685
	 M225.558,324.252h2.735v0.685 M220.779,324.252h3.413v0.685 M216.682,324.252h3.413v0.685 M211.895,324.252h3.42v0.685
	 M207.798,324.252h3.419v0.685 M203.703,324.252h2.729v0.685 M198.922,324.252h3.411v0.685 M194.821,324.252h3.417v0.685
	 M190.724,324.252h2.735v0.685 M185.943,324.252h3.413v0.685 M181.847,324.252h2.729v0.685 M177.066,324.252h3.413v0.685
	 M172.964,324.252h3.418v0.685 M168.867,324.252h2.734v0.685 M164.086,324.252h3.413v0.685 M159.989,324.252h3.413v0.685
	 M155.889,324.252h2.733v0.685 M151.107,324.252h3.417v0.685 M147.011,324.252h2.729v0.685 M142.231,324.252h3.412v0.685
	 M138.128,324.252h3.418v0.685 M134.03,324.252h2.735v0.685 M129.25,324.252h3.413v0.685 M125.154,324.252h3.413v0.685
	 M120.375,324.252h3.413v0.685 M116.272,324.252h3.418v0.685 M112.175,324.252h2.729v0.685 M107.395,324.252h3.413v0.685
	 M103.297,324.252h3.414v0.685 M99.196,324.252h2.735v0.685 M230.34,324.252v0.685 M98.512,324.252v0.685 M98.512,299.66v-2.728
	v0.684 M98.512,303.763v-3.412v0.68 M98.512,307.86v-2.729v0.678 M98.512,312.641v-3.412v0.684 M98.512,316.737v-3.413v0.685
	 M98.512,321.518v-3.412v0.686 M98.512,324.252v-2.046v0.679 M98.512,296.933v0.684 M98.512,324.252v0.685 M94.415,296.933h3.413
	v0.684 M90.318,296.933h3.413v0.684 M85.539,296.933h3.413v0.684 M81.437,296.933h3.417v0.684 M77.339,296.933h2.735v0.684
	 M72.558,296.933h3.414v0.684 M68.463,296.933h3.414v0.684 M64.36,296.933h2.734v0.684 M59.58,296.933h3.418v0.684 M55.484,296.933
	h3.413v0.684 M50.704,296.933h3.413v0.684 M46.601,296.933h3.419v0.684 M42.503,296.933h2.736v0.684 M37.725,296.933h3.413v0.684
	 M33.627,296.933h3.412v0.684 M29.524,296.933h2.735v0.684 M24.744,296.933h3.417v0.684 M20.648,296.933h3.413v0.684
	 M15.868,296.933h3.413v0.684 M11.771,296.933h3.414v0.684 M7.67,296.933h2.734v0.684 M2.888,296.933h3.419v0.684 M-1.208,296.933
	h3.414v0.684 M-5.305,296.933h2.729v0.684 M98.512,296.933v0.684 M-6.673,296.933v0.684 M-2.576,302.395h-2.729v0.685
	 M2.205,302.395h-3.414v0.685 M6.308,302.395H2.888v0.685 M10.404,302.395H7.67v0.685 M15.184,302.395h-3.414v0.685 M19.28,302.395
	h-3.413v0.685 M24.062,302.395h-3.413v0.685 M28.162,302.395h-3.418v0.685 M32.26,302.395h-2.735v0.685 M37.039,302.395h-3.412
	v0.685 M41.138,302.395h-3.413v0.685 M45.239,302.395h-2.736v0.685 M50.02,302.395h-3.419v0.685 M54.116,302.395h-3.413v0.685
	 M58.896,302.395h-3.413v0.685 M62.998,302.395H59.58v0.685 M67.096,302.395h-2.734v0.685 M71.876,302.395h-3.414v0.685
	 M75.973,302.395h-3.413v0.685 M80.075,302.395h-2.735v0.685 M84.854,302.395h-3.417v0.685 M88.952,302.395h-3.413v0.685
	 M92.363,302.395h-2.045v0.685 M-6.673,302.395v0.685 M92.363,302.395v0.685 M92.363,303.763v-1.368v0.685 M92.363,307.86v-2.729
	v0.678 M92.363,312.641v-3.412v0.684 M92.363,316.737v-3.413v0.685 M92.363,321.518v-3.412v0.686 M92.363,325.62v-3.414v0.679
	 M92.363,329.717v-2.729v0.678 M92.363,302.395v0.685 M92.363,330.4v0.685 M93.731,330.4h-1.368v0.685 M97.828,330.4h-3.413v0.685
	 M101.931,330.4h-2.735v0.685 M106.712,330.4h-3.414v0.685 M110.808,330.4h-3.413v0.685 M114.904,330.4h-2.729v0.685 M119.691,330.4
	h-3.418v0.685 M123.786,330.4h-3.413v0.685 M128.567,330.4h-3.413v0.685 M132.664,330.4h-3.413v0.685 M136.767,330.4h-2.735v0.685
	 M141.546,330.4h-3.418v0.685 M145.643,330.4h-3.412v0.685 M149.74,330.4h-2.729v0.685 M154.525,330.4h-3.417v0.685 M158.622,330.4
	h-2.733v0.685 M163.402,330.4h-3.413v0.685 M167.499,330.4h-3.413v0.685 M171.601,330.4h-2.734v0.685 M176.382,330.4h-3.418v0.685
	 M180.479,330.4h-3.413v0.685 M184.576,330.4h-2.729v0.685 M189.356,330.4h-3.413v0.685 M193.458,330.4h-2.735v0.685 M198.238,330.4
	h-3.417v0.685 M202.335,330.4h-3.411v0.685 M206.432,330.4h-2.729v0.685 M211.218,330.4h-3.419v0.685 M215.314,330.4h-3.42v0.685
	 M220.095,330.4h-3.413v0.685 M224.19,330.4h-3.413v0.685 M228.293,330.4h-2.735v0.685 M230.34,330.4h-0.684v0.685 M92.363,330.4
	v0.685 M230.34,330.4v0.685 M229.657,557.85h0.684v0.686 M225.558,557.85h2.735v0.686 M220.779,557.85h3.413v0.686 M216.682,557.85
	h3.413v0.686 M211.895,557.85h3.42v0.686 M207.798,557.85h3.419v0.686 M203.703,557.85h2.729v0.686 M198.922,557.85h3.411v0.686
	 M194.821,557.85h3.417v0.686 M190.724,557.85h2.735v0.686 M185.943,557.85h3.413v0.686 M181.847,557.85h2.729v0.686
	 M177.066,557.85h3.413v0.686 M172.964,557.85h3.418v0.686 M168.867,557.85h2.734v0.686 M164.086,557.85h3.413v0.686
	 M159.989,557.85h3.413v0.686 M155.889,557.85h2.733v0.686 M151.107,557.85h3.417v0.686 M147.011,557.85h2.729v0.686
	 M142.231,557.85h3.412v0.686 M138.128,557.85h3.418v0.686 M134.03,557.85h2.735v0.686 M129.25,557.85h3.413v0.686 M125.154,557.85
	h3.413v0.686 M120.375,557.85h3.413v0.686 M116.272,557.85h3.418v0.686 M112.175,557.85h2.729v0.686 M107.395,557.85h3.413v0.686
	 M103.297,557.85h3.414v0.686 M99.196,557.85h2.735v0.686 M94.415,557.85h3.413v0.686 M90.318,557.85h3.413v0.686 M85.539,557.85
	h3.413v0.686 M81.437,557.85h3.417v0.686 M77.339,557.85h2.735v0.686 M72.558,557.85h3.414v0.686 M68.463,557.85h3.414v0.686
	 M64.36,557.85h2.734v0.686 M59.58,557.85h3.418v0.686 M55.484,557.85h3.413v0.686 M50.704,557.85h3.413v0.686 M46.601,557.85h3.419
	v0.686 M42.503,557.85h2.736v0.686 M37.725,557.85h3.413v0.686 M33.627,557.85h3.412v0.686 M29.524,557.85h2.735v0.686
	 M24.744,557.85h3.417v0.686 M20.648,557.85h3.413v0.686 M15.868,557.85h3.413v0.686 M11.771,557.85h3.414v0.686 M7.67,557.85h2.734
	v0.686 M2.888,557.85h3.419v0.686 M-1.208,557.85h3.414v0.686 M-5.305,557.85h2.729v0.686 M230.34,557.85v0.686 M-6.673,557.85
	v0.686 M-2.576,40.794h-2.729v0.684 M2.205,40.794h-3.414v0.684 M6.308,40.794H2.888v0.684 M10.404,40.794H7.67v0.684
	 M15.184,40.794h-3.414v0.684 M19.28,40.794h-3.413v0.684 M24.062,40.794h-3.413v0.684 M28.162,40.794h-3.418v0.684 M32.26,40.794
	h-2.735v0.684 M37.039,40.794h-3.412v0.684 M41.138,40.794h-3.413v0.684 M45.239,40.794h-2.736v0.684 M50.02,40.794h-3.419v0.684
	 M54.116,40.794h-3.413v0.684 M58.896,40.794h-3.413v0.684 M62.998,40.794H59.58v0.684 M67.096,40.794h-2.734v0.684 M71.876,40.794
	h-3.414v0.684 M75.973,40.794h-3.413v0.684 M80.075,40.794h-2.735v0.684 M84.854,40.794h-3.417v0.684 M88.952,40.794h-3.413v0.684
	 M93.731,40.794h-3.413v0.684 M97.828,40.794h-3.413v0.684 M101.931,40.794h-2.735v0.684 M106.712,40.794h-3.414v0.684
	 M110.808,40.794h-3.413v0.684 M114.904,40.794h-2.729v0.684 M119.691,40.794h-3.418v0.684 M123.786,40.794h-3.413v0.684
	 M128.567,40.794h-3.413v0.684 M132.664,40.794h-3.413v0.684 M136.767,40.794h-2.735v0.684 M141.546,40.794h-3.418v0.684
	 M145.643,40.794h-3.412v0.684 M149.74,40.794h-2.729v0.684 M154.525,40.794h-3.417v0.684 M158.622,40.794h-2.733v0.684
	 M163.402,40.794h-3.413v0.684 M167.499,40.794h-3.413v0.684 M171.601,40.794h-2.734v0.684 M176.382,40.794h-3.418v0.684
	 M180.479,40.794h-3.413v0.684 M184.576,40.794h-2.729v0.684 M189.356,40.794h-3.413v0.684 M193.458,40.794h-2.735v0.684
	 M198.238,40.794h-3.417v0.684 M202.335,40.794h-3.411v0.684 M206.432,40.794h-2.729v0.684 M211.218,40.794h-3.419v0.684
	 M215.314,40.794h-3.42v0.684 M220.095,40.794h-3.413v0.684 M224.19,40.794h-3.413v0.684 M228.293,40.794h-2.735v0.684
	 M230.34,40.794h-0.684v0.684 M-6.673,40.794v0.684 M230.34,40.794v0.684 M237.171,561.949v4.1 M237.171,557.85v3.419
	 M237.171,553.07v4.098 M237.171,548.975v4.096 M237.171,544.196v4.093 M237.171,540.092v4.101 M237.171,535.997v3.417
	 M237.171,531.213v4.097 M237.171,527.116v4.097 M237.171,523.018v3.41 M237.171,518.236v4.098 M237.171,514.14v4.097
	 M237.171,509.353v4.102 M237.171,505.263v4.092 M237.171,501.159v3.411 M237.171,496.378v4.096 M237.171,492.275v4.101
	 M237.171,488.186v3.41 M237.171,483.401v4.096 M237.171,479.302v3.413 M237.171,474.523v4.097 M237.171,470.42v4.101
	 M237.171,466.324v3.418 M237.171,461.543v4.096 M237.171,457.446v4.097 M237.171,452.665v4.098 M237.171,448.564v4.101
	 M237.171,444.467v3.42 M237.171,439.688v4.098 M237.171,435.59v4.098 M237.171,431.489v3.418 M237.171,426.709v4.101
	 M237.171,422.611v4.097 M237.171,417.832v4.095 M237.171,413.734v4.096 M237.171,409.631v3.415 M237.171,404.854v4.101
	 M237.171,400.754v4.097 M237.171,396.658v3.412 M237.171,391.878v4.092 M237.171,387.774v4.104 M237.171,382.995v4.096
	 M237.171,378.892v4.104 M237.171,374.802v3.413 M237.171,370.017v4.098 M237.171,365.919v4.097 M237.171,361.816v3.42
	 M237.171,357.037v4.103 M237.171,352.939v4.097 M237.171,348.16v4.096 M237.171,344.063v4.097 M237.171,339.963v3.417
	 M237.171,335.18v4.102 M237.171,331.085v4.095 M237.171,326.987v3.413 M237.171,322.206v4.096 M237.171,318.104v4.102
	 M237.171,313.324v4.102 M237.171,309.229v4.096 M237.171,305.131v3.413 M237.171,300.351v4.092 M237.171,296.249v4.102
	 M237.171,292.151v3.413 M237.171,287.365v4.104 M237.171,283.274v4.091 M237.171,278.489v4.095 M237.171,274.393v4.097
	 M237.171,270.291v3.417 M237.171,265.511v4.103 M237.171,261.413v4.096 M237.171,257.315v3.415 M237.171,252.535v4.097
	 M237.171,248.434v3.419 M237.171,243.653v4.103 M237.171,239.558v4.095 M237.171,235.459v3.413 M237.171,230.681v4.096
	 M237.171,226.577v4.102 M237.171,222.48v3.419 M237.171,217.701v4.095 M237.171,213.603v3.413 M237.171,208.824v4.097
	 M237.171,204.721v4.103 M237.171,200.625v3.417 M237.171,195.845v4.097 M237.171,191.748v4.097 M237.171,186.967v4.091
	 M237.171,182.865v4.102 M237.171,178.767v3.413 M237.171,173.983v4.101 M237.171,169.891v4.093 M237.171,165.789v3.413
	 M237.171,161.009v4.097 M237.171,156.906v4.102 M237.171,152.125v4.104 M237.171,148.028v4.097 M237.171,143.933v3.413
	 M237.171,139.152v4.095 M237.171,135.051v4.103 M237.171,130.954v3.417 M237.171,126.174v4.095 M237.171,122.077v4.097
	 M237.171,117.295v4.097 M237.171,113.194v4.101 M237.171,109.097v3.417 M237.171,104.317v4.097 M237.171,100.221v4.096
	 M237.171,96.118v3.413 M237.171,91.338v4.101 M237.171,87.24v4.098 M237.171,82.455v4.102 M237.171,78.363v4.092 M237.171,74.262
	v3.413 M237.171,69.481v4.095 M237.171,65.379v4.103 M237.171,61.289v3.413 M237.171,56.502v4.097 M237.171,52.406v4.096
	 M237.171,47.624v4.098 M237.171,43.523v4.101 M237.171,39.426v3.418 M237.171,34.646v4.095 M237.171,565.369v0.681 M237.171,33.961
	v0.684 M233.757,33.961h3.414v0.684 M229.657,33.961h3.417v0.684 M225.558,33.961h2.735v0.684 M220.779,33.961h3.413v0.684
	 M216.682,33.961h3.413v0.684 M211.895,33.961h3.42v0.684 M207.798,33.961h3.419v0.684 M203.703,33.961h2.729v0.684 M198.922,33.961
	h3.411v0.684 M194.821,33.961h3.417v0.684 M190.724,33.961h2.735v0.684 M185.943,33.961h3.413v0.684 M181.847,33.961h2.729v0.684
	 M177.066,33.961h3.413v0.684 M172.964,33.961h3.418v0.684 M168.867,33.961h2.734v0.684 M164.086,33.961h3.413v0.684
	 M159.989,33.961h3.413v0.684 M155.889,33.961h2.733v0.684 M151.107,33.961h3.417v0.684 M147.011,33.961h2.729v0.684
	 M142.231,33.961h3.412v0.684 M138.128,33.961h3.418v0.684 M134.03,33.961h2.735v0.684 M129.25,33.961h3.413v0.684 M125.154,33.961
	h3.413v0.684 M120.375,33.961h3.413v0.684 M116.272,33.961h3.418v0.684 M112.175,33.961h2.729v0.684 M107.395,33.961h3.413v0.684
	 M103.297,33.961h3.414v0.684 M99.196,33.961h2.735v0.684 M94.415,33.961h3.413v0.684 M90.318,33.961h3.413v0.684 M85.539,33.961
	h3.413v0.684 M81.437,33.961h3.417v0.684 M77.339,33.961h2.735v0.684 M72.558,33.961h3.414v0.684 M68.463,33.961h3.414v0.684
	 M64.36,33.961h2.734v0.684 M59.58,33.961h3.418v0.684 M55.484,33.961h3.413v0.684 M50.704,33.961h3.413v0.684 M46.601,33.961h3.419
	v0.684 M42.503,33.961h2.736v0.684 M37.725,33.961h3.413v0.684 M33.627,33.961h3.412v0.684 M29.524,33.961h2.735v0.684
	 M24.744,33.961h3.417v0.684 M20.648,33.961h3.413v0.684 M15.868,33.961h3.413v0.684 M11.771,33.961h3.414v0.684 M7.67,33.961h2.734
	v0.684 M2.888,33.961h3.419v0.684 M-1.208,33.961h3.414v0.684 M-5.305,33.961h2.729v0.684 M-10.09,33.961h3.417v0.684
	 M-13.503,33.961h2.734v0.684 M237.171,33.961v0.684 M-13.503,33.961v0.684 M-13.503,38.064v-3.417v0.684 M-13.503,42.162v-2.735
	v0.684 M-13.503,46.942v-3.418v0.688 M-13.503,51.038v-3.414v0.68 M-13.503,55.818v-3.412v0.682 M-13.503,59.921v-3.419v0.685
	 M-13.503,64.018v-2.729v0.677 M-13.503,68.797v-3.419v0.69 M-13.503,72.894v-3.413v0.684 M-13.503,76.997v-2.735v0.684
	 M-13.503,81.776v-3.414v0.68 M-13.503,85.875v-3.419v0.688 M-13.503,90.654V87.24v0.686 M-13.503,94.75v-3.413v0.684
	 M-13.503,98.852v-2.734v0.684 M-13.503,103.633v-3.413v0.678 M-13.503,107.729v-3.413v0.684 M-13.503,111.826v-2.728v0.684
	 M-13.503,116.607v-3.413v0.684 M-13.503,120.709v-3.414v0.678 M-13.503,125.49v-3.412v0.679 M-13.503,129.591v-3.417v0.683
	 M-13.503,133.684v-2.729v0.684 M-13.503,138.468v-3.418v0.689 M-13.503,142.565v-3.412v0.678 M-13.503,146.668v-2.735v0.684
	 M-13.503,151.448v-3.419v0.684 M-13.503,155.544v-3.419v0.69 M-13.503,160.325v-3.419v0.688 M-13.503,164.422v-3.414v0.684
	 M-13.503,168.523v-2.734v0.683 M-13.503,173.304v-3.414v0.68 M-13.503,177.4v-3.418v0.688 M-13.503,181.496v-2.729v0.685
	 M-13.503,186.278v-3.413v0.684 M-13.503,190.38v-3.413v0.678 M-13.503,195.161v-3.413v0.677 M-13.503,199.258v-3.413v0.684
	 M-13.503,203.354v-2.729v0.683 M-13.503,208.134v-3.413v0.684 M-13.503,212.235v-3.411v0.678 M-13.503,216.333v-2.729v0.68
	 M-13.503,221.119v-3.418v0.684 M-13.503,225.21v-2.73v0.686 M-13.503,229.997v-3.418v0.684 M-13.503,234.093v-3.413v0.677
	 M-13.503,238.195v-2.735v0.678 M-13.503,242.975v-3.417v0.684 M-13.503,247.071v-3.417v0.684 M-13.503,251.169v-2.735v0.69
	 M-13.503,255.948v-3.413v0.68 M-13.503,260.052v-2.734v0.684 M-13.503,264.832v-3.417v0.683 M-13.503,268.928v-3.419v0.689
	 M-13.503,273.024v-2.734v0.688 M-13.503,277.805v-3.412v0.684 M-13.503,281.907v-3.418v0.684 M-13.503,286.687v-3.412v0.678
	 M-13.503,290.784v-3.417v0.688 M-13.503,294.881v-2.729v0.684 M-13.503,299.66v-3.411v0.684 M-13.503,303.763v-3.412v0.68
	 M-13.503,307.86v-2.729v0.678 M-13.503,312.641v-3.412v0.684 M-13.503,316.737v-3.413v0.685 M-13.503,321.518v-3.412v0.686
	 M-13.503,325.62v-3.414v0.679 M-13.503,329.717v-2.729v0.678 M-13.503,334.504v-3.419v0.684 M-13.503,338.595v-3.413v0.686
	 M-13.503,342.696v-2.735v0.688 M-13.503,347.477v-3.413v0.679 M-13.503,351.578v-3.418v0.685 M-13.503,356.359v-3.42v0.685
	 M-13.503,360.456v-3.419v0.689 M-13.503,364.553v-2.736v0.689 M-13.503,369.333v-3.413v0.686 M-13.503,373.435v-3.419v0.685
	 M-13.503,377.531v-2.729v0.679 M-13.503,382.312v-3.421v0.691 M-13.503,386.407v-3.412v0.685 M-13.503,391.188v-3.413v0.687
	 M-13.503,395.291v-3.411v0.675 M-13.503,399.389v-2.73v0.679 M-13.503,404.168v-3.412v0.685 M-13.503,408.267v-3.413v0.683
	 M-13.503,412.366v-2.735v0.686 M-13.503,417.148v-3.414v0.679 M-13.503,421.244v-3.412v0.682 M-13.503,426.03v-3.419v0.683
	 M-13.503,430.122v-3.413v0.683 M-13.503,434.225v-2.735v0.682 M-13.503,439.004v-3.414v0.679 M-13.503,443.104v-3.417v0.684
	 M-13.503,447.196v-2.729v0.686 M-13.503,451.982v-3.418v0.684 M-13.503,456.08v-3.412v0.677 M-13.503,460.86v-3.414v0.68
	 M-13.503,464.963v-3.417v0.682 M-13.503,469.058v-2.733v0.682 M-13.503,473.841v-3.419v0.689 M-13.503,477.934v-3.41v0.68
	 M-13.503,482.036v-2.734v0.684 M-13.503,486.817v-3.416v0.685 M-13.503,490.915v-2.729v0.679 M-13.503,495.699v-3.421v0.691
	 M-13.503,499.792v-3.414v0.685 M-13.503,503.897v-2.735v0.682 M-13.503,508.676v-3.413v0.678 M-13.503,512.769v-3.416v0.691
	 M-13.503,517.55v-3.41v0.686 M-13.503,521.646v-3.41v0.682 M-13.503,525.753v-2.735v0.682 M-13.503,530.531v-3.415v0.68
	 M-13.503,534.627v-3.411v0.682 M-13.503,538.724v-2.727v0.682 M-13.503,543.505v-3.412v0.683 M-13.503,547.606v-3.41v0.677
	 M-13.503,552.386v-3.411v0.677 M-13.503,556.49v-3.417v0.683 M-13.503,560.578v-2.729v0.686 M-13.503,565.369v-3.418v0.688
	 M-13.503,33.961v0.684 M-13.503,565.369v0.681 M-10.77,565.369h-2.735v0.681 M-6.673,565.369h-3.417v0.681 M-2.576,565.369h-2.729
	v0.681 M2.205,565.369h-3.414v0.681 M6.308,565.369H2.888v0.681 M10.404,565.369H7.67v0.681 M15.184,565.369h-3.414v0.681
	 M19.28,565.369h-3.413v0.681 M24.062,565.369h-3.413v0.681 M28.162,565.369h-3.418v0.681 M32.26,565.369h-2.735v0.681
	 M37.039,565.369h-3.412v0.681 M41.138,565.369h-3.413v0.681 M45.239,565.369h-2.736v0.681 M50.02,565.369h-3.419v0.681
	 M54.116,565.369h-3.413v0.681 M58.896,565.369h-3.413v0.681 M62.998,565.369H59.58v0.681 M67.096,565.369h-2.734v0.681
	 M71.876,565.369h-3.414v0.681 M75.973,565.369h-3.413v0.681 M80.075,565.369h-2.735v0.681 M84.854,565.369h-3.417v0.681
	 M88.952,565.369h-3.413v0.681 M93.731,565.369h-3.413v0.681 M97.828,565.369h-3.413v0.681 M101.931,565.369h-2.735v0.681
	 M106.712,565.369h-3.414v0.681 M110.808,565.369h-3.413v0.681 M114.904,565.369h-2.729v0.681 M119.691,565.369h-3.418v0.681
	 M123.786,565.369h-3.413v0.681 M128.567,565.369h-3.413v0.681 M132.664,565.369h-3.413v0.681 M136.767,565.369h-2.735v0.681
	 M141.546,565.369h-3.418v0.681 M145.643,565.369h-3.412v0.681 M149.74,565.369h-2.729v0.681 M154.525,565.369h-3.417v0.681
	 M158.622,565.369h-2.733v0.681 M163.402,565.369h-3.413v0.681 M167.499,565.369h-3.413v0.681 M171.601,565.369h-2.734v0.681
	 M176.382,565.369h-3.418v0.681 M180.479,565.369h-3.413v0.681 M184.576,565.369h-2.729v0.681 M189.356,565.369h-3.413v0.681
	 M193.458,565.369h-2.735v0.681 M198.238,565.369h-3.417v0.681 M202.335,565.369h-3.411v0.681 M206.432,565.369h-2.729v0.681
	 M211.218,565.369h-3.419v0.681 M215.314,565.369h-3.42v0.681 M220.095,565.369h-3.413v0.681 M224.19,565.369h-3.413v0.681
	 M228.293,565.369h-2.735v0.681 M233.074,565.369h-3.417v0.681 M237.171,565.369h-3.414v0.681 M-13.503,565.369v0.681
	 M237.171,565.369v0.681 M279.521,321.518l-2.735-2.729v0.684 M279.521,321.518l2.046-2.729v0.684 M279.521,264.832v57.375
	 M293.178,179.452l-2.729,2.729v0.684 M293.178,179.452l2.052,2.729v0.684 M293.178,236.137v-56.685v0.679 M50.02,127.541
	l2.729,2.052v0.678 M50.02,127.541l2.729-2.733v0.682 M106.712,127.541H50.02v0.684 M190.724,216.333l-2.729,2.052v0.678
	 M190.724,216.333l-2.729-2.729v0.68 M134.03,216.333h56.692v0.684 M216.682,498.425l-2.736,2.051v0.684 M216.682,498.425
	l-2.736-2.726v0.679 M159.989,498.425h56.693v0.688 M11.087,421.927l2.045,2.735v0.678 M11.087,421.927l2.045-2.045v0.68
	 M67.779,421.927H11.087v0.685 M650.406,328.354l-2.045,2.73v0.683 M650.406,328.354l2.733,2.73v0.683 M650.406,385.042v-56.688
	v0.681 M440.03,315.376l-2.73,2.05v0.679 M440.03,315.376l2.051,2.05v0.679 M440.03,372.066v-56.69v0.685 M457.789,122.077
	l-2.729,2.729v0.683 M457.789,122.077l2.734,2.729v0.683 M457.789,178.767v-56.69v0.679 M679.775,84.511l-2.727,2.729v0.686
	 M679.775,84.511l2.053,2.729v0.686 M679.775,141.198V84.511v0.678 M1399.015,84.511l-2.05,2.729v0.686 M1399.015,84.511
	l2.737,2.729v0.686 M1399.015,141.198V84.511v0.678 M1216.643,266.877l-2.728-2.045v0.679 M1216.643,266.877l2.052-2.045v0.679
	 M1216.643,210.186v57.375 M818.434,249.123l-2.73-2.734v0.682 M818.434,249.123l2.052-2.734v0.682 M818.434,192.425v57.376
	 M384.706,269.613l-2.052-2.052v0.684 M384.706,269.613l2.733-2.052v0.684 M384.706,212.92v57.371 M373.094,449.932l-2.051-2.735
	v0.69 M373.094,449.932l2.735-2.735v0.69 M373.094,393.24v57.376 M1096.432,299.66v13.664 M1037.01,299.66v13.664 M1096.432,286.004
	v13.656 M1037.01,286.004v13.656 M1098.481,298.982h-63.522v0.678 M1098.481,299.66h-63.522v0.69 M1098.481,328.354V270.29v0.688
	 M1098.481,328.354V270.29v0.688 M1098.481,270.291v58.742 M1034.958,328.354V270.29v0.688 M1034.958,270.291v58.742
	 M1034.958,328.354V270.29v0.688 M1098.481,380.944v-53.957v0.678 M1098.481,380.944v-53.957v0.678 M1098.481,326.987v54.641
	 M1096.432,370.701v10.245 M1037.01,370.701v10.245 M1034.958,380.944v-53.957v0.678 M1034.958,326.987v54.641 M1034.958,380.944
	v-53.957v0.678 M1096.432,328.354h-61.474v0.68 M1096.432,328.354v13.656 M1034.958,341.328h63.522v0.684 M1098.481,355.669h-63.522
	v0.69 M1098.481,357.037h-63.522v0.689 M1098.481,370.701h-63.522v0.684 M1096.432,357.037v12.979 M1096.432,342.696v13.662
	 M1037.01,357.037v12.979 M1037.01,342.696v13.662 M1037.01,328.354v13.656 M1034.958,326.987h63.522v0.678 M1098.481,314.009
	h-63.522v0.684 M1098.481,326.987h-63.522v0.678 M1098.481,328.354h-63.522v0.68 M1096.432,314.009v13.656 M1037.01,314.009v13.656
	 M1096.432,271.657h-61.474v0.689 M1096.432,271.657v13.663 M1034.958,284.637h63.522v0.685 M1037.01,271.657v13.663
	 M1034.958,270.291h63.522v0.688 M1096.432,218.384v10.245 M1034.958,227.945h63.522v0.684 M1098.481,271.657v-53.956v0.684
	 M1098.481,241.608h-63.522v0.677 M1098.481,271.657v-53.956v0.684 M1098.481,242.975h-63.522v0.678 M1098.481,217.701v54.646
	 M1098.481,257.315h-63.522V258 M1098.481,270.291h-63.522v0.688 M1098.481,271.657h-63.522v0.689 M1096.432,257.315v13.664
	 M1096.432,242.975v13.657 M1096.432,229.313v12.972 M1037.01,257.315v13.664 M1034.958,271.657v-53.956v0.684 M1034.958,217.701
	v54.646 M1034.958,271.657v-53.956v0.684 M1037.01,242.975v13.657 M1037.01,229.313v12.972 M1037.01,218.384v10.245
	 M1098.481,380.261h-63.522v0.684 M1098.481,380.944h-63.522v0.684 M1096.432,218.384h-61.474v0.678 M1098.481,217.701v163.927
	 M521.312,378.892h-206.96v0.691 M314.353,305.809v196.718 M521.312,202.676h-206.96v0.678 M314.353,62.65v230.865 M511.069,176.034
	h1139.989v0.683 M511.069,9.371v284.142 M511.069,423.294h1139.989v0.68 M511.069,305.809v284.826 M1651.059,292.835V9.371v0.689
	 M1651.059,589.956V305.809v0.689 M1098.481,305.809v0.689 M1098.481,299.66v0.69 M1098.481,292.835v0.68 M1034.958,217.701h63.522
	v0.684 M1034.958,380.944h63.522v0.684 M1034.958,380.944V217.701v0.684 M1106.676,363.868h516.378v0.685 M1106.676,387.774h516.378
	v0.687 M1170.881,412.366v-73.771v0.688 M1235.772,412.366v-73.771v0.688 M1299.979,412.366v-73.771v0.688 M1364.863,412.366
	v-73.771v0.688 M1429.071,412.366v-73.771v0.688 M1558.163,412.366v-73.771v0.688 M1235.772,412.366v-73.771v0.688
	 M1364.863,412.366v-73.771v0.688 M1493.957,412.366v-73.771v0.688 M1106.676,338.595h516.378v0.688 M1106.676,412.366v-73.771
	v0.688 M1106.676,412.366h516.378v0.68 M1623.054,412.366v-73.771v0.688 M1631.931,522.334h2.735v0.681 M1627.836,522.334h3.411
	v0.681 M1623.738,522.334h2.728v0.681 M1618.951,522.334h3.419v0.681 M1614.854,522.334h3.419v0.681 M1610.759,522.334h2.728v0.681
	 M1605.977,522.334h3.412v0.681 M1601.877,522.334h2.733v0.681 M1597.096,522.334h3.419v0.681 M1592.999,522.334h3.412v0.681
	 M1588.901,522.334h2.729v0.681 M1584.123,522.334h3.409v0.681 M1580.02,522.334h3.419v0.681 M1575.238,522.334h3.418v0.681
	 M1571.144,522.334h3.412v0.681 M1567.046,522.334h2.729v0.681 M1562.261,522.334h3.419v0.681 M1558.163,522.334h3.417v0.681
	 M1554.066,522.334h2.729v0.681 M1549.287,522.334h3.411v0.681 M1545.185,522.334h3.416v0.681 M1540.405,522.334h3.417v0.681
	 M1536.308,522.334h3.413v0.681 M1532.209,522.334h2.731v0.681 M1527.43,522.334h3.411v0.681 M1523.328,522.334h3.416v0.681
	 M1519.231,522.334h2.734v0.681 M1514.45,522.334h3.413v0.681 M1510.354,522.334h3.414v0.681 M1505.568,522.334h3.417v0.681
	 M1501.471,522.334h3.42v0.681 M1497.375,522.334h2.729v0.681 M1492.595,522.334h3.411v0.681 M1488.492,522.334h3.419v0.681
	 M1484.396,522.334h2.732v0.681 M1479.615,522.334h3.414v0.681 M1475.519,522.334h3.413v0.681 M1470.737,522.334h3.414v0.681
	 M1466.636,522.334h3.418v0.681 M1462.539,522.334h2.73v0.681 M1457.76,522.334h3.412v0.681 M1453.662,522.334h3.411v0.681
	 M1449.559,522.334h2.737v0.681 M1444.778,522.334h3.413v0.681 M1440.683,522.334h3.414v0.681 M1435.902,522.334h3.411v0.681
	 M1431.801,522.334h3.418v0.681 M1427.705,522.334h2.732v0.681 M1422.923,522.334h3.413v0.681 M1418.827,522.334h3.412v0.681
	 M1414.725,522.334h2.733v0.681 M1409.943,522.334h3.419v0.681 M1405.848,522.334h3.411v0.681 M1401.067,522.334h3.413v0.681
	 M1396.965,522.334h3.419v0.681 M1392.869,522.334h2.733v0.681 M1388.087,522.334h3.414v0.681 M1383.991,522.334h3.412v0.681
	 M1379.89,522.334h2.735v0.681 M1375.109,522.334h3.416v0.681 M1371.014,522.334h2.733v0.681 M1366.232,522.334h3.411v0.681
	 M1362.134,522.334h3.413v0.681 M1358.032,522.334h2.737v0.681 M1353.253,522.334h3.415v0.681 M1349.154,522.334h3.414v0.681
	 M1344.376,522.334h3.41v0.681 M1340.274,522.334h3.417v0.681 M1336.175,522.334h2.734v0.681 M1331.396,522.334h3.412v0.681
	 M1327.301,522.334h3.411v0.681 M1323.197,522.334h2.735v0.681 M1318.416,522.334h3.419v0.681 M1314.321,522.334h3.41v0.681
	 M1309.54,522.334h3.413v0.681 M1305.442,522.334h3.413v0.681 M1301.342,522.334h2.733v0.681 M1296.559,522.334h3.419v0.681
	 M1292.464,522.334h3.413v0.681 M1288.366,522.334h2.729v0.681 M1283.581,522.334h3.417v0.681 M1279.484,522.334h3.419v0.681
	 M1274.705,522.334h3.41v0.681 M1270.607,522.334h3.414v0.681 M1266.505,522.334h2.734v0.681 M1261.726,522.334h3.418v0.681
	 M1257.628,522.334h3.412v0.681 M1253.531,522.334h2.73v0.681 M1248.752,522.334h3.412v0.681 M1244.649,522.334h3.417v0.681
	 M1239.87,522.334h3.412v0.681 M1235.772,522.334h3.412v0.681 M1231.676,522.334h2.729v0.681 M1226.889,522.334h3.419v0.681
	 M1222.793,522.334h3.412v0.681 M1218.696,522.334h2.729v0.681 M1213.915,522.334h3.412v0.681 M1209.813,522.334h3.42v0.681
	 M1205.033,522.334h3.417v0.681 M1200.937,522.334h3.414v0.681 M1196.84,522.334h2.727v0.681 M1192.054,522.334h3.42v0.681
	 M1187.957,522.334h3.419v0.681 M1183.86,522.334h2.727v0.681 M1179.08,522.334h3.414v0.681 M1174.979,522.334h3.416v0.681
	 M1170.196,522.334h3.419v0.681 M1166.102,522.334h3.41v0.681 M1162.005,522.334h2.729v0.681 M1157.225,522.334h3.411v0.681
	 M1153.122,522.334h3.419v0.681 M1149.025,522.334h2.734v0.681 M1144.244,522.334h3.413v0.681 M1140.148,522.334h2.728v0.681
	 M1135.362,522.334h3.416v0.681 M1131.267,522.334h3.417v0.681 M1127.169,522.334h2.728v0.681 M1122.388,522.334h3.413v0.681
	 M1118.285,522.334h3.421v0.681 M1114.189,522.334h2.733v0.681 M1109.409,522.334h3.413v0.681 M1105.313,522.334h2.727v0.681
	 M1100.533,522.334h3.412v0.681 M1096.432,522.334h3.416v0.681 M1092.332,522.334h2.737v0.681 M1087.553,522.334h3.413v0.681
	 M1083.456,522.334h3.413v0.681 M1078.671,522.334h3.417v0.681 M1074.574,522.334h3.416v0.681 M1070.479,522.334h2.728v0.681
	 M1065.697,522.334h3.411v0.681 M1061.595,522.334h3.419v0.681 M1057.498,522.334h2.734v0.681 M1052.717,522.334h3.414v0.681
	 M1048.621,522.334h3.412v0.681 M1043.841,522.334h3.413v0.681 M1039.739,522.334h3.418v0.681 M1035.642,522.334h2.727v0.681
	 M1030.86,522.334h3.414v0.681 M1026.766,522.334h3.411v0.681 M1022.662,522.334h2.734v0.681 M1017.882,522.334h3.413v0.681
	 M1013.786,522.334h3.412v0.681 M1009.005,522.334h3.412v0.681 M1004.902,522.334h3.417v0.681 M1000.805,522.334h2.73v0.681
	 M998.071,522.334h1.368v0.681 M1634.666,522.334v0.681 M998.071,522.334v0.681 M1634.666,76.997v-0.684V76.997 M1634.666,81.776
	v-3.414v0.68 M1634.666,85.875v-3.419v0.688 M1634.666,90.654V87.24v0.686 M1634.666,94.75v-3.413v0.684 M1634.666,98.852v-2.734
	v0.684 M1634.666,103.633v-3.413v0.678 M1634.666,107.729v-3.413v0.684 M1634.666,111.826v-2.728v0.684 M1634.666,116.607v-3.413
	v0.684 M1634.666,120.709v-3.414v0.678 M1634.666,125.49v-3.412v0.679 M1634.666,129.591v-3.417v0.683 M1634.666,133.684v-2.729
	v0.684 M1634.666,138.468v-3.418v0.689 M1634.666,142.565v-3.412v0.678 M1634.666,146.668v-2.735v0.684 M1634.666,151.448v-3.419
	v0.684 M1634.666,155.544v-3.419v0.69 M1634.666,160.325v-3.419v0.688 M1634.666,164.422v-3.414v0.684 M1634.666,168.523v-2.734
	v0.683 M1634.666,173.304v-3.414v0.68 M1634.666,177.4v-3.418v0.688 M1634.666,181.496v-2.729v0.685 M1634.666,186.278v-3.413v0.684
	 M1634.666,190.38v-3.413v0.678 M1634.666,195.161v-3.413v0.677 M1634.666,199.258v-3.413v0.684 M1634.666,203.354v-2.729v0.683
	 M1634.666,208.134v-3.413v0.684 M1634.666,212.235v-3.411v0.678 M1634.666,216.333v-2.729v0.68 M1634.666,221.119v-3.418v0.684
	 M1634.666,225.21v-2.73v0.686 M1634.666,229.997v-3.418v0.684 M1634.666,234.093v-3.413v0.677 M1634.666,238.195v-2.735v0.678
	 M1634.666,242.975v-3.417v0.684 M1634.666,247.071v-3.417v0.684 M1634.666,251.169v-2.735v0.69 M1634.666,255.948v-3.413v0.68
	 M1634.666,260.052v-2.734v0.684 M1634.666,264.832v-3.417v0.683 M1634.666,268.928v-3.419v0.689 M1634.666,273.024v-2.734v0.688
	 M1634.666,277.805v-3.412v0.684 M1634.666,281.907v-3.418v0.684 M1634.666,286.687v-3.412v0.678 M1634.666,290.784v-3.417v0.688
	 M1634.666,294.881v-2.729v0.684 M1634.666,299.66v-3.411v0.684 M1634.666,303.763v-3.412v0.68 M1634.666,307.86v-2.729v0.678
	 M1634.666,312.641v-3.412v0.684 M1634.666,316.737v-3.413v0.685 M1634.666,321.518v-3.412v0.686 M1634.666,325.62v-3.414v0.679
	 M1634.666,329.717v-2.729v0.678 M1634.666,334.504v-3.419v0.684 M1634.666,338.595v-3.413v0.686 M1634.666,342.696v-2.735v0.688
	 M1634.666,347.477v-3.413v0.679 M1634.666,351.578v-3.418v0.685 M1634.666,356.359v-3.42v0.685 M1634.666,360.456v-3.419v0.689
	 M1634.666,364.553v-2.736v0.689 M1634.666,369.333v-3.413v0.686 M1634.666,373.435v-3.419v0.685 M1634.666,377.531v-2.729v0.679
	 M1634.666,382.312v-3.421v0.691 M1634.666,386.407v-3.412v0.685 M1634.666,391.188v-3.413v0.687 M1634.666,395.291v-3.411v0.675
	 M1634.666,399.389v-2.73v0.679 M1634.666,404.168v-3.412v0.685 M1634.666,408.267v-3.413v0.683 M1634.666,412.366v-2.735v0.686
	 M1634.666,417.148v-3.414v0.679 M1634.666,421.244v-3.412v0.682 M1634.666,426.03v-3.419v0.683 M1634.666,430.122v-3.413v0.683
	 M1634.666,434.225v-2.735v0.682 M1634.666,439.004v-3.414v0.679 M1634.666,443.104v-3.417v0.684 M1634.666,447.196v-2.729v0.686
	 M1634.666,451.982v-3.418v0.684 M1634.666,456.08v-3.412v0.677 M1634.666,460.86v-3.414v0.68 M1634.666,464.963v-3.417v0.682
	 M1634.666,469.058v-2.733v0.682 M1634.666,473.841v-3.419v0.689 M1634.666,477.934v-3.41v0.68 M1634.666,482.036v-2.734v0.684
	 M1634.666,486.817v-3.416v0.685 M1634.666,490.915v-2.729v0.679 M1634.666,495.699v-3.421v0.691 M1634.666,499.792v-3.414v0.685
	 M1634.666,503.897v-2.735v0.682 M1634.666,508.676v-3.413v0.678 M1634.666,512.769v-3.416v0.691 M1634.666,517.55v-3.41v0.686
	 M1634.666,521.646v-3.41v0.682 M1634.666,76.313v0.684 M1634.666,522.334v0.681 M1641.499,72.894v-3.413v0.684 M1641.499,76.997
	v-2.735v0.684 M1641.499,81.776v-3.414v0.68 M1641.499,85.875v-3.419v0.688 M1641.499,90.654V87.24v0.686 M1641.499,94.75v-3.413
	v0.684 M1641.499,98.852v-2.734v0.684 M1641.499,103.633v-3.413v0.678 M1641.499,107.729v-3.413v0.684 M1641.499,111.826v-2.728
	v0.684 M1641.499,116.607v-3.413v0.684 M1641.499,120.709v-3.414v0.678 M1641.499,125.49v-3.412v0.679 M1641.499,129.591v-3.417
	v0.683 M1641.499,133.684v-2.729v0.684 M1641.499,138.468v-3.418v0.689 M1641.499,142.565v-3.412v0.678 M1641.499,146.668v-2.735
	v0.684 M1641.499,151.448v-3.419v0.684 M1641.499,155.544v-3.419v0.69 M1641.499,160.325v-3.419v0.688 M1641.499,164.422v-3.414
	v0.684 M1641.499,168.523v-2.734v0.683 M1641.499,173.304v-3.414v0.68 M1641.499,177.4v-3.418v0.688 M1641.499,181.496v-2.729v0.685
	 M1641.499,186.278v-3.413v0.684 M1641.499,190.38v-3.413v0.678 M1641.499,195.161v-3.413v0.677 M1641.499,199.258v-3.413v0.684
	 M1641.499,203.354v-2.729v0.683 M1641.499,208.134v-3.413v0.684 M1641.499,212.235v-3.411v0.678 M1641.499,216.333v-2.729v0.68
	 M1641.499,221.119v-3.418v0.684 M1641.499,225.21v-2.73v0.686 M1641.499,229.997v-3.418v0.684 M1641.499,234.093v-3.413v0.677
	 M1641.499,238.195v-2.735v0.678 M1641.499,242.975v-3.417v0.684 M1641.499,247.071v-3.417v0.684 M1641.499,251.169v-2.735v0.69
	 M1641.499,255.948v-3.413v0.68 M1641.499,260.052v-2.734v0.684 M1641.499,264.832v-3.417v0.683 M1641.499,268.928v-3.419v0.689
	 M1641.499,273.024v-2.734v0.688 M1641.499,277.805v-3.412v0.684 M1641.499,281.907v-3.418v0.684 M1641.499,286.687v-3.412v0.678
	 M1641.499,290.784v-3.417v0.688 M1641.499,294.881v-2.729v0.684 M1641.499,299.66v-3.411v0.684 M1641.499,303.763v-3.412v0.68
	 M1641.499,307.86v-2.729v0.678 M1641.499,312.641v-3.412v0.684 M1641.499,316.737v-3.413v0.685 M1641.499,321.518v-3.412v0.686
	 M1641.499,325.62v-3.414v0.679 M1641.499,329.717v-2.729v0.678 M1641.499,334.504v-3.419v0.684 M1641.499,338.595v-3.413v0.686
	 M1641.499,342.696v-2.735v0.688 M1641.499,347.477v-3.413v0.679 M1641.499,351.578v-3.418v0.685 M1641.499,356.359v-3.42v0.685
	 M1641.499,360.456v-3.419v0.689 M1641.499,364.553v-2.736v0.689 M1641.499,369.333v-3.413v0.686 M1641.499,373.435v-3.419v0.685
	 M1641.499,377.531v-2.729v0.679 M1641.499,382.312v-3.421v0.691 M1641.499,386.407v-3.412v0.685 M1641.499,391.188v-3.413v0.687
	 M1641.499,395.291v-3.411v0.675 M1641.499,399.389v-2.73v0.679 M1641.499,404.168v-3.412v0.685 M1641.499,408.267v-3.413v0.683
	 M1641.499,412.366v-2.735v0.686 M1641.499,417.148v-3.414v0.679 M1641.499,421.244v-3.412v0.682 M1641.499,426.03v-3.419v0.683
	 M1641.499,430.122v-3.413v0.683 M1641.499,434.225v-2.735v0.682 M1641.499,439.004v-3.414v0.679 M1641.499,443.104v-3.417v0.684
	 M1641.499,447.196v-2.729v0.686 M1641.499,451.982v-3.418v0.684 M1641.499,456.08v-3.412v0.677 M1641.499,460.86v-3.414v0.68
	 M1641.499,464.963v-3.417v0.682 M1641.499,469.058v-2.733v0.682 M1641.499,473.841v-3.419v0.689 M1641.499,477.934v-3.41v0.68
	 M1641.499,482.036v-2.734v0.684 M1641.499,486.817v-3.416v0.685 M1641.499,490.915v-2.729v0.679 M1641.499,495.699v-3.421v0.691
	 M1641.499,499.792v-3.414v0.685 M1641.499,503.897v-2.735v0.682 M1641.499,508.676v-3.413v0.678 M1641.499,512.769v-3.416v0.691
	 M1641.499,517.55v-3.41v0.686 M1641.499,521.646v-3.41v0.682 M1641.499,525.753v-2.735v0.682 M1641.499,529.846v-2.729v0.68
	 M1641.499,69.481v0.684 M1641.499,529.846v0.686 M1008.321,529.846h-3.417v0.686 M1012.417,529.846h-3.412v0.686 M1017.197,529.846
	h-3.411v0.686 M1021.295,529.846h-3.413v0.686 M1025.396,529.846h-2.734v0.686 M1030.178,529.846h-3.411v0.686 M1034.274,529.846
	h-3.414v0.686 M1038.369,529.846h-2.727v0.686 M1043.157,529.846h-3.418v0.686 M1047.254,529.846h-3.413v0.686 M1052.033,529.846
	h-3.412v0.686 M1056.131,529.846h-3.414v0.686 M1060.232,529.846h-2.734v0.686 M1065.014,529.846h-3.419v0.686 M1069.11,529.846
	h-3.412v0.686 M1073.206,529.846h-2.728v0.686 M1077.992,529.846h-3.416v0.686 M1082.088,529.846h-3.417v0.686 M1086.867,529.846
	h-3.411v0.686 M1090.967,529.846h-3.411v0.686 M1095.069,529.846h-2.737v0.686 M1099.849,529.846h-3.416v0.686 M1103.945,529.846
	h-3.412v0.686 M1108.041,529.846h-2.727v0.686 M1112.822,529.846h-3.413v0.686 M1116.923,529.846h-2.733v0.686 M1121.706,529.846
	h-3.421v0.686 M1125.801,529.846h-3.413v0.686 M1129.898,529.846h-2.729v0.686 M1134.684,529.846h-3.417v0.686 M1138.78,529.846
	h-3.416v0.686 M1142.876,529.846h-2.728v0.686 M1147.659,529.846h-3.413v0.686 M1151.76,529.846h-2.734v0.686 M1156.541,529.846
	h-3.419v0.686 M1160.637,529.846h-3.41v0.686 M1164.733,529.846h-2.729v0.686 M1169.513,529.846h-3.411v0.686 M1173.615,529.846
	h-3.419v0.686 M1178.396,529.846h-3.416v0.686 M1182.494,529.846h-3.414v0.686 M1186.59,529.846h-2.728v0.686 M1191.376,529.846
	h-3.419v0.686 M1195.474,529.846h-3.42v0.686 M1199.568,529.846h-2.727v0.686 M1204.351,529.846h-3.414v0.686 M1208.452,529.846
	h-3.418v0.686 M1213.233,529.846h-3.42v0.686 M1217.329,529.846h-3.412v0.686 M1221.426,529.846h-2.729v0.686 M1226.204,529.846
	h-3.411v0.686 M1230.308,529.846h-3.419v0.686 M1234.405,529.846h-2.729v0.686 M1239.187,529.846h-3.413v0.686 M1243.282,529.846
	h-3.412v0.686 M1248.068,529.846h-3.417v0.686 M1252.164,529.846h-3.412v0.686 M1256.262,529.846h-2.73v0.686 M1261.04,529.846
	h-3.412v0.686 M1265.144,529.846h-3.418v0.686 M1269.24,529.846h-2.733v0.686 M1274.021,529.846h-3.414v0.686 M1278.116,529.846
	h-3.41v0.686 M1282.903,529.846h-3.419v0.686 M1286.998,529.846h-3.417v0.686 M1291.096,529.846h-2.729v0.686 M1295.877,529.846
	h-3.413v0.686 M1299.979,529.846h-3.418v0.686 M1304.075,529.846h-2.733v0.686 M1308.856,529.846h-3.413v0.686 M1312.953,529.846
	h-3.413v0.686 M1317.732,529.846h-3.41v0.686 M1321.835,529.846h-3.419v0.686 M1325.933,529.846h-2.735v0.686 M1330.712,529.846
	h-3.411v0.686 M1334.809,529.846h-3.412v0.686 M1338.91,529.846h-2.732v0.686 M1343.691,529.846h-3.417v0.686 M1347.788,529.846
	h-3.41v0.686 M1352.568,529.846h-3.414v0.686 M1356.668,529.846h-3.415v0.686 M1360.77,529.846h-2.737v0.686 M1365.547,529.846
	h-3.413v0.686 M1369.646,529.846h-3.411v0.686 M1373.747,529.846h-2.733v0.686 M1378.527,529.846h-3.416v0.686 M1382.625,529.846
	h-2.735v0.686 M1387.404,529.846h-3.411v0.686 M1391.501,529.846h-3.414v0.686 M1395.603,529.846h-2.733v0.686 M1400.384,529.846
	h-3.419v0.686 M1404.48,529.846h-3.413v0.686 M1409.26,529.846h-3.41v0.686 M1413.362,529.846h-3.419v0.686 M1417.46,529.846h-2.735
	v0.686 M1422.239,529.846h-3.412v0.686 M1426.336,529.846h-3.411v0.686 M1430.438,529.846h-2.732v0.686 M1435.219,529.846h-3.418
	v0.686 M1439.315,529.846h-3.411v0.686 M1444.097,529.846h-3.414v0.686 M1448.192,529.846h-3.412v0.686 M1452.296,529.846h-2.737
	v0.686 M1457.074,529.846h-3.411v0.686 M1461.172,529.846h-3.412v0.686 M1465.27,529.846h-2.73v0.686 M1470.054,529.846h-3.418
	v0.686 M1474.151,529.846h-3.414v0.686 M1478.933,529.846h-3.412v0.686 M1483.029,529.846h-3.414v0.686 M1487.131,529.846h-2.732
	v0.686 M1491.911,529.846h-3.419v0.686 M1496.006,529.846h-3.411v0.686 M1500.104,529.846h-2.729v0.686 M1504.891,529.846h-3.42
	v0.686 M1508.987,529.846h-3.419v0.686 M1513.768,529.846h-3.414v0.686 M1517.863,529.846h-3.412v0.686 M1521.966,529.846h-2.734
	v0.686 M1526.748,529.846h-3.419v0.686 M1530.841,529.846h-3.411v0.686 M1534.94,529.846h-2.731v0.686 M1539.721,529.846h-3.413
	v0.686 M1543.822,529.846h-3.417v0.686 M1548.603,529.846h-3.418v0.686 M1552.698,529.846h-3.411v0.686 M1556.796,529.846h-2.728
	v0.686 M1561.58,529.846h-3.417v0.686 M1565.678,529.846h-3.417v0.686 M1569.775,529.846h-2.729v0.686 M1574.556,529.846h-3.412
	v0.686 M1578.657,529.846h-3.417v0.686 M1583.438,529.846h-3.419v0.686 M1587.533,529.846h-3.408v0.686 M1591.631,529.846h-2.729
	v0.686 M1596.414,529.846h-3.413v0.686 M1600.515,529.846h-3.419v0.686 M1604.61,529.846h-2.733v0.686 M1609.391,529.846h-3.41
	v0.686 M1613.486,529.846h-2.728v0.686 M1618.273,529.846h-3.42v0.686 M1622.37,529.846h-3.419v0.686 M1626.468,529.846h-2.729
	v0.686 M1631.247,529.846h-3.411v0.686 M1635.35,529.846h-3.419v0.686 M1639.446,529.846h-2.733v0.686 M1641.499,529.846h-0.685
	v0.686 M1004.902,529.846v0.686 M1641.499,529.846v0.686 M511.069,589.956h1139.989v0.679 M1034.958,292.835H331.426v0.68
	 M1034.958,305.809H331.426v0.689 M332.794,299.66h-1.368v0.69 M337.575,299.66h-3.413v0.69 M341.678,299.66h-3.419v0.69
	 M345.773,299.66h-2.735v0.69 M350.555,299.66h-3.414v0.69 M354.651,299.66h-3.413v0.69 M359.437,299.66h-3.419v0.69
	 M363.533,299.66h-3.417v0.69 M367.63,299.66h-2.729v0.69 M372.41,299.66h-3.413v0.69 M376.512,299.66h-3.418v0.69 M380.609,299.66
	h-2.734v0.69 M385.39,299.66h-3.414v0.69 M389.486,299.66h-3.413v0.69 M394.268,299.66h-3.413v0.69 M398.368,299.66h-3.418v0.69
	 M402.465,299.66h-2.734v0.69 M407.245,299.66h-3.413v0.69 M411.341,299.66h-3.41v0.69 M415.446,299.66h-2.735v0.69 M420.226,299.66
	h-3.418v0.69 M424.322,299.66h-2.729v0.69 M429.103,299.66h-3.412v0.69 M433.204,299.66h-3.418v0.69 M437.3,299.66h-2.733v0.69
	 M442.081,299.66h-3.412v0.69 M446.178,299.66h-3.412v0.69 M450.964,299.66h-3.419v0.69 M455.061,299.66h-3.417v0.69
	 M459.158,299.66h-2.729v0.69 M463.937,299.66h-3.413v0.69 M468.04,299.66h-3.419v0.69 M472.137,299.66h-2.735v0.69 M476.918,299.66
	h-3.413v0.69 M481.013,299.66h-3.41v0.69 M485.796,299.66h-3.413v0.69 M489.896,299.66h-3.418v0.69 M493.994,299.66h-2.735v0.69
	 M498.772,299.66h-3.412v0.69 M502.87,299.66h-3.414v0.69 M506.974,299.66h-2.735v0.69 M511.752,299.66h-3.42v0.69 M515.85,299.66
	h-3.414v0.69 M520.629,299.66h-3.411v0.69 M524.732,299.66h-3.42v0.69 M528.829,299.66h-2.735v0.69 M533.608,299.66h-3.414v0.69
	 M537.706,299.66h-3.414v0.69 M541.801,299.66h-2.73v0.69 M546.588,299.66h-3.42v0.69 M550.685,299.66h-3.413v0.69 M555.466,299.66
	h-3.414v0.69 M559.562,299.66h-3.412v0.69 M563.664,299.66h-2.736v0.69 M568.442,299.66h-3.417v0.69 M572.54,299.66h-3.414v0.69
	 M576.638,299.66h-2.729v0.69 M581.425,299.66h-3.419v0.69 M585.521,299.66h-3.418v0.69 M590.301,299.66h-3.413v0.69
	 M594.398,299.66h-3.414v0.69 M598.499,299.66h-2.735v0.69 M603.28,299.66h-3.419v0.69 M607.376,299.66h-3.412v0.69 M611.473,299.66
	h-2.729v0.69 M616.254,299.66h-3.414v0.69 M620.354,299.66h-3.416v0.69 M625.137,299.66h-3.414v0.69 M629.231,299.66h-3.411v0.69
	 M633.329,299.66h-2.729v0.69 M638.115,299.66h-3.418v0.69 M642.212,299.66h-3.41v0.69 M646.309,299.66h-2.729v0.69 M651.09,299.66
	h-3.412v0.69 M655.191,299.66h-2.733v0.69 M659.972,299.66h-3.416v0.69 M664.067,299.66h-3.411v0.69 M668.165,299.66h-2.729v0.69
	 M672.951,299.66h-3.419v0.69 M677.047,299.66h-3.417v0.69 M681.145,299.66h-2.733v0.69 M685.925,299.66h-3.412v0.69
	 M690.026,299.66h-2.732v0.69 M694.807,299.66h-3.418v0.69 M698.904,299.66h-3.418v0.69 M703,299.66h-2.729v0.69 M707.781,299.66
	h-3.414v0.69 M711.884,299.66h-3.42v0.69 M716.663,299.66h-3.417v0.69 M720.76,299.66h-3.41v0.69 M724.857,299.66h-2.729v0.69
	 M729.637,299.66h-3.411v0.69 M733.74,299.66h-3.42v0.69 M737.835,299.66h-2.729v0.69 M742.616,299.66h-3.412v0.69 M746.713,299.66
	H743.3v0.69 M751.498,299.66h-3.418v0.69 M755.595,299.66h-3.413v0.69 M759.693,299.66h-2.728v0.69 M764.472,299.66h-3.414v0.69
	 M768.577,299.66h-3.418v0.69 M772.672,299.66h-2.735v0.69 M777.452,299.66h-3.413v0.69 M781.548,299.66h-3.411v0.69
	 M786.334,299.66h-3.417v0.69 M790.432,299.66h-3.42v0.69 M794.529,299.66h-2.73v0.69 M799.309,299.66h-3.412v0.69 M803.411,299.66
	h-3.419v0.69 M807.506,299.66h-2.733v0.69 M812.287,299.66h-3.413v0.69 M816.385,299.66h-3.414v0.69 M821.166,299.66h-3.413v0.69
	 M825.268,299.66h-3.42v0.69 M829.363,299.66h-2.729v0.69 M834.144,299.66h-3.412v0.69 M838.239,299.66h-3.412v0.69 M842.341,299.66
	h-2.733v0.69 M847.121,299.66h-3.41v0.69 M851.22,299.66h-3.411v0.69 M855.999,299.66h-3.412v0.69 M860.102,299.66h-3.416v0.69
	 M864.199,299.66h-2.735v0.69 M868.978,299.66h-3.41v0.69 M873.075,299.66h-3.413v0.69 M877.178,299.66h-2.734v0.69 M881.957,299.66
	h-3.417v0.69 M886.055,299.66h-2.735v0.69 M890.835,299.66h-3.41v0.69 M894.938,299.66h-3.419v0.69 M899.034,299.66h-2.733v0.69
	 M903.814,299.66h-3.419v0.69 M907.914,299.66h-3.413v0.69 M912.014,299.66h-2.735v0.69 M916.794,299.66h-3.418v0.69
	 M920.891,299.66h-2.734v0.69 M925.672,299.66h-3.412v0.69 M929.766,299.66h-3.409v0.69 M933.87,299.66h-2.734v0.69 M938.649,299.66
	h-3.416v0.69 M942.747,299.66h-3.414v0.69 M947.527,299.66h-3.412v0.69 M951.625,299.66h-3.414v0.69 M955.727,299.66h-2.735v0.69
	 M960.505,299.66h-3.411v0.69 M964.603,299.66h-3.412v0.69 M968.7,299.66h-2.728v0.69 M973.486,299.66h-3.419v0.69 M977.584,299.66
	h-3.414v0.69 M982.363,299.66h-3.412v0.69 M986.46,299.66h-3.413v0.69 M990.562,299.66h-2.735v0.69 M995.342,299.66h-3.419v0.69
	 M999.439,299.66h-3.413v0.69 M1003.535,299.66h-2.73v0.69 M1008.321,299.66h-3.417v0.69 M1012.417,299.66h-3.412v0.69
	 M1017.197,299.66h-3.411v0.69 M1021.295,299.66h-3.413v0.69 M1025.396,299.66h-2.734v0.69 M1030.178,299.66h-3.411v0.69
	 M1034.274,299.66h-3.414v0.69 M331.426,299.66v0.69 M1034.958,299.66v0.69 M1099.849,299.66h-1.367v0.69 M1103.945,299.66h-3.412
	v0.69 M1108.041,299.66h-2.727v0.69 M1112.822,299.66h-3.413v0.69 M1116.923,299.66h-2.733v0.69 M1121.706,299.66h-3.421v0.69
	 M1125.801,299.66h-3.413v0.69 M1129.898,299.66h-2.729v0.69 M1134.684,299.66h-3.417v0.69 M1138.78,299.66h-3.416v0.69
	 M1142.876,299.66h-2.728v0.69 M1147.659,299.66h-3.413v0.69 M1151.76,299.66h-2.734v0.69 M1156.541,299.66h-3.419v0.69
	 M1160.637,299.66h-3.41v0.69 M1164.733,299.66h-2.729v0.69 M1169.513,299.66h-3.411v0.69 M1173.615,299.66h-3.419v0.69
	 M1178.396,299.66h-3.416v0.69 M1182.494,299.66h-3.414v0.69 M1186.59,299.66h-2.728v0.69 M1191.376,299.66h-3.419v0.69
	 M1195.474,299.66h-3.42v0.69 M1199.568,299.66h-2.727v0.69 M1204.351,299.66h-3.414v0.69 M1208.452,299.66h-3.418v0.69
	 M1213.233,299.66h-3.42v0.69 M1217.329,299.66h-3.412v0.69 M1221.426,299.66h-2.729v0.69 M1226.204,299.66h-3.411v0.69
	 M1230.308,299.66h-3.419v0.69 M1234.405,299.66h-2.729v0.69 M1239.187,299.66h-3.413v0.69 M1243.282,299.66h-3.412v0.69
	 M1248.068,299.66h-3.417v0.69 M1252.164,299.66h-3.412v0.69 M1256.262,299.66h-2.73v0.69 M1261.04,299.66h-3.412v0.69
	 M1265.144,299.66h-3.418v0.69 M1269.24,299.66h-2.733v0.69 M1274.021,299.66h-3.414v0.69 M1278.116,299.66h-3.41v0.69
	 M1282.903,299.66h-3.419v0.69 M1286.998,299.66h-3.417v0.69 M1291.096,299.66h-2.729v0.69 M1295.877,299.66h-3.413v0.69
	 M1299.979,299.66h-3.418v0.69 M1304.075,299.66h-2.733v0.69 M1308.856,299.66h-3.413v0.69 M1312.953,299.66h-3.413v0.69
	 M1317.732,299.66h-3.41v0.69 M1321.835,299.66h-3.419v0.69 M1325.933,299.66h-2.735v0.69 M1330.712,299.66h-3.411v0.69
	 M1334.809,299.66h-3.412v0.69 M1338.91,299.66h-2.732v0.69 M1343.691,299.66h-3.417v0.69 M1347.788,299.66h-3.41v0.69
	 M1352.568,299.66h-3.414v0.69 M1356.668,299.66h-3.415v0.69 M1360.77,299.66h-2.737v0.69 M1365.547,299.66h-3.413v0.69
	 M1369.646,299.66h-3.411v0.69 M1373.747,299.66h-2.733v0.69 M1378.527,299.66h-3.416v0.69 M1382.625,299.66h-2.735v0.69
	 M1387.404,299.66h-3.411v0.69 M1391.501,299.66h-3.414v0.69 M1395.603,299.66h-2.733v0.69 M1400.384,299.66h-3.419v0.69
	 M1404.48,299.66h-3.413v0.69 M1409.26,299.66h-3.41v0.69 M1413.362,299.66h-3.419v0.69 M1417.46,299.66h-2.735v0.69
	 M1422.239,299.66h-3.412v0.69 M1426.336,299.66h-3.411v0.69 M1430.438,299.66h-2.732v0.69 M1435.219,299.66h-3.418v0.69
	 M1439.315,299.66h-3.411v0.69 M1444.097,299.66h-3.414v0.69 M1448.192,299.66h-3.412v0.69 M1452.296,299.66h-2.737v0.69
	 M1457.074,299.66h-3.411v0.69 M1461.172,299.66h-3.412v0.69 M1465.27,299.66h-2.73v0.69 M1470.054,299.66h-3.418v0.69
	 M1474.151,299.66h-3.414v0.69 M1478.933,299.66h-3.412v0.69 M1483.029,299.66h-3.414v0.69 M1487.131,299.66h-2.732v0.69
	 M1491.911,299.66h-3.419v0.69 M1496.006,299.66h-3.411v0.69 M1500.104,299.66h-2.729v0.69 M1504.891,299.66h-3.42v0.69
	 M1508.987,299.66h-3.419v0.69 M1513.768,299.66h-3.414v0.69 M1517.863,299.66h-3.412v0.69 M1521.966,299.66h-2.734v0.69
	 M1526.748,299.66h-3.419v0.69 M1530.841,299.66h-3.411v0.69 M1534.94,299.66h-2.731v0.69 M1539.721,299.66h-3.413v0.69
	 M1543.822,299.66h-3.417v0.69 M1548.603,299.66h-3.418v0.69 M1552.698,299.66h-3.411v0.69 M1556.796,299.66h-2.728v0.69
	 M1561.58,299.66h-3.417v0.69 M1565.678,299.66h-3.417v0.69 M1569.775,299.66h-2.729v0.69 M1574.556,299.66h-3.412v0.69
	 M1578.657,299.66h-3.417v0.69 M1583.438,299.66h-3.419v0.69 M1587.533,299.66h-3.408v0.69 M1591.631,299.66h-2.729v0.69
	 M1596.414,299.66h-3.413v0.69 M1600.515,299.66h-3.419v0.69 M1604.61,299.66h-2.733v0.69 M1609.391,299.66h-3.41v0.69
	 M1613.486,299.66h-2.728v0.69 M1618.273,299.66h-3.42v0.69 M1622.37,299.66h-3.419v0.69 M1626.468,299.66h-2.729v0.69
	 M1631.247,299.66h-3.411v0.69 M1634.666,299.66h-2.735v0.69 M1098.481,299.66v0.69 M1634.666,299.66v0.69 M314.353,292.835v-19.127
	v0.685 M314.353,324.937v-19.128v0.689 M324.601,474.523v3.41 M324.601,470.42v4.101 M324.601,466.324v3.418 M324.601,461.543v4.096
	 M324.601,457.446v4.097 M324.601,452.665v4.098 M324.601,448.564v4.101 M324.601,444.467v3.42 M324.601,439.688v4.098
	 M324.601,435.59v4.098 M324.601,431.489v3.418 M324.601,426.709v4.101 M324.601,422.611v4.097 M324.601,417.832v4.095
	 M324.601,413.734v4.096 M324.601,409.631v3.415 M324.601,404.854v4.101 M324.601,400.754v4.097 M324.601,396.658v3.412
	 M324.601,391.878v4.092 M324.601,387.774v4.104 M324.601,382.995v4.096 M324.601,378.892v4.104 M324.601,374.802v3.413
	 M324.601,370.017v4.098 M324.601,365.919v4.097 M324.601,361.816v3.42 M324.601,357.037v4.103 M324.601,352.939v4.097
	 M324.601,348.16v4.096 M324.601,344.063v4.097 M324.601,339.963v3.417 M324.601,335.18v4.102 M324.601,331.085v4.095
	 M324.601,326.987v3.413 M324.601,322.206v4.096 M324.601,318.104v4.102 M324.601,313.324v4.102 M324.601,309.229v4.096
	 M324.601,305.809v2.735 M324.601,477.258v0.676 M324.601,305.809v0.689 M324.601,292.151v1.361 M324.601,287.365v4.104
	 M324.601,283.274v4.091 M324.601,278.489v4.095 M324.601,274.393v4.097 M324.601,270.291v3.417 M324.601,265.511v4.103
	 M324.601,261.413v4.096 M324.601,257.315v3.415 M324.601,252.535v4.097 M324.601,248.434v3.419 M324.601,243.653v4.103
	 M324.601,239.558v4.095 M324.601,235.459v3.413 M324.601,230.681v4.096 M324.601,226.577v4.102 M324.601,222.48v3.419
	 M324.601,217.701v4.095 M324.601,213.603v3.413 M324.601,208.824v4.097 M324.601,204.721v4.103 M324.601,200.625v3.417
	 M324.601,195.845v4.097 M324.601,191.748v4.097 M324.601,186.967v4.091 M324.601,182.865v4.102 M324.601,178.767v3.413
	 M324.601,173.983v4.101 M324.601,169.891v4.093 M324.601,165.789v3.413 M324.601,161.009v4.097 M324.601,156.906v4.102
	 M324.601,152.125v4.104 M324.601,148.028v4.097 M324.601,143.933v3.413 M324.601,139.152v4.095 M324.601,135.051v4.103
	 M324.601,130.954v3.417 M324.601,126.174v4.095 M324.601,122.077v4.097 M324.601,117.295v4.097 M324.601,113.194v4.101
	 M324.601,109.097v3.417 M324.601,104.317v4.097 M324.601,100.221v4.096 M324.601,96.118v3.413 M324.601,91.338v4.101
	 M324.601,87.24v4.098 M324.601,292.835v0.68 M324.601,87.24v0.686 M331.426,462.91v6.832 M331.426,454.713v6.833 M331.426,446.519
	v6.826 M331.426,438.32v7.515 M331.426,430.122v7.515 M331.426,422.611v6.832 M331.426,414.413v6.831 M331.426,406.219v6.827
	 M331.426,398.021v7.516 M331.426,389.82v7.517 M331.426,382.312v6.83 M331.426,374.114v6.832 M331.426,365.919v6.825
	 M331.426,357.727v7.509 M331.426,349.528v7.509 M331.426,342.012v6.833 M331.426,333.814v6.836 M331.426,325.62v6.832
	 M331.426,317.426v7.511 M331.426,309.229v7.509 M331.426,305.809v2.735 M331.426,470.42v0.689 M331.426,305.809v0.689
	 M331.426,285.321v6.832 M331.426,277.127v6.826 M331.426,268.928v7.51 M331.426,260.73v7.514 M331.426,253.213v6.837
	 M331.426,245.021v6.833 M331.426,236.827v6.827 M331.426,228.629v7.508 M331.426,220.431v7.514 M331.426,212.92v6.833
	 M331.426,204.721v6.833 M331.426,196.529v6.826 M331.426,188.329v7.515 M331.426,180.131v7.514 M331.426,172.62v6.832
	 M331.426,164.422v6.832 M331.426,156.229v6.826 M331.426,148.028v7.516 M331.426,139.832v7.514 M331.426,131.638v7.516
	 M331.426,124.122v6.832 M331.426,115.93v6.826 M331.426,107.729v6.831 M331.426,99.531v7.514 M331.426,94.071v4.781
	 M331.426,292.835v0.68 M331.426,94.071v0.679 M521.312,292.151v1.361 M521.312,287.365v4.104 M521.312,283.274v4.091
	 M521.312,278.489v4.095 M521.312,274.393v4.097 M521.312,270.291v3.417 M521.312,265.511v4.103 M521.312,261.413v4.096
	 M521.312,257.315v3.415 M521.312,252.535v4.097 M521.312,248.434v3.419 M521.312,243.653v4.103 M521.312,239.558v4.095
	 M521.312,235.459v3.413 M521.312,230.681v4.096 M521.312,226.577v4.102 M521.312,222.48v3.419 M521.312,217.701v4.095
	 M521.312,213.603v3.413 M521.312,208.824v4.097 M521.312,204.721v4.103 M521.312,200.625v3.417 M521.312,195.845v4.097
	 M521.312,191.748v4.097 M521.312,186.967v4.091 M521.312,182.865v4.102 M521.312,178.767v3.413 M521.312,173.983v4.101
	 M521.312,169.891v4.093 M521.312,165.789v3.413 M521.312,161.009v4.097 M521.312,156.906v4.102 M521.312,152.125v4.104
	 M521.312,148.028v4.097 M521.312,143.933v3.413 M521.312,139.152v4.095 M521.312,135.051v4.103 M521.312,130.954v3.417
	 M521.312,126.174v4.095 M521.312,122.077v4.097 M521.312,117.295v4.097 M521.312,113.194v4.101 M521.312,109.097v3.417
	 M521.312,104.317v4.097 M521.312,100.221v4.096 M521.312,96.118v3.413 M521.312,94.071v1.368 M521.312,292.835v0.68
	 M521.312,94.071v0.679 M528.145,42.162v-1.368v0.684 M528.145,46.942v-3.418v0.688 M528.145,51.038v-3.414v0.68 M528.145,55.818
	v-3.412v0.682 M528.145,59.921v-3.419v0.685 M528.145,64.018v-2.729v0.677 M528.145,68.797v-3.419v0.69 M528.145,72.894v-3.413
	v0.684 M528.145,76.997v-2.735v0.684 M528.145,81.776v-3.414v0.68 M528.145,85.875v-3.419v0.688 M528.145,90.654V87.24v0.686
	 M528.145,94.75v-3.413v0.684 M528.145,98.852v-2.734v0.684 M528.145,103.633v-3.413v0.678 M528.145,107.729v-3.413v0.684
	 M528.145,111.826v-2.728v0.684 M528.145,116.607v-3.413v0.684 M528.145,120.709v-3.414v0.678 M528.145,125.49v-3.412v0.679
	 M528.145,129.591v-3.417v0.683 M528.145,133.684v-2.729v0.684 M528.145,138.468v-3.418v0.689 M528.145,142.565v-3.412v0.678
	 M528.145,146.668v-2.735v0.684 M528.145,151.448v-3.419v0.684 M528.145,155.544v-3.419v0.69 M528.145,160.325v-3.419v0.688
	 M528.145,164.422v-3.414v0.684 M528.145,168.523v-2.734v0.683 M528.145,173.304v-3.414v0.68 M528.145,177.4v-3.418v0.688
	 M528.145,181.496v-2.729v0.685 M528.145,186.278v-3.413v0.684 M528.145,190.38v-3.413v0.678 M528.145,195.161v-3.413v0.677
	 M528.145,199.258v-3.413v0.684 M528.145,203.354v-2.729v0.683 M528.145,208.134v-3.413v0.684 M528.145,212.235v-3.411v0.678
	 M528.145,216.333v-2.729v0.68 M528.145,221.119v-3.418v0.684 M528.145,225.21v-2.73v0.686 M528.145,229.997v-3.418v0.684
	 M528.145,234.093v-3.413v0.677 M528.145,238.195v-2.735v0.678 M528.145,242.975v-3.417v0.684 M528.145,247.071v-3.417v0.684
	 M528.145,251.169v-2.735v0.69 M528.145,255.948v-3.413v0.68 M528.145,260.052v-2.734v0.684 M528.145,264.832v-3.417v0.683
	 M528.145,268.928v-3.419v0.689 M528.145,273.024v-2.734v0.688 M528.145,277.805v-3.412v0.684 M528.145,281.907v-3.418v0.684
	 M528.145,286.687v-3.412v0.678 M528.145,290.784v-3.417v0.688 M528.145,292.835v-0.684V292.835 M528.145,40.794v0.684
	 M528.145,292.835v0.68 M528.145,307.86v-2.052v0.689 M528.145,312.641v-3.412v0.684 M528.145,316.737v-3.413v0.685
	 M528.145,321.518v-3.412v0.686 M528.145,325.62v-3.414v0.679 M528.145,329.717v-2.729v0.678 M528.145,334.504v-3.419v0.684
	 M528.145,338.595v-3.413v0.686 M528.145,342.696v-2.735v0.688 M528.145,347.477v-3.413v0.679 M528.145,351.578v-3.418v0.685
	 M528.145,356.359v-3.42v0.685 M528.145,360.456v-3.419v0.689 M528.145,364.553v-2.736v0.689 M528.145,369.333v-3.413v0.686
	 M528.145,373.435v-3.419v0.685 M528.145,377.531v-2.729v0.679 M528.145,382.312v-3.421v0.691 M528.145,386.407v-3.412v0.685
	 M528.145,391.188v-3.413v0.687 M528.145,395.291v-3.411v0.675 M528.145,399.389v-2.73v0.679 M528.145,404.168v-3.412v0.685
	 M528.145,408.267v-3.413v0.683 M528.145,412.366v-2.735v0.686 M528.145,417.148v-3.414v0.679 M528.145,421.244v-3.412v0.682
	 M528.145,426.03v-3.419v0.683 M528.145,430.122v-3.413v0.683 M528.145,434.225v-2.735v0.682 M528.145,439.004v-3.414v0.679
	 M528.145,443.104v-3.417v0.684 M528.145,447.196v-2.729v0.686 M528.145,451.982v-3.418v0.684 M528.145,456.08v-3.412v0.677
	 M528.145,460.86v-3.414v0.68 M528.145,464.963v-3.417v0.682 M528.145,469.058v-2.733v0.682 M528.145,473.841v-3.419v0.689
	 M528.145,477.934v-3.41v0.68 M528.145,482.036v-2.734v0.684 M528.145,486.817v-3.416v0.685 M528.145,490.915v-2.729v0.679
	 M528.145,495.699v-3.421v0.691 M528.145,499.792v-3.414v0.685 M528.145,503.897v-2.735v0.682 M528.145,508.676v-3.413v0.678
	 M528.145,512.769v-3.416v0.691 M528.145,517.55v-3.41v0.686 M528.145,521.646v-3.41v0.682 M528.145,525.753v-2.735v0.682
	 M528.145,530.531v-3.415v0.68 M528.145,534.627v-3.411v0.682 M528.145,538.724v-2.727v0.682 M528.145,543.505v-3.412v0.683
	 M528.145,547.606v-3.41v0.677 M528.145,552.386v-3.411v0.677 M528.145,556.49v-3.417v0.683 M528.145,557.85v0.686 M528.145,305.809
	v0.689 M528.145,557.85v0.686 M521.312,466.324v3.418 M521.312,461.543v4.096 M521.312,457.446v4.097 M521.312,452.665v4.098
	 M521.312,448.564v4.101 M521.312,444.467v3.42 M521.312,439.688v4.098 M521.312,435.59v4.098 M521.312,431.489v3.418
	 M521.312,426.709v4.101 M521.312,422.611v4.097 M521.312,417.832v4.095 M521.312,413.734v4.096 M521.312,409.631v3.415
	 M521.312,404.854v4.101 M521.312,400.754v4.097 M521.312,396.658v3.412 M521.312,391.878v4.092 M521.312,387.774v4.104
	 M521.312,382.995v4.096 M521.312,378.892v4.104 M521.312,374.802v3.413 M521.312,370.017v4.098 M521.312,365.919v4.097
	 M521.312,361.816v3.42 M521.312,357.037v4.103 M521.312,352.939v4.097 M521.312,348.16v4.096 M521.312,344.063v4.097
	 M521.312,339.963v3.417 M521.312,335.18v4.102 M521.312,331.085v4.095 M521.312,326.987v3.413 M521.312,322.206v4.096
	 M521.312,318.104v4.102 M521.312,313.324v4.102 M521.312,309.229v4.096 M521.312,305.809v2.735 M521.312,470.42v0.689
	 M521.312,305.809v0.689 M521.312,561.949v4.1 M521.312,557.85v3.419 M521.312,553.07v4.098 M521.312,548.975v4.096
	 M521.312,544.196v4.093 M521.312,540.092v4.101 M521.312,535.997v3.417 M521.312,531.213v4.097 M521.312,527.116v4.097
	 M521.312,523.018v3.41 M521.312,518.236v4.098 M521.312,514.14v4.097 M521.312,509.353v4.102 M521.312,505.263v4.092
	 M521.312,501.159v3.411 M521.312,496.378v4.096 M521.312,492.275v4.101 M521.312,488.186v3.41 M521.312,483.401v4.096
	 M521.312,479.302v3.413 M521.312,477.258v1.362 M521.312,565.369v0.681 M521.312,477.258v0.676 M521.312,82.455v4.102
	 M521.312,78.363v4.092 M521.312,74.262v3.413 M521.312,69.481v4.095 M521.312,65.379v4.103 M521.312,61.289v3.413 M521.312,56.502
	v4.097 M521.312,52.406v4.096 M521.312,47.624v4.098 M521.312,43.523v4.101 M521.312,40.794v2.051 M521.312,87.24v0.686
	 M521.312,40.794v0.684 M1444.778,40.794h2.735v0.684 M1440.683,40.794h3.414v0.684 M1435.902,40.794h3.411v0.684 M1431.801,40.794
	h3.418v0.684 M1427.705,40.794h2.732v0.684 M1422.923,40.794h3.413v0.684 M1418.827,40.794h3.412v0.684 M1414.725,40.794h2.733
	v0.684 M1409.943,40.794h3.419v0.684 M1405.848,40.794h3.411v0.684 M1401.067,40.794h3.413v0.684 M1396.965,40.794h3.419v0.684
	 M1392.869,40.794h2.733v0.684 M1388.087,40.794h3.414v0.684 M1383.991,40.794h3.412v0.684 M1379.89,40.794h2.735v0.684
	 M1375.109,40.794h3.416v0.684 M1371.014,40.794h2.733v0.684 M1366.232,40.794h3.411v0.684 M1362.134,40.794h3.413v0.684
	 M1358.032,40.794h2.737v0.684 M1353.253,40.794h3.415v0.684 M1349.154,40.794h3.414v0.684 M1344.376,40.794h3.41v0.684
	 M1340.274,40.794h3.417v0.684 M1336.175,40.794h2.734v0.684 M1331.396,40.794h3.412v0.684 M1327.301,40.794h3.411v0.684
	 M1323.197,40.794h2.735v0.684 M1318.416,40.794h3.419v0.684 M1314.321,40.794h3.41v0.684 M1309.54,40.794h3.413v0.684
	 M1305.442,40.794h3.413v0.684 M1301.342,40.794h2.733v0.684 M1296.559,40.794h3.419v0.684 M1292.464,40.794h3.413v0.684
	 M1288.366,40.794h2.729v0.684 M1283.581,40.794h3.417v0.684 M1279.484,40.794h3.419v0.684 M1274.705,40.794h3.41v0.684
	 M1270.607,40.794h3.414v0.684 M1266.505,40.794h2.734v0.684 M1261.726,40.794h3.418v0.684 M1257.628,40.794h3.412v0.684
	 M1253.531,40.794h2.73v0.684 M1248.752,40.794h3.412v0.684 M1244.649,40.794h3.417v0.684 M1239.87,40.794h3.412v0.684
	 M1235.772,40.794h3.412v0.684 M1231.676,40.794h2.729v0.684 M1226.889,40.794h3.419v0.684 M1222.793,40.794h3.412v0.684
	 M1218.696,40.794h2.729v0.684 M1213.915,40.794h3.412v0.684 M1209.813,40.794h3.42v0.684 M1205.033,40.794h3.417v0.684
	 M1200.937,40.794h3.414v0.684 M1196.84,40.794h2.727v0.684 M1192.054,40.794h3.42v0.684 M1187.957,40.794h3.419v0.684
	 M1183.86,40.794h2.727v0.684 M1179.08,40.794h3.414v0.684 M1174.979,40.794h3.416v0.684 M1170.196,40.794h3.419v0.684
	 M1166.102,40.794h3.41v0.684 M1162.005,40.794h2.729v0.684 M1157.225,40.794h3.411v0.684 M1153.122,40.794h3.419v0.684
	 M1149.025,40.794h2.734v0.684 M1144.244,40.794h3.413v0.684 M1140.148,40.794h2.728v0.684 M1135.362,40.794h3.416v0.684
	 M1131.267,40.794h3.417v0.684 M1127.169,40.794h2.728v0.684 M1122.388,40.794h3.413v0.684 M1118.285,40.794h3.421v0.684
	 M1114.189,40.794h2.733v0.684 M1109.409,40.794h3.413v0.684 M1105.313,40.794h2.727v0.684 M1100.533,40.794h3.412v0.684
	 M1096.432,40.794h3.416v0.684 M1092.332,40.794h2.737v0.684 M1087.553,40.794h3.413v0.684 M1083.456,40.794h3.413v0.684
	 M1078.671,40.794h3.417v0.684 M1074.574,40.794h3.416v0.684 M1070.479,40.794h2.728v0.684 M1065.697,40.794h3.411v0.684
	 M1061.595,40.794h3.419v0.684 M1057.498,40.794h2.734v0.684 M1052.717,40.794h3.414v0.684 M1048.621,40.794h3.412v0.684
	 M1043.841,40.794h3.413v0.684 M1039.739,40.794h3.418v0.684 M1035.642,40.794h2.727v0.684 M1030.86,40.794h3.414v0.684
	 M1026.766,40.794h3.411v0.684 M1022.662,40.794h2.734v0.684 M1017.882,40.794h3.413v0.684 M1013.786,40.794h3.412v0.684
	 M1009.005,40.794h3.412v0.684 M1004.902,40.794h3.417v0.684 M1000.805,40.794h2.73v0.684 M996.025,40.794h3.412v0.684
	 M991.923,40.794h3.419v0.684 M987.826,40.794h2.735v0.684 M983.047,40.794h3.413v0.684 M978.951,40.794h3.412v0.684
	 M974.168,40.794h3.413v0.684 M970.067,40.794h3.419v0.684 M965.971,40.794h2.729v0.684 M961.19,40.794h3.412v0.684 M957.094,40.794
	h3.41v0.684 M952.991,40.794h2.735v0.684 M948.211,40.794h3.414v0.684 M944.114,40.794h3.413v0.684 M939.333,40.794h3.414v0.684
	 M935.232,40.794h3.416v0.684 M931.136,40.794h2.734v0.684 M926.354,40.794h3.41v0.684 M922.26,40.794h3.412v0.684 M918.156,40.794
	h2.734v0.684 M913.376,40.794h3.418v0.684 M909.278,40.794h2.735v0.684 M904.499,40.794h3.411v0.684 M900.396,40.794h3.419v0.684
	 M896.299,40.794h2.734v0.684 M891.52,40.794h3.419v0.684 M887.423,40.794h3.41v0.684 M883.319,40.794h2.735v0.684 M878.54,40.794
	h3.417v0.684 M874.443,40.794h2.734v0.684 M869.662,40.794h3.413v0.684 M865.566,40.794h3.41v0.684 M861.464,40.794h2.735v0.684
	 M856.685,40.794h3.416v0.684 M852.587,40.794h3.412v0.684 M847.807,40.794h3.412v0.684 M843.711,40.794h3.41v0.684 M839.607,40.794
	h2.733v0.684 M834.827,40.794h3.41v0.684 M830.731,40.794h3.412v0.684 M826.634,40.794h2.728v0.684 M821.848,40.794h3.42v0.684
	 M817.75,40.794h3.414v0.684 M812.971,40.794h3.414v0.684 M808.874,40.794h3.413v0.684 M804.772,40.794h2.733v0.684 M799.992,40.794
	h3.419v0.684 M795.895,40.794h3.413v0.684 M791.799,40.794h2.73v0.684 M787.012,40.794h3.418v0.684 M782.917,40.794h3.417v0.684
	 M778.137,40.794h3.411v0.684 M774.039,40.794h3.413v0.684 M769.937,40.794h2.735v0.684 M765.157,40.794h3.417v0.684
	 M761.058,40.794h3.414v0.684 M756.964,40.794h2.729v0.684 M752.182,40.794h3.413v0.684 M748.08,40.794h3.418v0.684 M743.3,40.794
	h3.413v0.684 M739.204,40.794h3.412v0.684 M735.105,40.794h2.729v0.684 M730.32,40.794h3.42v0.684 M726.224,40.794h3.412v0.684
	 M722.128,40.794h2.729v0.684 M717.348,40.794h3.41v0.684 M713.246,40.794h3.417v0.684 M708.464,40.794h3.42v0.684 M704.367,40.794
	h3.414v0.684 M700.271,40.794H703v0.684 M695.485,40.794h3.417v0.684 M691.389,40.794h3.418v0.684 M687.293,40.794h2.732v0.684
	 M682.513,40.794h3.412v0.684 M678.411,40.794h2.733v0.684 M673.63,40.794h3.417v0.684 M669.532,40.794h3.419v0.684 M665.436,40.794
	h2.729v0.684 M660.656,40.794h3.411v0.684 M656.554,40.794h3.416v0.684 M652.458,40.794h2.733v0.684 M647.677,40.794h3.411v0.684
	 M643.579,40.794h2.729v0.684 M638.801,40.794h3.41v0.684 M634.697,40.794h3.418v0.684 M630.601,40.794h2.729v0.684 M625.819,40.794
	h3.41v0.684 M621.723,40.794h3.414v0.684 M616.938,40.794h3.416v0.684 M612.84,40.794h3.414v0.684 M608.743,40.794h2.729v0.684
	 M603.964,40.794h3.412v0.684 M599.861,40.794h3.419v0.684 M595.766,40.794h2.735v0.684 M590.984,40.794h3.414v0.684
	 M586.888,40.794h3.413v0.684 M582.101,40.794h3.419v0.684 M578.005,40.794h3.418v0.684 M573.908,40.794h2.729v0.684
	 M569.127,40.794h3.414v0.684 M565.025,40.794h3.417v0.684 M560.928,40.794h2.736v0.684 M556.149,40.794h3.412v0.684
	 M552.052,40.794h3.414v0.684 M547.271,40.794h3.413v0.684 M543.168,40.794h3.42v0.684 M539.072,40.794h2.73v0.684 M534.292,40.794
	h3.414v0.684 M530.194,40.794h3.414v0.684 M528.145,40.794h0.685v0.684 M1447.514,40.794v0.684 M528.145,40.794v0.684
	 M528.829,557.85h-0.685v0.686 M533.608,557.85h-3.414v0.686 M537.706,557.85h-3.414v0.686 M541.801,557.85h-2.73v0.686
	 M546.588,557.85h-3.42v0.686 M550.685,557.85h-3.413v0.686 M555.466,557.85h-3.414v0.686 M559.562,557.85h-3.412v0.686
	 M563.664,557.85h-2.736v0.686 M568.442,557.85h-3.417v0.686 M572.54,557.85h-3.414v0.686 M576.638,557.85h-2.729v0.686
	 M581.425,557.85h-3.419v0.686 M585.521,557.85h-3.418v0.686 M590.301,557.85h-3.413v0.686 M594.398,557.85h-3.414v0.686
	 M598.499,557.85h-2.735v0.686 M603.28,557.85h-3.419v0.686 M607.376,557.85h-3.412v0.686 M611.473,557.85h-2.729v0.686
	 M616.254,557.85h-3.414v0.686 M620.354,557.85h-3.416v0.686 M625.137,557.85h-3.414v0.686 M629.231,557.85h-3.411v0.686
	 M633.329,557.85h-2.729v0.686 M638.115,557.85h-3.418v0.686 M642.212,557.85h-3.41v0.686 M646.309,557.85h-2.729v0.686
	 M651.09,557.85h-3.412v0.686 M655.191,557.85h-2.733v0.686 M659.972,557.85h-3.416v0.686 M664.067,557.85h-3.411v0.686
	 M668.165,557.85h-2.729v0.686 M672.951,557.85h-3.419v0.686 M677.047,557.85h-3.417v0.686 M681.145,557.85h-2.733v0.686
	 M685.925,557.85h-3.412v0.686 M690.026,557.85h-2.732v0.686 M694.807,557.85h-3.418v0.686 M698.904,557.85h-3.418v0.686
	 M703,557.85h-2.729v0.686 M707.781,557.85h-3.414v0.686 M711.884,557.85h-3.42v0.686 M716.663,557.85h-3.417v0.686 M720.76,557.85
	h-3.41v0.686 M724.857,557.85h-2.729v0.686 M729.637,557.85h-3.411v0.686 M733.74,557.85h-3.42v0.686 M737.835,557.85h-2.729v0.686
	 M742.616,557.85h-3.412v0.686 M746.713,557.85H743.3v0.686 M751.498,557.85h-3.418v0.686 M755.595,557.85h-3.413v0.686
	 M759.693,557.85h-2.728v0.686 M764.472,557.85h-3.414v0.686 M768.577,557.85h-3.418v0.686 M772.672,557.85h-2.735v0.686
	 M777.452,557.85h-3.413v0.686 M781.548,557.85h-3.411v0.686 M786.334,557.85h-3.417v0.686 M790.432,557.85h-3.42v0.686
	 M794.529,557.85h-2.73v0.686 M799.309,557.85h-3.412v0.686 M803.411,557.85h-3.419v0.686 M807.506,557.85h-2.733v0.686
	 M812.287,557.85h-3.413v0.686 M816.385,557.85h-3.414v0.686 M821.166,557.85h-3.413v0.686 M825.268,557.85h-3.42v0.686
	 M829.363,557.85h-2.729v0.686 M834.144,557.85h-3.412v0.686 M838.239,557.85h-3.412v0.686 M842.341,557.85h-2.733v0.686
	 M847.121,557.85h-3.41v0.686 M851.22,557.85h-3.411v0.686 M855.999,557.85h-3.412v0.686 M860.102,557.85h-3.416v0.686
	 M864.199,557.85h-2.735v0.686 M868.978,557.85h-3.41v0.686 M873.075,557.85h-3.413v0.686 M877.178,557.85h-2.734v0.686
	 M881.957,557.85h-3.417v0.686 M886.055,557.85h-2.735v0.686 M890.835,557.85h-3.41v0.686 M894.938,557.85h-3.419v0.686
	 M899.034,557.85h-2.733v0.686 M903.814,557.85h-3.419v0.686 M907.914,557.85h-3.413v0.686 M912.014,557.85h-2.735v0.686
	 M916.794,557.85h-3.418v0.686 M920.891,557.85h-2.734v0.686 M925.672,557.85h-3.412v0.686 M929.766,557.85h-3.409v0.686
	 M933.87,557.85h-2.734v0.686 M938.649,557.85h-3.416v0.686 M942.747,557.85h-3.414v0.686 M947.527,557.85h-3.412v0.686
	 M951.625,557.85h-3.414v0.686 M955.727,557.85h-2.735v0.686 M960.505,557.85h-3.411v0.686 M964.603,557.85h-3.412v0.686
	 M968.7,557.85h-2.728v0.686 M973.486,557.85h-3.419v0.686 M977.584,557.85h-3.414v0.686 M982.363,557.85h-3.412v0.686
	 M986.46,557.85h-3.413v0.686 M990.562,557.85h-2.735v0.686 M995.342,557.85h-3.419v0.686 M998.071,557.85h-2.045v0.686
	 M528.145,557.85v0.686 M998.071,557.85v0.686 M1651.059,9.371H511.069v0.689 M511.069,62.65H314.353v0.684 M324.601,87.24v0.686
	 M328.697,87.24h-3.413v0.686 M332.794,87.24h-2.729v0.686 M337.575,87.24h-3.413v0.686 M341.678,87.24h-3.419v0.686 M345.773,87.24
	h-2.735v0.686 M350.555,87.24h-3.414v0.686 M354.651,87.24h-3.413v0.686 M359.437,87.24h-3.419v0.686 M363.533,87.24h-3.417v0.686
	 M367.63,87.24h-2.729v0.686 M372.41,87.24h-3.413v0.686 M376.512,87.24h-3.418v0.686 M380.609,87.24h-2.734v0.686 M385.39,87.24
	h-3.414v0.686 M389.486,87.24h-3.413v0.686 M394.268,87.24h-3.413v0.686 M398.368,87.24h-3.418v0.686 M402.465,87.24h-2.734v0.686
	 M407.245,87.24h-3.413v0.686 M411.341,87.24h-3.41v0.686 M415.446,87.24h-2.735v0.686 M420.226,87.24h-3.418v0.686 M424.322,87.24
	h-2.729v0.686 M429.103,87.24h-3.412v0.686 M433.204,87.24h-3.418v0.686 M437.3,87.24h-2.733v0.686 M442.081,87.24h-3.412v0.686
	 M446.178,87.24h-3.412v0.686 M450.964,87.24h-3.419v0.686 M455.061,87.24h-3.417v0.686 M459.158,87.24h-2.729v0.686 M463.937,87.24
	h-3.413v0.686 M468.04,87.24h-3.419v0.686 M472.137,87.24h-2.735v0.686 M476.918,87.24h-3.413v0.686 M481.013,87.24h-3.41v0.686
	 M485.796,87.24h-3.413v0.686 M489.896,87.24h-3.418v0.686 M493.994,87.24h-2.735v0.686 M498.772,87.24h-3.412v0.686 M502.87,87.24
	h-3.414v0.686 M506.974,87.24h-2.735v0.686 M511.752,87.24h-3.42v0.686 M515.85,87.24h-3.414v0.686 M520.629,87.24h-3.411v0.686
	 M324.601,87.24v0.686 M521.312,87.24v0.686 M332.794,94.071h-1.368v0.679 M337.575,94.071h-3.413v0.679 M341.678,94.071h-3.419
	v0.679 M345.773,94.071h-2.735v0.679 M350.555,94.071h-3.414v0.679 M354.651,94.071h-3.413v0.679 M359.437,94.071h-3.419v0.679
	 M363.533,94.071h-3.417v0.679 M367.63,94.071h-2.729v0.679 M372.41,94.071h-3.413v0.679 M376.512,94.071h-3.418v0.679
	 M380.609,94.071h-2.734v0.679 M385.39,94.071h-3.414v0.679 M389.486,94.071h-3.413v0.679 M394.268,94.071h-3.413v0.679
	 M398.368,94.071h-3.418v0.679 M402.465,94.071h-2.734v0.679 M407.245,94.071h-3.413v0.679 M411.341,94.071h-3.41v0.679
	 M415.446,94.071h-2.735v0.679 M420.226,94.071h-3.418v0.679 M424.322,94.071h-2.729v0.679 M429.103,94.071h-3.412v0.679
	 M433.204,94.071h-3.418v0.679 M437.3,94.071h-2.733v0.679 M442.081,94.071h-3.412v0.679 M446.178,94.071h-3.412v0.679
	 M450.964,94.071h-3.419v0.679 M455.061,94.071h-3.417v0.679 M459.158,94.071h-2.729v0.679 M463.937,94.071h-3.413v0.679
	 M468.04,94.071h-3.419v0.679 M472.137,94.071h-2.735v0.679 M476.918,94.071h-3.413v0.679 M481.013,94.071h-3.41v0.679
	 M485.796,94.071h-3.413v0.679 M489.896,94.071h-3.418v0.679 M493.994,94.071h-2.735v0.679 M498.772,94.071h-3.412v0.679
	 M502.87,94.071h-3.414v0.679 M506.974,94.071h-2.735v0.679 M511.752,94.071h-3.42v0.679 M515.85,94.071h-3.414v0.679
	 M520.629,94.071h-3.411v0.679 M331.426,94.071v0.679 M521.312,94.071v0.679 M-37.412,24.401h148.903v0.684 M111.491,24.401V575.61
	 M111.491,24.401h149.586v0.684 M261.078,574.929H111.491v0.682 M111.491,574.929H-37.412v0.682 M-11.453,468.374v14.341
	 M-11.453,456.765v10.928 M-11.453,483.401v14.344 M-11.453,498.425v10.928 M17.918,498.425v10.928 M17.918,483.401v14.344
	 M18.597,510.044h-32.1v0.675 M18.597,508.676h-32.1v0.677 M18.597,498.425h-32.1v0.688 M18.597,508.676v2.043 M18.597,497.062
	v2.051 M17.918,468.374v14.341 M18.597,482.036v2.047 M18.597,467.006v2.052 M17.918,456.765v10.928 M-13.503,467.006h32.1v0.687
	 M18.597,455.397v2.049 M18.597,456.765h-32.1v0.682 M-13.503,510.044v-54.646v0.683 M18.597,483.401h-32.1v0.685 M18.597,482.036
	h-32.1v0.679 M-13.503,455.397v55.324 M-11.453,363.185v15.03 M-11.453,351.578v11.605 M-11.453,378.892v14.349 M-11.453,393.923
	v10.931 M17.918,393.923v10.931 M17.918,378.892v14.349 M18.597,405.536h-32.1v0.683 M18.597,404.168h-32.1v0.686 M18.597,393.923
	h-32.1v0.685 M18.597,404.168v2.051 M18.597,392.555v2.053 M17.918,363.185v15.03 M18.597,377.531v2.052 M18.597,362.506v1.362
	 M17.918,351.578v11.605 M-13.503,362.506h32.1v0.678 M18.597,350.89v1.367 M18.597,351.578h-32.1v0.678 M-13.503,405.536V350.89
	v0.688 M18.597,378.892h-32.1v0.691 M18.597,377.531h-32.1v0.684 M-13.503,350.89v55.329 M-11.453,102.265v14.341 M-11.453,90.654
	v10.935 M-11.453,117.295v14.341 M-11.453,132.32v10.929 M17.918,132.32v10.929 M17.918,117.295v14.341 M18.597,143.933h-32.1v0.684
	 M18.597,142.565h-32.1v0.684 M18.597,132.32h-32.1v0.686 M18.597,142.565v2.052 M18.597,130.954v2.051 M17.918,102.265v14.341
	 M18.597,115.93v2.045 M18.597,100.899v2.051 M17.918,90.654v10.935 M-13.503,100.899h32.1v0.688 M18.597,89.292v2.046
	 M18.597,90.654h-32.1v0.686 M-13.503,143.933V89.292v0.678 M18.597,117.295h-32.1v0.678 M18.597,115.93h-32.1v0.677
	 M-13.503,89.292v55.323 M-11.453,206.772v14.347 M-11.453,195.161v10.929 M-11.453,221.796v14.341 M-11.453,236.827v10.929
	 M17.918,236.827v10.929 M17.918,221.796v14.341 M18.597,248.434h-32.1v0.69 M18.597,247.071h-32.1v0.685 M18.597,236.827h-32.1
	v0.68 M18.597,247.071v2.052 M18.597,235.459v2.047 M17.918,206.772v14.347 M18.597,220.431v2.049 M18.597,205.405v2.051
	 M17.918,195.161v10.929 M-13.503,205.405h32.1v0.684 M18.597,193.793v2.052 M18.597,193.793h-56.692v0.684 M18.597,195.161h-32.1
	v0.684 M-13.503,248.434v-54.641v0.684 M18.597,221.796h-32.1v0.684 M18.597,220.431h-32.1v0.688 M-38.095,193.793v-49.86v0.684
	 M-13.503,193.793v55.33 M218.043,152.125h19.125v0.69 M237.171,152.125v20.495 M237.171,171.936h-19.126v0.686 M215.314,152.125
	v0.69 M240.584,174.672h-27.322v0.678 M213.263,174.672v-25.274v0.684 M213.263,149.397h27.322v0.684 M240.584,149.397v25.954
	 M218.043,173.304v-22.545v0.688 M238.537,150.759v23.224 M214.63,150.759h23.907v0.688 M214.63,173.304v-22.545v0.688
	 M238.537,173.304H214.63v0.679 M218.043,288.734h19.125v0.688 M237.171,288.734v20.495 M237.171,308.544h-19.126v0.685
	 M215.314,288.734v0.688 M240.584,311.28h-27.322v0.677 M213.263,311.28v-25.959v0.684 M213.263,285.321h27.322v0.684
	 M240.584,285.321v26.636 M218.043,309.912v-22.547v0.688 M238.537,287.365v23.225 M214.63,287.365h23.907v0.688 M214.63,309.912
	v-22.547v0.688 M238.537,309.912H214.63v0.678 M218.043,427.392h19.125v0.686 M237.171,427.392v19.805 M237.171,446.519h-19.126
	v0.678 M215.314,427.392v0.686 M240.584,449.932h-27.322v0.685 M213.263,449.932v-25.958v0.688 M213.263,423.974h27.322v0.688
	 M240.584,423.974v26.645 M218.043,448.564V426.03v0.679 M238.537,426.03v23.218 M214.63,426.03h23.907v0.679 M214.63,448.564
	V426.03v0.679 M238.537,448.564H214.63v0.684 M261.078,248.434h63.523v0.69 M324.601,247.071h-63.523v0.685 M-38.095,143.933h56.692
	v0.684 M18.597,89.292h-56.008v0.678 M-37.412,248.434h56.008v0.69 M18.597,350.89h-56.008v0.688 M-38.095,405.536h56.692v0.683
	 M18.597,455.397h-56.692v0.683 M-37.412,510.044h56.008v0.675 M-37.412,350.89V248.434v0.69 M-13.503,405.536V350.89v0.688
	 M-38.095,455.397v-49.861v0.683 M-13.503,510.044v-54.646v0.683 M-37.412,574.929v-64.885v0.675 M-37.412,89.292V24.401v0.684
	 M-13.503,143.933V89.292v0.678 M324.601,330.4h-63.523v0.685 M324.601,162.376h-63.523v0.679 M261.078,24.401V575.61
	 M1447.514,42.162v-1.368v0.684 M1447.514,46.942v-3.418v0.688 M1447.514,51.038v-3.414v0.68 M1447.514,55.818v-3.412v0.682
	 M1447.514,59.921v-3.419v0.685 M1447.514,64.018v-2.729v0.677 M1447.514,68.797v-3.419v0.69 M1447.514,72.894v-3.413v0.684
	 M1447.514,76.313v-2.051v0.684 M1447.514,40.794v0.684 M1447.514,76.313v0.684 M521.312,38.064v-3.417v0.684 M521.312,42.162
	v-2.735v0.684 M521.312,46.942v-3.418v0.688 M521.312,51.038v-3.414v0.68 M521.312,55.818v-3.412v0.682 M521.312,59.921v-3.419
	v0.685 M521.312,64.018v-2.729v0.677 M521.312,68.797v-3.419v0.69 M521.312,72.894v-3.413v0.684 M521.312,76.997v-2.735v0.684
	 M521.312,81.094v-2.73v0.68 M521.312,33.961v0.684 M521.312,81.094v0.684 M1634.666,518.236v4.098 M1634.666,522.334v0.681
	 M1634.666,518.236v0.682 M1641.499,527.116v3.415 M1641.499,523.018v3.41 M1641.499,518.236v4.098 M1641.499,529.846v0.686
	 M1641.499,518.236v0.682 M314.353,501.841h196.717v0.686 M465.99,295.564l1.366-1.361v0.678 M465.99,295.564l1.366,1.368v0.684
	 M489.213,295.564H465.99v0.685 M867.612,302.395l0.681-0.684v0.684 M867.612,302.395l0.681,1.368v0.68 M890.835,302.395h-23.223
	v0.685 M1552.698,295.564l-1.365-1.361v0.678 M1552.698,295.564l-1.365,0.685v0.684 M1529.478,295.564h23.221v0.685
	 M1315.003,301.713l-0.682-1.362v0.68 M1315.003,301.713l-0.682,1.368v0.684 M1291.779,301.713h23.224v0.684 M332.794,470.42h-1.368
	v0.689 M337.575,470.42h-3.413v0.689 M341.678,470.42h-3.419v0.689 M345.773,470.42h-2.735v0.689 M350.555,470.42h-3.414v0.689
	 M354.651,470.42h-3.413v0.689 M359.437,470.42h-3.419v0.689 M363.533,470.42h-3.417v0.689 M367.63,470.42h-2.729v0.689
	 M372.41,470.42h-3.413v0.689 M376.512,470.42h-3.418v0.689 M380.609,470.42h-2.734v0.689 M385.39,470.42h-3.414v0.689
	 M389.486,470.42h-3.413v0.689 M394.268,470.42h-3.413v0.689 M398.368,470.42h-3.418v0.689 M402.465,470.42h-2.734v0.689
	 M407.245,470.42h-3.413v0.689 M411.341,470.42h-3.41v0.689 M415.446,470.42h-2.735v0.689 M420.226,470.42h-3.418v0.689
	 M424.322,470.42h-2.729v0.689 M429.103,470.42h-3.412v0.689 M433.204,470.42h-3.418v0.689 M437.3,470.42h-2.733v0.689
	 M442.081,470.42h-3.412v0.689 M446.178,470.42h-3.412v0.689 M450.964,470.42h-3.419v0.689 M455.061,470.42h-3.417v0.689
	 M459.158,470.42h-2.729v0.689 M463.937,470.42h-3.413v0.689 M468.04,470.42h-3.419v0.689 M472.137,470.42h-2.735v0.689
	 M476.918,470.42h-3.413v0.689 M481.013,470.42h-3.41v0.689 M485.796,470.42h-3.413v0.689 M489.896,470.42h-3.418v0.689
	 M493.994,470.42h-2.735v0.689 M498.772,470.42h-3.412v0.689 M502.87,470.42h-3.414v0.689 M506.974,470.42h-2.735v0.689
	 M511.752,470.42h-3.42v0.689 M515.85,470.42h-3.414v0.689 M520.629,470.42h-3.411v0.689 M331.426,470.42v0.689 M521.312,470.42
	v0.689 M324.601,477.258v0.676 M328.697,477.258h-3.413v0.676 M332.794,477.258h-2.729v0.676 M337.575,477.258h-3.413v0.676
	 M341.678,477.258h-3.419v0.676 M345.773,477.258h-2.735v0.676 M350.555,477.258h-3.414v0.676 M354.651,477.258h-3.413v0.676
	 M359.437,477.258h-3.419v0.676 M363.533,477.258h-3.417v0.676 M367.63,477.258h-2.729v0.676 M372.41,477.258h-3.413v0.676
	 M376.512,477.258h-3.418v0.676 M380.609,477.258h-2.734v0.676 M385.39,477.258h-3.414v0.676 M389.486,477.258h-3.413v0.676
	 M394.268,477.258h-3.413v0.676 M398.368,477.258h-3.418v0.676 M402.465,477.258h-2.734v0.676 M407.245,477.258h-3.413v0.676
	 M411.341,477.258h-3.41v0.676 M415.446,477.258h-2.735v0.676 M420.226,477.258h-3.418v0.676 M424.322,477.258h-2.729v0.676
	 M429.103,477.258h-3.412v0.676 M433.204,477.258h-3.418v0.676 M437.3,477.258h-2.733v0.676 M442.081,477.258h-3.412v0.676
	 M446.178,477.258h-3.412v0.676 M450.964,477.258h-3.419v0.676 M455.061,477.258h-3.417v0.676 M459.158,477.258h-2.729v0.676
	 M463.937,477.258h-3.413v0.676 M468.04,477.258h-3.419v0.676 M472.137,477.258h-2.735v0.676 M476.918,477.258h-3.413v0.676
	 M481.013,477.258h-3.41v0.676 M485.796,477.258h-3.413v0.676 M489.896,477.258h-3.418v0.676 M493.994,477.258h-2.735v0.676
	 M498.772,477.258h-3.412v0.676 M502.87,477.258h-3.414v0.676 M506.974,477.258h-2.735v0.676 M511.752,477.258h-3.42v0.676
	 M515.85,477.258h-3.414v0.676 M520.629,477.258h-3.411v0.676 M324.601,477.258v0.676 M521.312,477.258v0.676 M528.145,557.85v0.686
	 M528.145,553.07v4.098 M528.145,548.975v4.096 M528.145,544.196v4.093 M528.145,540.092v4.101 M528.145,535.997v3.417
	 M528.145,531.213v4.097 M528.145,527.116v4.097 M528.145,523.018v3.41 M528.145,518.236v4.098 M528.145,557.85v0.686
	 M528.145,518.236v0.682 M998.071,557.85v0.686 M998.071,553.07v4.098 M998.071,548.975v4.096 M998.071,544.196v4.093
	 M998.071,540.092v4.101 M998.071,535.997v3.417 M998.071,531.213v4.097 M998.071,527.116v4.097 M998.071,523.018v3.41
	 M998.071,557.85v0.686 M998.071,522.334v0.681 M1004.902,530.531v-0.686V530.531 M1004.902,534.627v-3.411v0.682 M1004.902,538.724
	v-2.727v0.682 M1004.902,543.505v-3.412v0.683 M1004.902,547.606v-3.41v0.677 M1004.902,552.386v-3.411v0.677 M1004.902,556.49
	v-3.417v0.683 M1004.902,560.578v-2.729v0.686 M1004.902,565.369v-3.418v0.688 M1004.902,529.846v0.686 M1004.902,565.369v0.681
	 M1004.902,565.369v0.681 M1000.805,565.369h2.73v0.681 M996.025,565.369h3.412v0.681 M991.923,565.369h3.419v0.681
	 M987.826,565.369h2.735v0.681 M983.047,565.369h3.413v0.681 M978.951,565.369h3.412v0.681 M974.168,565.369h3.413v0.681
	 M970.067,565.369h3.419v0.681 M965.971,565.369h2.729v0.681 M961.19,565.369h3.412v0.681 M957.094,565.369h3.41v0.681
	 M952.991,565.369h2.735v0.681 M948.211,565.369h3.414v0.681 M944.114,565.369h3.413v0.681 M939.333,565.369h3.414v0.681
	 M935.232,565.369h3.416v0.681 M931.136,565.369h2.734v0.681 M926.354,565.369h3.41v0.681 M922.26,565.369h3.412v0.681
	 M918.156,565.369h2.734v0.681 M913.376,565.369h3.418v0.681 M909.278,565.369h2.735v0.681 M904.499,565.369h3.411v0.681
	 M900.396,565.369h3.419v0.681 M896.299,565.369h2.734v0.681 M891.52,565.369h3.419v0.681 M887.423,565.369h3.41v0.681
	 M883.319,565.369h2.735v0.681 M878.54,565.369h3.417v0.681 M874.443,565.369h2.734v0.681 M869.662,565.369h3.413v0.681
	 M865.566,565.369h3.41v0.681 M861.464,565.369h2.735v0.681 M856.685,565.369h3.416v0.681 M852.587,565.369h3.412v0.681
	 M847.807,565.369h3.412v0.681 M843.711,565.369h3.41v0.681 M839.607,565.369h2.733v0.681 M834.827,565.369h3.41v0.681
	 M830.731,565.369h3.412v0.681 M826.634,565.369h2.728v0.681 M821.848,565.369h3.42v0.681 M817.75,565.369h3.414v0.681
	 M812.971,565.369h3.414v0.681 M808.874,565.369h3.413v0.681 M804.772,565.369h2.733v0.681 M799.992,565.369h3.419v0.681
	 M795.895,565.369h3.413v0.681 M791.799,565.369h2.73v0.681 M787.012,565.369h3.418v0.681 M782.917,565.369h3.417v0.681
	 M778.137,565.369h3.411v0.681 M774.039,565.369h3.413v0.681 M769.937,565.369h2.735v0.681 M765.157,565.369h3.417v0.681
	 M761.058,565.369h3.414v0.681 M756.964,565.369h2.729v0.681 M752.182,565.369h3.413v0.681 M748.08,565.369h3.418v0.681
	 M743.3,565.369h3.413v0.681 M739.204,565.369h3.412v0.681 M735.105,565.369h2.729v0.681 M730.32,565.369h3.42v0.681
	 M726.224,565.369h3.412v0.681 M722.128,565.369h2.729v0.681 M717.348,565.369h3.41v0.681 M713.246,565.369h3.417v0.681
	 M708.464,565.369h3.42v0.681 M704.367,565.369h3.414v0.681 M700.271,565.369H703v0.681 M695.485,565.369h3.417v0.681
	 M691.389,565.369h3.418v0.681 M687.293,565.369h2.732v0.681 M682.513,565.369h3.412v0.681 M678.411,565.369h2.733v0.681
	 M673.63,565.369h3.417v0.681 M669.532,565.369h3.419v0.681 M665.436,565.369h2.729v0.681 M660.656,565.369h3.411v0.681
	 M656.554,565.369h3.416v0.681 M652.458,565.369h2.733v0.681 M647.677,565.369h3.411v0.681 M643.579,565.369h2.729v0.681
	 M638.801,565.369h3.41v0.681 M634.697,565.369h3.418v0.681 M630.601,565.369h2.729v0.681 M625.819,565.369h3.41v0.681
	 M621.723,565.369h3.414v0.681 M616.938,565.369h3.416v0.681 M612.84,565.369h3.414v0.681 M608.743,565.369h2.729v0.681
	 M603.964,565.369h3.412v0.681 M599.861,565.369h3.419v0.681 M595.766,565.369h2.735v0.681 M590.984,565.369h3.414v0.681
	 M586.888,565.369h3.413v0.681 M582.101,565.369h3.419v0.681 M578.005,565.369h3.418v0.681 M573.908,565.369h2.729v0.681
	 M569.127,565.369h3.414v0.681 M565.025,565.369h3.417v0.681 M560.928,565.369h2.736v0.681 M556.149,565.369h3.412v0.681
	 M552.052,565.369h3.414v0.681 M547.271,565.369h3.413v0.681 M543.168,565.369h3.42v0.681 M539.072,565.369h2.73v0.681
	 M534.292,565.369h3.414v0.681 M530.194,565.369h3.414v0.681 M526.095,565.369h2.735v0.681 M521.312,565.369h3.42v0.681
	 M1004.902,565.369v0.681 M521.312,565.369v0.681 M394.951,299.66h3.418v0.69 M390.854,299.66h3.413v0.69 M386.074,299.66h3.413
	v0.69 M381.976,299.66h3.414v0.69 M377.875,299.66h2.734v0.69 M373.094,299.66h3.418v0.69 M368.998,299.66h3.413v0.69
	 M364.901,299.66h2.729v0.69 M360.116,299.66h3.417v0.69 M356.017,299.66h3.419v0.69 M351.238,299.66h3.413v0.69 M347.141,299.66
	h3.414v0.69 M343.038,299.66h2.735v0.69 M338.259,299.66h3.419v0.69 M334.162,299.66h3.413v0.69 M331.426,299.66h1.368v0.69
	 M398.368,299.66v0.69 M331.426,299.66v0.69 M1448.192,76.313h-0.679v0.684 M1452.296,76.313h-2.737v0.684 M1457.074,76.313h-3.411
	v0.684 M1461.172,76.313h-3.412v0.684 M1465.27,76.313h-2.73v0.684 M1470.054,76.313h-3.418v0.684 M1474.151,76.313h-3.414v0.684
	 M1478.933,76.313h-3.412v0.684 M1483.029,76.313h-3.414v0.684 M1487.131,76.313h-2.732v0.684 M1491.911,76.313h-3.419v0.684
	 M1496.006,76.313h-3.411v0.684 M1500.104,76.313h-2.729v0.684 M1504.891,76.313h-3.42v0.684 M1508.987,76.313h-3.419v0.684
	 M1513.768,76.313h-3.414v0.684 M1517.863,76.313h-3.412v0.684 M1521.966,76.313h-2.734v0.684 M1526.748,76.313h-3.419v0.684
	 M1530.841,76.313h-3.411v0.684 M1534.94,76.313h-2.731v0.684 M1539.721,76.313h-3.413v0.684 M1543.822,76.313h-3.417v0.684
	 M1548.603,76.313h-3.418v0.684 M1552.698,76.313h-3.411v0.684 M1556.796,76.313h-2.728v0.684 M1561.58,76.313h-3.417v0.684
	 M1565.678,76.313h-3.417v0.684 M1569.775,76.313h-2.729v0.684 M1574.556,76.313h-3.412v0.684 M1578.657,76.313h-3.417v0.684
	 M1583.438,76.313h-3.419v0.684 M1587.533,76.313h-3.408v0.684 M1591.631,76.313h-2.729v0.684 M1596.414,76.313h-3.413v0.684
	 M1600.515,76.313h-3.419v0.684 M1604.61,76.313h-2.733v0.684 M1609.391,76.313h-3.41v0.684 M1613.486,76.313h-2.728v0.684
	 M1618.273,76.313h-3.42v0.684 M1622.37,76.313h-3.419v0.684 M1626.468,76.313h-2.729v0.684 M1631.247,76.313h-3.411v0.684
	 M1634.666,76.313h-2.735v0.684 M1447.514,76.313v0.684 M1634.666,76.313v0.684 M1500.104,69.481h-2.046v0.684 M1504.891,69.481
	h-3.42v0.684 M1508.987,69.481h-3.419v0.684 M1513.768,69.481h-3.414v0.684 M1517.863,69.481h-3.412v0.684 M1521.966,69.481h-2.734
	v0.684 M1526.748,69.481h-3.419v0.684 M1530.841,69.481h-3.411v0.684 M1534.94,69.481h-2.731v0.684 M1539.721,69.481h-3.413v0.684
	 M1543.822,69.481h-3.417v0.684 M1548.603,69.481h-3.418v0.684 M1552.698,69.481h-3.411v0.684 M1556.796,69.481h-2.728v0.684
	 M1561.58,69.481h-3.417v0.684 M1565.678,69.481h-3.417v0.684 M1569.775,69.481h-2.729v0.684 M1574.556,69.481h-3.412v0.684
	 M1578.657,69.481h-3.417v0.684 M1583.438,69.481h-3.419v0.684 M1587.533,69.481h-3.408v0.684 M1591.631,69.481h-2.729v0.684
	 M1596.414,69.481h-3.413v0.684 M1600.515,69.481h-3.419v0.684 M1604.61,69.481h-2.733v0.684 M1609.391,69.481h-3.41v0.684
	 M1613.486,69.481h-2.728v0.684 M1618.273,69.481h-3.42v0.684 M1622.37,69.481h-3.419v0.684 M1626.468,69.481h-2.729v0.684
	 M1498.059,69.481v0.684 M1626.468,69.481v0.684 M1457.074,69.481h-2.049v0.684 M1461.172,69.481h-3.412v0.684 M1465.27,69.481
	h-2.73v0.684 M1470.054,69.481h-3.418v0.684 M1474.151,69.481h-3.414v0.684 M1478.933,69.481h-3.412v0.684 M1483.029,69.481h-3.414
	v0.684 M1487.131,69.481h-2.732v0.684 M1491.911,69.481h-3.419v0.684 M1496.006,69.481h-3.411v0.684 M1500.104,69.481h-2.729v0.684
	 M1504.891,69.481h-3.42v0.684 M1508.987,69.481h-3.419v0.684 M1513.768,69.481h-3.414v0.684 M1517.863,69.481h-3.412v0.684
	 M1521.966,69.481h-2.734v0.684 M1526.748,69.481h-3.419v0.684 M1530.841,69.481h-3.411v0.684 M1534.94,69.481h-2.731v0.684
	 M1539.721,69.481h-3.413v0.684 M1543.822,69.481h-3.417v0.684 M1548.603,69.481h-3.418v0.684 M1552.698,69.481h-3.411v0.684
	 M1556.796,69.481h-2.728v0.684 M1561.58,69.481h-3.417v0.684 M1565.678,69.481h-3.417v0.684 M1569.775,69.481h-2.729v0.684
	 M1574.556,69.481h-3.412v0.684 M1578.657,69.481h-3.417v0.684 M1583.438,69.481h-3.419v0.684 M1587.533,69.481h-3.408v0.684
	 M1591.631,69.481h-2.729v0.684 M1596.414,69.481h-3.413v0.684 M1600.515,69.481h-3.419v0.684 M1604.61,69.481h-2.733v0.684
	 M1609.391,69.481h-3.41v0.684 M1613.486,69.481h-2.728v0.684 M1618.273,69.481h-3.42v0.684 M1622.37,69.481h-3.419v0.684
	 M1626.468,69.481h-2.729v0.684 M1631.247,69.481h-3.411v0.684 M1635.35,69.481h-3.419v0.684 M1639.446,69.481h-2.733v0.684
	 M1641.499,69.481h-0.685v0.684 M1455.024,69.481v0.684 M1641.499,69.481v0.684 M524.732,33.961h-3.42v0.684 M528.829,33.961h-2.735
	v0.684 M533.608,33.961h-3.414v0.684 M537.706,33.961h-3.414v0.684 M541.801,33.961h-2.73v0.684 M546.588,33.961h-3.42v0.684
	 M550.685,33.961h-3.413v0.684 M555.466,33.961h-3.414v0.684 M559.562,33.961h-3.412v0.684 M563.664,33.961h-2.736v0.684
	 M568.442,33.961h-3.417v0.684 M572.54,33.961h-3.414v0.684 M576.638,33.961h-2.729v0.684 M581.425,33.961h-3.419v0.684
	 M585.521,33.961h-3.418v0.684 M590.301,33.961h-3.413v0.684 M594.398,33.961h-3.414v0.684 M598.499,33.961h-2.735v0.684
	 M603.28,33.961h-3.419v0.684 M607.376,33.961h-3.412v0.684 M611.473,33.961h-2.729v0.684 M616.254,33.961h-3.414v0.684
	 M620.354,33.961h-3.416v0.684 M625.137,33.961h-3.414v0.684 M629.231,33.961h-3.411v0.684 M633.329,33.961h-2.729v0.684
	 M638.115,33.961h-3.418v0.684 M642.212,33.961h-3.41v0.684 M646.309,33.961h-2.729v0.684 M651.09,33.961h-3.412v0.684
	 M655.191,33.961h-2.733v0.684 M659.972,33.961h-3.416v0.684 M664.067,33.961h-3.411v0.684 M668.165,33.961h-2.729v0.684
	 M672.951,33.961h-3.419v0.684 M677.047,33.961h-3.417v0.684 M681.145,33.961h-2.733v0.684 M685.925,33.961h-3.412v0.684
	 M690.026,33.961h-2.732v0.684 M694.807,33.961h-3.418v0.684 M698.904,33.961h-3.418v0.684 M703,33.961h-2.729v0.684
	 M707.781,33.961h-3.414v0.684 M711.884,33.961h-3.42v0.684 M716.663,33.961h-3.417v0.684 M720.76,33.961h-3.41v0.684
	 M724.857,33.961h-2.729v0.684 M729.637,33.961h-3.411v0.684 M733.74,33.961h-3.42v0.684 M737.835,33.961h-2.729v0.684
	 M742.616,33.961h-3.412v0.684 M746.713,33.961H743.3v0.684 M751.498,33.961h-3.418v0.684 M755.595,33.961h-3.413v0.684
	 M759.693,33.961h-2.728v0.684 M764.472,33.961h-3.414v0.684 M768.577,33.961h-3.418v0.684 M772.672,33.961h-2.735v0.684
	 M777.452,33.961h-3.413v0.684 M781.548,33.961h-3.411v0.684 M786.334,33.961h-3.417v0.684 M790.432,33.961h-3.42v0.684
	 M794.529,33.961h-2.73v0.684 M799.309,33.961h-3.412v0.684 M803.411,33.961h-3.419v0.684 M807.506,33.961h-2.733v0.684
	 M812.287,33.961h-3.413v0.684 M816.385,33.961h-3.414v0.684 M821.166,33.961h-3.413v0.684 M825.268,33.961h-3.42v0.684
	 M829.363,33.961h-2.729v0.684 M834.144,33.961h-3.412v0.684 M838.239,33.961h-3.412v0.684 M842.341,33.961h-2.733v0.684
	 M847.121,33.961h-3.41v0.684 M851.22,33.961h-3.411v0.684 M855.999,33.961h-3.412v0.684 M860.102,33.961h-3.416v0.684
	 M864.199,33.961h-2.735v0.684 M868.978,33.961h-3.41v0.684 M873.075,33.961h-3.413v0.684 M877.178,33.961h-2.734v0.684
	 M881.957,33.961h-3.417v0.684 M886.055,33.961h-2.735v0.684 M890.835,33.961h-3.41v0.684 M894.938,33.961h-3.419v0.684
	 M899.034,33.961h-2.733v0.684 M903.814,33.961h-3.419v0.684 M907.914,33.961h-3.413v0.684 M912.014,33.961h-2.735v0.684
	 M916.794,33.961h-3.418v0.684 M920.891,33.961h-2.734v0.684 M925.672,33.961h-3.412v0.684 M929.766,33.961h-3.409v0.684
	 M933.87,33.961h-2.734v0.684 M938.649,33.961h-3.416v0.684 M942.747,33.961h-3.414v0.684 M947.527,33.961h-3.412v0.684
	 M951.625,33.961h-3.414v0.684 M955.727,33.961h-2.735v0.684 M960.505,33.961h-3.411v0.684 M964.603,33.961h-3.412v0.684
	 M968.7,33.961h-2.728v0.684 M973.486,33.961h-3.419v0.684 M977.584,33.961h-3.414v0.684 M982.363,33.961h-3.412v0.684
	 M986.46,33.961h-3.413v0.684 M990.562,33.961h-2.735v0.684 M995.342,33.961h-3.419v0.684 M999.439,33.961h-3.413v0.684
	 M1003.535,33.961h-2.73v0.684 M1008.321,33.961h-3.417v0.684 M1012.417,33.961h-3.412v0.684 M1017.197,33.961h-3.411v0.684
	 M1021.295,33.961h-3.413v0.684 M1025.396,33.961h-2.734v0.684 M1030.178,33.961h-3.411v0.684 M1034.274,33.961h-3.414v0.684
	 M1038.369,33.961h-2.727v0.684 M1043.157,33.961h-3.418v0.684 M1047.254,33.961h-3.413v0.684 M1052.033,33.961h-3.412v0.684
	 M1056.131,33.961h-3.414v0.684 M1060.232,33.961h-2.734v0.684 M1065.014,33.961h-3.419v0.684 M1069.11,33.961h-3.412v0.684
	 M1073.206,33.961h-2.728v0.684 M1077.992,33.961h-3.416v0.684 M1082.088,33.961h-3.417v0.684 M1086.867,33.961h-3.411v0.684
	 M1090.967,33.961h-3.411v0.684 M1095.069,33.961h-2.737v0.684 M1099.849,33.961h-3.416v0.684 M1103.945,33.961h-3.412v0.684
	 M1108.041,33.961h-2.727v0.684 M1112.822,33.961h-3.413v0.684 M1116.923,33.961h-2.733v0.684 M1121.706,33.961h-3.421v0.684
	 M1125.801,33.961h-3.413v0.684 M1129.898,33.961h-2.729v0.684 M1134.684,33.961h-3.417v0.684 M1138.78,33.961h-3.416v0.684
	 M1142.876,33.961h-2.728v0.684 M1147.659,33.961h-3.413v0.684 M1151.76,33.961h-2.734v0.684 M1156.541,33.961h-3.419v0.684
	 M1160.637,33.961h-3.41v0.684 M1164.733,33.961h-2.729v0.684 M1169.513,33.961h-3.411v0.684 M1173.615,33.961h-3.419v0.684
	 M1178.396,33.961h-3.416v0.684 M1182.494,33.961h-3.414v0.684 M1186.59,33.961h-2.728v0.684 M1191.376,33.961h-3.419v0.684
	 M1195.474,33.961h-3.42v0.684 M1199.568,33.961h-2.727v0.684 M1204.351,33.961h-3.414v0.684 M1208.452,33.961h-3.418v0.684
	 M1213.233,33.961h-3.42v0.684 M1217.329,33.961h-3.412v0.684 M1221.426,33.961h-2.729v0.684 M1226.204,33.961h-3.411v0.684
	 M1230.308,33.961h-3.419v0.684 M1234.405,33.961h-2.729v0.684 M1239.187,33.961h-3.413v0.684 M1243.282,33.961h-3.412v0.684
	 M1248.068,33.961h-3.417v0.684 M1252.164,33.961h-3.412v0.684 M1256.262,33.961h-2.73v0.684 M1261.04,33.961h-3.412v0.684
	 M1265.144,33.961h-3.418v0.684 M1269.24,33.961h-2.733v0.684 M1274.021,33.961h-3.414v0.684 M1278.116,33.961h-3.41v0.684
	 M1282.903,33.961h-3.419v0.684 M1286.998,33.961h-3.417v0.684 M1291.096,33.961h-2.729v0.684 M1295.877,33.961h-3.413v0.684
	 M1299.979,33.961h-3.418v0.684 M1304.075,33.961h-2.733v0.684 M1308.856,33.961h-3.413v0.684 M1312.953,33.961h-3.413v0.684
	 M1317.732,33.961h-3.41v0.684 M1321.835,33.961h-3.419v0.684 M1325.933,33.961h-2.735v0.684 M1330.712,33.961h-3.411v0.684
	 M1334.809,33.961h-3.412v0.684 M1338.91,33.961h-2.732v0.684 M1343.691,33.961h-3.417v0.684 M1347.788,33.961h-3.41v0.684
	 M1352.568,33.961h-3.414v0.684 M1356.668,33.961h-3.415v0.684 M1360.77,33.961h-2.737v0.684 M1365.547,33.961h-3.413v0.684
	 M1369.646,33.961h-3.411v0.684 M1373.747,33.961h-2.733v0.684 M1378.527,33.961h-3.416v0.684 M1382.625,33.961h-2.735v0.684
	 M1387.404,33.961h-3.411v0.684 M1391.501,33.961h-3.414v0.684 M1395.603,33.961h-2.733v0.684 M1400.384,33.961h-3.419v0.684
	 M1404.48,33.961h-3.413v0.684 M1409.26,33.961h-3.41v0.684 M1413.362,33.961h-3.419v0.684 M1417.46,33.961h-2.735v0.684
	 M1422.239,33.961h-3.412v0.684 M1426.336,33.961h-3.411v0.684 M1430.438,33.961h-2.732v0.684 M1435.219,33.961h-3.418v0.684
	 M1439.315,33.961h-3.411v0.684 M1444.097,33.961h-3.414v0.684 M1448.192,33.961h-3.412v0.684 M1452.296,33.961h-2.737v0.684
	 M1455.024,33.961h-1.362v0.684 M521.312,33.961v0.684 M1455.024,33.961v0.684 M1455.024,38.064v-3.417v0.684 M1455.024,42.162
	v-2.735v0.684 M1455.024,46.942v-3.418v0.688 M1455.024,51.038v-3.414v0.68 M1455.024,55.818v-3.412v0.682 M1455.024,59.921v-3.419
	v0.685 M1455.024,64.018v-2.729v0.677 M1455.024,68.797v-3.419v0.69 M1455.024,33.961v0.684 M1455.024,69.481v0.684"/>
</svg>
