<?xml version="1.0" encoding="utf-8"?>
<!-- Generator: Adobe Illustrator 15.0.0, SVG Export Plug-In . SVG Version: 6.00 Build 0)  -->
<!DOCTYPE svg PUBLIC "-//W3C//DTD SVG 1.1//EN" "http://www.w3.org/Graphics/SVG/1.1/DTD/svg11.dtd">
<svg version="1.1" id="Layer_1" xmlns="http://www.w3.org/2000/svg" xmlns:xlink="http://www.w3.org/1999/xlink" x="0px" y="0px"
	 width="100px" height="100px" viewBox="0 0 100 100" enable-background="new 0 0 100 100" xml:space="preserve">
<g>
	<path fill="#010101" d="M50,1.005c-0.423,0-0.84-0.011-1.262,0v0.001C22.261,1.676,1,23.366,1,50.002C1,77.063,22.938,99,50,99
		c27.061,0,49-21.938,49-48.998C99,22.942,77.061,1.005,50,1.005z M50,89.199c-21.649,0-39.2-17.548-39.2-39.197
		c0-21.647,17.551-39.197,39.2-39.197s39.199,17.55,39.199,39.197C89.199,71.651,71.649,89.199,50,89.199z"/>
	<path fill="#010101" d="M58.912,21.947c0-0.895-0.729-1.623-1.623-1.623H42.71l0,0c-0.895,0-1.623,0.729-1.623,1.623v37.27
		l-17.426,0.029L50,79.678l26.338-20.551l-17.426,0.028V21.947z"/>
</g>
</svg>
