<?xml version="1.0" encoding="utf-8"?>
<!-- Generator: Adobe Illustrator 15.0.0, SVG Export Plug-In  -->
<!DOCTYPE svg PUBLIC "-//W3C//DTD SVG 1.1//EN" "http://www.w3.org/Graphics/SVG/1.1/DTD/svg11.dtd" [
	<!ENTITY ns_flows "http://ns.adobe.com/Flows/1.0/">
]>
<svg version="1.1"
	 xmlns="http://www.w3.org/2000/svg" xmlns:xlink="http://www.w3.org/1999/xlink" xmlns:a="http://ns.adobe.com/AdobeSVGViewerExtensions/3.0/"
	 x="0px" y="0px" width="70px" height="70px" viewBox="-20 -26.37 70 70"
	 overflow="visible" enable-background="new -20 -26.37 70 70" xml:space="preserve">
<defs>
</defs>
<path fill="#FFFFFF" d="M30,1.944c0,1.074-0.768,1.944-1.715,1.944H1.716C0.769,3.888,0,3.018,0,1.944l0,0C0,0.87,0.769,0,1.716,0
	h26.569C29.232,0,30,0.87,30,1.944L30,1.944z"/>
<path fill="#FFFFFF" d="M30,8.665c0,1.037-0.768,1.875-1.715,1.875H1.716C0.769,10.541,0,9.702,0,8.665l0,0
	C0,7.629,0.769,6.79,1.716,6.79h26.569C29.232,6.79,30,7.629,30,8.665L30,8.665z"/>
<path fill="#FFFFFF" d="M30,15.386c0,1.036-0.768,1.875-1.715,1.875H1.716C0.769,17.261,0,16.422,0,15.386l0,0
	c0-1.035,0.769-1.875,1.716-1.875h26.569C29.232,13.511,30,14.351,30,15.386L30,15.386z"/>
</svg>
