<?xml version="1.0" encoding="utf-8"?>
<!-- Generator: Adobe Illustrator 15.0.0, SVG Export Plug-In . SVG Version: 6.00 Build 0)  -->
<svg version="1.2" baseProfile="tiny" id="Layer_1" xmlns="http://www.w3.org/2000/svg" xmlns:xlink="http://www.w3.org/1999/xlink"
	 x="0px" y="0px" width="409.564px" height="409.563px" viewBox="0 0 409.564 409.563" xml:space="preserve">
<rect fill="none" width="409.564" height="409.563"/>
<path fill="#FFFFFF" d="M31.601,163.985L6.702,224.604h3.467l8.526-20.98h28.231l8.524,20.98h3.564l-24.996-60.618H31.601z
	 M20.017,200.577l12.796-31.727l12.884,31.727H20.017z"/>
<g>
	<path fill="#FFFFFF" d="M104.313,183.853c0-10.955-8.87-19.867-19.772-19.867H65.919v60.618h3.142V167.03h15.48
		c9.271,0,16.534,7.39,16.534,16.822c0,9.379-7.263,16.725-16.534,16.725h-4.856l19.61,24.026h4.293l-17.396-21.05
		C96.326,202.714,104.313,194.2,104.313,183.853"/>
	<polygon fill="#FFFFFF" points="132.055,219.744 109.414,163.985 105.852,163.985 130.847,224.604 133.265,224.604 
		158.162,163.985 154.697,163.985 	"/>
	<rect x="164.494" y="163.986" fill="#FFFFFF" width="3.142" height="60.618"/>
	<path fill="#FFFFFF" d="M197.101,163.985h-18.622v60.618h3.142v-20.98h15.479c10.902,0,19.772-8.867,19.772-19.771
		C216.874,172.897,208.003,163.985,197.101,163.985 M197.101,200.577h-15.479v-33.546h15.479c9.272,0,16.534,7.389,16.534,16.821
		C213.635,193.231,206.374,200.577,197.101,200.577"/>
	<path fill="#FFFFFF" d="M261.707,183.853c0-10.955-8.869-19.867-19.771-19.867h-18.623v60.618h3.142V167.03h15.481
		c9.271,0,16.535,7.39,16.535,16.822c0,9.379-7.264,16.725-16.535,16.725h-4.857l19.61,24.026h4.293l-17.393-21.05
		C253.72,202.714,261.707,194.2,261.707,183.853"/>
	<path fill="#FFFFFF" d="M269.275,194.294c0-15.455,12.487-28.028,27.838-28.028s27.838,12.573,27.838,28.028
		c0,3.564-0.69,6.963-1.901,10.102h3.419c1.095-3.172,1.72-6.562,1.72-10.102c0-17.137-13.939-31.076-31.075-31.076
		s-31.074,13.939-31.074,31.076c0,3.54,0.624,6.93,1.718,10.102h3.42C269.965,201.257,269.275,197.858,269.275,194.294"/>
	<polygon fill="#FFFFFF" points="339.208,169.435 363.659,204.104 365.736,204.104 390.188,169.435 390.188,204.396 393.33,204.396 
		393.33,163.986 390.192,163.986 364.745,200.269 339.203,163.986 336.066,163.986 336.066,204.396 339.208,204.396 	"/>
</g>
</svg>
